<?xml version="1.0" standalone="no"?>
<!DOCTYPE svg PUBLIC "-//W3C//DTD SVG 1.1//EN" "http://www.w3.org/Graphics/SVG/1.1/DTD/svg11.dtd" >
<svg xmlns="http://www.w3.org/2000/svg">
<metadata></metadata>
<defs>
<font id="cinnamon_cakeregular" horiz-adv-x="1024" >
<font-face units-per-em="2048" ascent="1536" descent="-512" />
<missing-glyph horiz-adv-x="552" />
<glyph horiz-adv-x="2048" />
<glyph horiz-adv-x="2048" />
<glyph unicode="&#xd;" horiz-adv-x="2048" />
<glyph unicode=" "  horiz-adv-x="552" />
<glyph unicode="&#x09;" horiz-adv-x="552" />
<glyph unicode="&#xa0;" horiz-adv-x="552" />
<glyph unicode="!" horiz-adv-x="376" d="M72 68q2 14 5 22t11 19q10 18 31 27.5t37 19.5q6 0 11 -1t11 -3q25 6 45.5 -8.5t24.5 -53.5q-10 -16 -15.5 -29.5t-15.5 -29.5q-16 -23 -37.5 -25t-41 6t-38 23.5t-28.5 32.5zM113 268q25 147 39 280.5t21 262.5t10 262t5 283q6 33 28 51t46.5 20.5t43 -15t18.5 -54.5 q-25 -147 -38.5 -280.5t-20.5 -262.5t-11 -262t-6 -283q-10 -29 -29.5 -44t-41 -17t-40 12.5t-24.5 46.5z" />
<glyph unicode="&#x22;" horiz-adv-x="479" d="M23 1249q2 33 21 54.5t43 25.5t44.5 -11t24.5 -52q-6 -31 17.5 -122t62.5 -218q-6 -29 -24.5 -46.5t-39 -21.5t-41 8.5t-29.5 42.5q8 53 2 101.5t-19 91.5t-30.5 79.5t-31.5 67.5zM303 938q10 45 13 93t2 93t-3 83t-2 63q2 33 21.5 54.5t43 25.5t44 -11.5t24.5 -52.5 q-23 -90 -27.5 -166t17.5 -166q-6 -29 -24.5 -46t-39 -21t-41 8t-28.5 43z" />
<glyph unicode="#" d="M-9 666.5q3 21.5 19.5 41t42.5 27.5l205 -24q4 27 5 52t3 52q-51 -8 -102 -14t-103 -13q-31 8 -44 28t-10 41.5t19.5 41t43.5 27.5q47 -4 96 -5t96 -1l-6 36q-12 16 -14 31q2 4 2 10q2 29 16 49.5t34.5 27.5t42 -2t36.5 -38v-20h2v-10l-4 -13l-6 -69q49 4 99 7t99 9 l-4 74q0 6 0 2v-12.5v-16.5v-14q-2 -6 -2 -1t-1 15t-1 22.5t-2 18.5q2 33 21.5 54.5t43 25.5t44 -11.5t24.5 -52.5l-10 -88q113 16 217 43q16 8 41 9q2 0 4 -2q27 -10 37 -29t8 -38t-16.5 -38.5t-36.5 -28.5q-14 -4 -38 -6t-49.5 -2t-49 1t-37.5 5h-2q-23 -2 -45.5 -2 t-44.5 -4q-6 -43 -11.5 -86t-9.5 -86q35 2 66.5 3t66.5 5h15q37 20 68.5 -2t21.5 -73q-20 -33 -49 -45.5t-61 -12.5t-67.5 7.5t-68.5 13.5v-27q-2 -49 6 -98t4 -101q-6 -27 -24.5 -44t-39 -22t-39 7t-26.5 43l-4 14q0 12 4 22.5t8 20.5q10 39 19.5 90.5t15.5 106.5 q-123 12 -244 12v-6q-4 -47 1.5 -94t-9.5 -94q-12 -23 -29.5 -34t-36 -11t-35 12t-24.5 39q0 8 -4 16q0 39 29 64l31 108q-99 -4 -193 -12q-31 8 -44 27.5t-10 41zM326 702q119 -14 241 -18q2 20 3 39.5t1 40.5v2q-4 23 -5 43t-3 43q-53 -6 -106.5 -11.5t-106.5 -13.5 q-6 -33 -13 -63.5t-11 -61.5zM807 698q22 -4 18 0q-4 0 -7 1t-7 1z" />
<glyph unicode="$" horiz-adv-x="710" d="M4 770q-14 59 7.5 114.5t82 97.5t170.5 56l-12 158q2 33 21.5 54.5t43 25.5t44 -11.5t24.5 -52.5l-6 -147q70 10 127 -2t86 -59q8 -68 -10.5 -86.5t-51 -14.5t-74.5 18.5t-81 14.5q-2 -82 -3 -153.5t1 -153.5q82 2 147.5 -33t106.5 -88t53 -114.5t-12.5 -112t-88 -80 t-173.5 -19.5q6 -53 11 -98t5 -78q-6 -25 -20.5 -42t-33 -21t-41 5t-42.5 38q-2 14 0 37.5t5 51t5 55.5t0 52q-53 4 -104.5 20.5t-92.5 47.5q-16 25 -15 49.5t14.5 42.5t37 25.5t51.5 -5.5q16 -14 45 -25t66 -22l2 248q-76 -6 -138.5 22.5t-102.5 77t-54 107.5zM81 785 q3 -42 57.5 -80.5t158.5 -65.5q-4 72 -9.5 143.5t-11.5 143.5q-100 -25 -149 -62t-46 -79zM375 555l16 -254q119 -12 166 26t38 88t-67.5 94t-152.5 46z" />
<glyph unicode="%" horiz-adv-x="968" d="M10 894.5q-23 60.5 2 154.5q29 72 86.5 96t116.5 12t109.5 -57t64.5 -111q14 -70 -15.5 -118t-79.5 -72.5t-108.5 -23.5t-105.5 30t-70 89.5zM93 940q7 -29 24.5 -55.5t38.5 -36.5q16 -6 40.5 -6t47 9t39 27.5t18.5 47.5q12 16 3 38.5t-33.5 41t-60.5 26.5t-75 -4 q-31 -8 -40 -33.5t-2 -54.5zM121 18q82 188 151.5 357.5t132 336.5t122 338.5t120.5 366.5q14 31 40 43.5t49.5 7t36.5 -26t3 -57.5q-82 -188 -150.5 -357t-130 -335t-121 -339t-122.5 -367q-16 -25 -40 -35t-44.5 -6t-34.5 22.5t-12 50.5zM532.5 463.5 q-22.5 60.5 2.5 154.5q29 72 86 96.5t116.5 12.5t109.5 -57t64 -111q14 -70 -15.5 -118t-79.5 -72.5t-108.5 -23.5t-105.5 29.5t-69.5 89zM615.5 510q7.5 -29 24.5 -55.5t38 -36.5q16 -6 40.5 -6t47 9t39 27.5t18.5 47.5q12 16 3 38.5t-33.5 41t-60.5 26.5t-75 -4 q-31 -8 -40 -33.5t-1.5 -54.5z" />
<glyph unicode="&#x26;" horiz-adv-x="892" d="M1 812q-11 83 10.5 151.5t81 114.5t171.5 55q168 12 255 -21t116 -93.5t7.5 -141t-71 -165.5t-118 -168t-134.5 -147q39 -59 108 -113.5t132 -93.5q23 12 51.5 33t57 42.5t57.5 43t51 39.5q37 20 59.5 15t29.5 -25.5t-3 -48t-39 -49.5l-174 -105q94 -41 146.5 -61.5 t68.5 -20.5q35 -12 47.5 -26.5t6 -26.5t-28 -22.5t-53.5 -14.5q-25 8 -51.5 17.5t-60.5 22.5t-77 32.5t-100 50.5l-19 -6q-55 -18 -82.5 -27.5t-48 -14.5t-46 -10t-81.5 -16q-135 -25 -202.5 25.5t-38.5 161.5q6 23 22.5 47t39 48.5t47 48.5t44.5 44q-35 41 -73.5 110.5 t-67.5 150.5t-40 164zM86 838.5q6 -64.5 30.5 -132t63.5 -132t78 -111.5q27 27 73 77t92 109.5t81 123t40 118.5t-30 94t-131 49q-117 12 -183.5 -11.5t-93 -71.5t-20.5 -112.5zM135 143q2 -20 28.5 -30.5t69.5 -10.5t96.5 11.5t110.5 36.5q-49 35 -102 80.5t-94 86.5 q-39 -37 -76 -82t-33 -92z" />
<glyph unicode="'" horiz-adv-x="196" d="M37 938q10 45 13 93t2 93t-3 83t-2 63q2 33 21.5 54.5t43 25.5t44 -11.5t24.5 -52.5q-23 -90 -28 -166t18 -166q-6 -29 -24.5 -46t-39 -21t-41 8t-28.5 43z" />
<glyph unicode="(" horiz-adv-x="389" d="M6 633q-6 178 35 359.5t113 353.5q39 92 97 168.5t126 150.5q14 27 38.5 36t45 4t33 -26.5t4.5 -56.5q-137 -133 -224.5 -271.5t-138.5 -316.5q-41 -137 -52 -276.5t14.5 -269.5t95 -246.5t190.5 -208.5q35 -25 69.5 -49.5t75.5 -30.5q31 -12 40.5 -33.5t3 -43t-27 -39 t-46.5 -21.5q-66 16 -126.5 60t-105.5 93q-133 147 -193.5 316.5t-66.5 347.5z" />
<glyph unicode=")" horiz-adv-x="389" d="M-176 -123.5q-6 21.5 3 43t40 33.5q41 6 75.5 30.5t69.5 49.5q121 92 189.5 208.5t95.5 246.5t14.5 269.5t-51.5 276.5q-53 178 -139 316.5t-223 271.5q-8 35 4 56.5t32.5 26.5t44 -4t39.5 -36q68 -74 126.5 -150.5t97.5 -168.5q72 -172 112.5 -353.5t34.5 -359.5 t-66.5 -347t-193.5 -317q-45 -49 -105.5 -93t-125.5 -60q-29 4 -48.5 21.5t-25.5 39z" />
<glyph unicode="*" horiz-adv-x="856" d="M26 683.5q3 21.5 19 40.5t43 28q57 -6 114.5 -10.5t110.5 -6.5q-45 41 -96.5 84t-112.5 90q-16 25 -15 49.5t14.5 43t37 25.5t52.5 -5q41 -49 79.5 -104.5t81.5 -106.5q-10 63 -26.5 123.5t-26.5 124.5q2 33 21.5 54.5t43 25.5t44 -11.5t24.5 -52.5q-8 -66 -9 -129 t3 -125q31 41 59.5 86t59.5 88q27 18 51.5 16.5t37.5 -16t15 -39t-12 -51.5q-55 -43 -100 -84t-84 -86q27 2 51 3t53 5q41 4 79 10.5t77 10.5h8q-2 4 9 6t18 0q41 8 61 -25.5t-4 -78.5q-29 -25 -57.5 -30t-60.5 -2t-65.5 10t-70.5 7h-27l47 -37q10 2 19.5 0t19.5 -6 q10 -14 19.5 -24.5t17.5 -26.5v-2l13 -8l-9 -4q6 -23 -1 -43.5t-22.5 -32.5t-36 -14t-40.5 14l-18 22q-2 2 -4.5 2.5t-6.5 4.5q-8 8 -12 22l-61 76q2 -16 4 -33.5t6 -34.5l4 -24v-8q-2 -10 -10 -27l-4 -8l-8.5 -8.5l-8.5 -8.5t-12 -8l-12 -6q-4 -2 -17 -2h-12l-4 2 q-4 0 -12 4q0 2 -3 2l-4 4q-14 10 -18 23l-6 18q0 4 -2 6q0 18 6 31q0 4 1 10t1 13q-2 -4 -4 -9.5t-2 -9.5q-14 -27 -37 -38t-43.5 -7t-34.5 22.5t-12 51.5q12 25 28.5 46t32.5 44l-188 -25q-31 8 -44 28t-10 41.5zM340 557q4 0 4 -4v14z" />
<glyph unicode="+" horiz-adv-x="862" d="M-1 721.5q3 21.5 19.5 41t42.5 28.5q78 -10 154 -15.5t152 -7.5q-12 59 -27 113.5t-25 113.5q2 33 21.5 54.5t43 25.5t44 -11t25.5 -52q-2 -29 -3.5 -59.5t-5.5 -59.5q0 -4 -1 2t-1 15.5v15.5t0 2q-4 -41 -3 -80t5 -80q164 4 322 39q37 -2 53 -21.5t13 -44t-22.5 -46 t-51.5 -25.5q-78 0 -153 9t-150 11q4 -41 11 -83t13 -83q8 -16 12 -37q0 -6 -1 -12t-1 -12q-2 -16 -12 -29q-10 -23 -37 -33q-25 -10 -47 2q-2 0 -6 5q-12 8 -18 24l-7 17l-4 22q0 23 15 45q6 43 10 86t0 86q-33 -4 -77 -8t-89 -9t-87 -10.5t-73 -7.5q-31 8 -44 27.5t-10 41 z" />
<glyph unicode="," horiz-adv-x="434" d="M121.5 75.5q-21.5 28.5 3.5 88.5q0 -6 -2 -8q12 23 24.5 33t36.5 18q39 -4 63.5 -17.5t38 -35t18.5 -51t7 -66.5q2 -4 -1 -27.5t-10 -54.5t-17.5 -60.5t-22.5 -47t-27.5 -13.5t-29.5 41q2 8 7 37t6 61.5t-6 62.5t-28 40q-39 -29 -60.5 -0.5zM182 84h8l3 2q-6 0 -11 -2z " />
<glyph unicode="-" horiz-adv-x="591" d="M17 730.5q3 21.5 19.5 41t43.5 27.5q70 -16 118 -27.5t87 -15.5t77.5 2t92.5 26q14 12 34 13l3 2v-2q16 4 40 -15v2q4 -2 13 -10l-8 6q27 -33 15.5 -66.5t-50.5 -49.5q-109 6 -215 11t-215 -13q-31 8 -44.5 27.5t-10.5 41z" />
<glyph unicode="." horiz-adv-x="397" d="M124.5 137q11.5 37 72.5 72q4 0 8 -1t8 -1q8 2 25 2q14 -10 27.5 -16.5t17.5 -22.5q10 -16 10 -26.5t-4 -28.5q-49 -49 -93 -53.5t-63.5 17t-8 58.5z" />
<glyph unicode="/" horiz-adv-x="722" d="M47 18q82 188 151.5 357.5t132 336.5t122 338.5t120.5 366.5q14 31 40 43.5t49.5 7t37 -26t2.5 -57.5q-82 -188 -150.5 -357t-130 -335t-120.5 -339t-123 -367q-16 -25 -39.5 -35t-44 -6t-35 22.5t-12.5 50.5z" />
<glyph unicode="0" horiz-adv-x="987" d="M15.5 565.5q-13.5 139.5 11 280.5t73.5 262q51 119 139.5 166t186.5 43t193.5 -48t158.5 -108q76 -74 118 -182.5t52 -229t-10 -242.5t-69.5 -223.5t-126 -172t-179.5 -86.5q-23 -4 -47 -8.5t-59 -1.5t-83 17.5t-116 45.5q-115 94 -172 221t-70.5 266.5zM94 605.5 q-2 -113.5 29 -211t100.5 -167t182.5 -90.5q100 -16 174.5 14.5t126 93t82 147.5t42 175t5 178.5t-26.5 155.5q-20 72 -51 129.5t-88 104.5q-92 76 -177 77.5t-157 -48.5t-125 -140t-84 -197.5t-33 -221z" />
<glyph unicode="1" horiz-adv-x="430" d="M14 1076.5q-2 27.5 21 56.5q2 2 33.5 29.5t74.5 60t89 62.5t81 40q4 0 8.5 -1t8.5 -1q23 4 42 -12.5t23 -50.5q-16 -166 -29.5 -315.5t-22.5 -297t-13 -298t0 -316.5q-12 -23 -30.5 -34t-37 -11t-35 13t-24.5 40q0 6 -2 8q29 254 51 494.5t18 464.5l-4 170 q-33 -27 -53 -42.5t-34.5 -27.5t-26 -26.5t-25.5 -39.5q-27 -27 -52.5 -26.5t-42 17t-18.5 44z" />
<glyph unicode="2" horiz-adv-x="966" d="M18 1006q8 115 75 187.5t160 109t198.5 38.5t191.5 -24q133 -43 198.5 -108.5t80 -144.5t-15 -168t-85 -180t-131.5 -179t-153.5 -165t-150.5 -139.5t-124 -101.5q78 8 147.5 16.5t136 16.5t136.5 17t147 22q27 18 51.5 16t38 -16.5t15.5 -39t-12 -50.5 q12 -12 -47.5 -14.5t-170 -9.5t-264 -27.5t-329.5 -71.5q-31 8 -42.5 23.5t-7 35t19.5 40t38 38.5h8q33 31 100.5 88t149.5 133t165 164t148.5 180t100 183.5t18.5 175.5q-14 72 -70.5 114.5t-133.5 60t-164 9.5t-160.5 -41t-124 -88t-54.5 -133q-29 -53 -58.5 -43t-25.5 76 z" />
<glyph unicode="3" d="M25 178q-8 31 4 56.5t33.5 38t46 5t41.5 -39.5q25 -61 90 -93t148 -36.5t172 17t164 64.5t121 105.5t44 140.5q-12 74 -46 132.5t-80 100.5t-100.5 64.5t-105.5 26.5q-29 0 -68.5 -13.5t-77.5 -25.5t-68 -17.5t-38 9.5q-12 25 -6 42t23.5 31.5t44 22.5t55.5 14 q37 29 75 70t65.5 84t37.5 83.5t-8 69.5q-33 49 -76 70t-89 22t-93 -12.5t-86 -29t-65.5 -27.5t-35.5 -10q-33 23 -42 44t16 52q39 31 97 50.5t124 25.5t132.5 -1t118.5 -30.5t84 -64.5t30 -103q-4 -90 -47.5 -157.5t-106.5 -122.5q8 0 12 -1t8 -1q74 -16 141.5 -46t121 -77 t88 -111.5t47.5 -146.5q12 -86 -18.5 -156t-89 -122t-138.5 -88t-167 -54.5t-175 -19.5t-162 17.5t-126 55.5t-70 92z" />
<glyph unicode="4" horiz-adv-x="931" d="M-2 1262q2 6 2 16q2 31 21.5 51.5t42 24.5t42 -10.5t23.5 -49.5h2v-16q-2 -2 -2 -8q16 -129 11 -257t-13 -259q33 -2 83 1t110.5 8t127 11t134.5 10v161v136.5v100.5v53q2 33 19 50.5t39 17.5t40 -19.5t22 -56.5q-20 -117 -31.5 -222.5t-17.5 -216.5q66 4 122 3.5 t102 -7.5q31 -12 40 -33.5t2.5 -43t-27 -39t-46.5 -21.5q-47 10 -95.5 16.5t-101.5 10.5q-2 -135 4 -285.5t17 -335.5q-6 -29 -24.5 -46t-39 -21t-41 8t-28.5 43q10 49 18 121.5t12 156.5t7.5 177.5t5.5 185.5q-115 4 -236 -2t-244 -17q-12 -2 -18 0.5t-16 8.5 q-6 6 -11.5 36.5t-8.5 75.5t-6 98.5t-5 102.5t-4 89t-6 60q-4 31 -12.5 62t-12.5 61q0 2 -1 3t-1 6z" />
<glyph unicode="5" horiz-adv-x="954" d="M8 190.5q-8 24.5 1 48t33 39t56 9.5q66 -53 148 -96.5t169 -60.5t172 -1t158 86q68 63 85.5 151.5t-4 174.5t-78 158.5t-136.5 103.5q-78 31 -151.5 26.5t-137 -27t-112.5 -53t-76 -51.5l-4 -2h2q-6 -4 -2 0q-25 -8 -43 35t-29.5 111.5t-15.5 148.5t-3 146.5t8 107.5 t22 31q2 6 33.5 7t84 0t117 -2t132 -1t132 3t115.5 13q37 -6 50.5 -27.5t7 -45t-28 -43t-54.5 -19.5q-27 6 -62.5 10.5t-51.5 14.5q-90 8 -197.5 -1t-200.5 -18v-4q-16 -57 -19 -126.5t19 -174.5q51 20 117 40t133.5 29t133 3t120.5 -39q139 -82 204 -184.5t72 -205 t-36 -196.5t-122 -163.5t-184.5 -104.5t-222.5 -18q-84 10 -166.5 42.5t-146.5 88.5q-33 12 -41 36.5z" />
<glyph unicode="6" horiz-adv-x="899" d="M3 472q1 97 25.5 199.5t67.5 198.5q20 45 52 90.5t71 94.5t83 101.5t87 113.5q23 29 49.5 34t45 -8.5t24.5 -39t-12 -58.5q-55 -70 -106.5 -122t-96.5 -103t-82 -107.5t-61 -134.5q70 33 155.5 49.5t169.5 13.5t159 -27t122 -69q49 -47 76.5 -117.5t31.5 -148.5 t-14.5 -155.5t-64.5 -140t-119.5 -101.5t-176.5 -39q-133 0 -226 38t-150.5 103.5t-84 151.5t-25.5 183zM106.5 472q2.5 -85 33 -164t90 -139t145.5 -83q96 -25 189 8t153.5 102.5t75 166t-47.5 198.5q-41 68 -116.5 92.5t-163.5 23.5t-176 -17.5t-156 -30.5 q-29 -72 -26.5 -157z" />
<glyph unicode="7" d="M17.5 1217.5q5.5 21.5 22.5 39t46 23.5q217 -37 416.5 -24.5t412.5 40.5q35 -4 49.5 -23.5t10.5 -41.5q4 -6 4 -13.5t2 -17.5q-72 -135 -155 -270t-162.5 -272.5t-147 -279.5t-110.5 -292q-16 -25 -40 -34t-44.5 -3t-33 25.5t-7.5 52.5q27 68 63.5 133.5t76.5 129t81 126 t76 125.5q18 33 38.5 71t48 96t66.5 143t96 214q-143 14 -284 13q-121 -4 -238.5 -17.5t-238.5 -17.5q-31 10 -42.5 31.5t-6 43z" />
<glyph unicode="8" horiz-adv-x="1234" d="M-1 302q-13 99 27 190.5t121.5 165t180.5 116.5q-47 20 -88 55q-47 39 -77 86.5t-35 95.5t20 93t88 80q76 47 159.5 70.5t167.5 23.5t162 -19.5t138.5 -56.5t99 -90t47.5 -119q6 -94 -52.5 -156.5t-138.5 -93.5q166 -41 267.5 -134t116 -202.5t-69.5 -213t-287 -162.5 q-41 -12 -93.5 -21.5t-106.5 -16.5t-107.5 -10t-96.5 -1q-90 6 -180 34.5t-158 94.5q-92 92 -105 191zM101.5 375q-9.5 -74 24.5 -139.5t113.5 -114.5t213.5 -64q37 -4 103.5 0t144 16.5t156.5 36t138.5 60.5t91 88t15.5 121q-23 92 -86.5 153.5t-150.5 98.5t-187 51 t-199 12q-111 -14 -192.5 -63t-128.5 -115.5t-56.5 -140.5zM249.5 977q12.5 -39 53.5 -72t100.5 -57.5t121 -38.5t116.5 -16t88 12q68 10 115 43t64.5 76t-2 91t-87.5 89q-41 25 -71.5 37t-61.5 17t-65.5 6t-81.5 5q-92 -10 -159 -33.5t-110 -78.5q-33 -41 -20.5 -80z" />
<glyph unicode="9" horiz-adv-x="1001" d="M2 774q-8 86 21.5 180.5t88 174t140.5 138t177 75t198.5 -21.5t206.5 -146q0 33 -2.5 63t-4.5 61q-2 33 16.5 55.5t42 29t45 -6t27.5 -49.5q-4 -166 -24.5 -323.5t-43 -313t-37.5 -313.5t-5 -324q-4 -35 -24.5 -53t-43 -20.5t-42 15t-21.5 54.5q12 49 20 101.5t17.5 119 t19.5 152.5t27 201q-68 -59 -143.5 -90t-152.5 -41.5t-150.5 -2t-137.5 28.5q-104 33 -155.5 101.5t-59.5 154.5zM82 827.5q2 -73.5 46 -135t140 -92.5q68 -23 142.5 -24t145.5 20.5t133.5 65t105.5 106.5q2 2 9 28.5t14 61.5t13.5 70t6.5 53q-37 82 -98.5 152.5 t-140.5 101.5t-173 9.5t-201 -122.5q-70 -66 -107.5 -143.5t-35.5 -151z" />
<glyph unicode=":" horiz-adv-x="397" d="M124.5 137q11.5 37 72.5 72q4 0 8 -1t8 -1q8 2 25 2q14 -10 27.5 -16.5t17.5 -22.5q10 -16 10 -26.5t-4 -28.5q-49 -49 -93 -53.5t-63.5 17t-8 58.5zM124.5 776q11.5 37 72.5 72q4 0 8 -1t8 -1q8 2 25 2q14 -10 27.5 -16.5t17.5 -22.5q10 -16 10 -26.5t-4 -28.5 q-49 -49 -93 -53.5t-63.5 17t-8 58.5z" />
<glyph unicode=";" horiz-adv-x="434" d="M121.5 75.5q-21.5 28.5 3.5 88.5q0 -6 -2 -8q12 23 24.5 33t36.5 18q39 -4 63.5 -17.5t38 -35t18.5 -51t7 -66.5q2 -4 -1 -27.5t-10 -54.5t-17.5 -60.5t-22.5 -47t-27.5 -13.5t-29.5 41q2 8 7 37t6 61.5t-6 62.5t-28 40q-39 -29 -60.5 -0.5zM124.5 776q11.5 37 72.5 72 q4 0 8 -1t8 -1q8 2 25 2q14 -10 27.5 -16.5t17.5 -22.5q10 -16 10 -26.5t-4 -28.5q-49 -49 -93 -53.5t-63.5 17t-8 58.5zM182 84h8l3 2q-6 0 -11 -2z" />
<glyph unicode="&#x3c;" horiz-adv-x="559" d="M10 530q111 117 214.5 239t201.5 247q27 18 51.5 16t37.5 -16.5t15 -39t-12 -50.5q-104 -96 -207.5 -194.5t-208.5 -196.5q104 -33 210 -66t196 -94q25 -25 24.5 -52.5t-15.5 -48t-41.5 -26.5t-55.5 14q-16 16 -58.5 42t-96.5 55.5t-117.5 60.5t-122.5 57q-25 23 -15 53z " />
<glyph unicode="=" horiz-adv-x="587" d="M-1 631.5q3 21.5 19.5 41t42.5 27.5q70 -16 118 -27t87 -15.5t78 2t92 26.5q14 12 35 12l2 2v-2q16 4 41 -14v2q4 -2 12 -10l-8 6q27 -33 15.5 -66.5t-50.5 -50.5q-109 6 -215 11t-215 -13q-31 8 -44 27.5t-10 41zM15 828.5q3 21.5 19.5 41t43.5 27.5q70 -16 118 -27.5 t87 -15.5t77.5 2t92.5 27q14 12 34 12l2 2v-2q16 4 41 -14v2q4 -2 13 -11l-8 7q27 -33 15.5 -67t-50.5 -50q-109 6 -215 11t-215 -13q-31 8 -44.5 27.5t-10.5 41z" />
<glyph unicode="&#x3e;" horiz-adv-x="559" d="M8 322.5q0 27.5 25 52.5q90 61 195.5 94t209.5 66q-104 98 -207.5 196t-207.5 195q-16 27 -13.5 51t16 38.5t37 16.5t52.5 -16q98 -125 201.5 -247t213.5 -239q10 -31 -14 -53q-59 -27 -122.5 -57.5t-118 -60t-96.5 -55t-58 -42.5q-29 -20 -55.5 -14t-42 26.5t-15.5 48z " />
<glyph unicode="?" horiz-adv-x="905" d="M14 1268q12 27 45 48t76 39.5t91 33t90 24.5t73 15.5t41 7.5q117 12 204 -25t141 -103.5t76.5 -155.5t13.5 -183.5t-52 -183.5t-117.5 -156.5t-182 -105.5t-249.5 -27l-10 -256q-6 -29 -24.5 -46.5t-39 -21.5t-41 8t-28.5 43q20 92 28.5 154.5t10.5 101.5t4 60.5t11 31 t31.5 11.5t65.5 4q41 2 84 3t86 6t84 17.5t78 36.5q86 61 135 152.5t51.5 186.5t-46 180t-158.5 132q-57 25 -124 28t-133.5 -11t-129 -42t-111.5 -65q-2 -2 -2 -4h-2q-41 -29 -67.5 -13.5t-2.5 75.5zM115 55v6q2 16 7 23.5t15 15.5q10 12 39 18.5t39 10.5q39 -16 43 -48 t-14 -56q-4 -12 -8 -19q0 -6 -2.5 -12t2.5 -10q-41 -39 -75 -24t-38 54q-4 16 -2 25q-2 2 -6 16z" />
<glyph unicode="@" horiz-adv-x="1691" d="M23.5 585q13.5 122 78.5 234q43 74 113 131.5t153 99.5t172 68.5t171 38.5q504 74 843 -293q51 -51 75 -119.5t28 -142.5t-10.5 -148.5t-40 -140t-62.5 -116t-76 -74.5q-31 -20 -88 -35.5t-119.5 -12.5t-123 31.5t-97.5 98.5l-10 -6q-90 -57 -182 -65.5t-168 19t-130 84 t-70.5 129t11 155.5t115.5 165q39 37 98.5 49.5t120 1t113.5 -46.5t80 -92q10 20 14 37.5t7 31t7.5 22.5t14.5 13q35 -10 42 -37.5t3 -68.5t-13.5 -89t-8.5 -99.5t20.5 -99.5t73.5 -89q55 -43 106 -45t94 20.5t76 61.5t49 78q59 137 57.5 248.5t-49 198.5t-130.5 149.5 t-188.5 99.5t-225 48.5t-237.5 -2t-226.5 -52.5t-192.5 -102q-94 -72 -142 -162t-57.5 -187.5t16.5 -195.5t78 -188.5t128 -165t166 -123.5q61 -35 134 -48.5t140.5 -13.5t119.5 12.5t71 32.5q55 37 87.5 20.5t2.5 -69.5q-94 -66 -198.5 -88t-208 -9t-200 60t-172.5 123 q-88 88 -150.5 197.5t-89 227.5t-13 240zM532.5 406.5q-4.5 -54.5 30.5 -105.5q29 -41 89.5 -62.5t128 -22.5t130 19.5t95.5 63.5q-10 47 -13.5 96t-1.5 97q-29 35 -51 68.5t-50 56t-65 30.5t-90 -8q-49 -16 -95 -51t-74.5 -81t-33 -100.5z" />
<glyph unicode="A" horiz-adv-x="1402" d="M8 748q14 10 37 11t41 0t26.5 -2t-3.5 3l110 -4q12 94 32.5 187t55.5 187q43 115 110.5 187t148.5 107.5t170 35.5t176 -30.5t165 -91t137 -146.5q35 -51 59.5 -139t42 -195.5t26 -226.5t11.5 -229q2 -55 1.5 -105t-1.5 -96q-3 -92 -10 -150q-11 -39 -35 -53 q-19 -11 -38 -11l-10 1q-24 4 -40 26.5t-6 57.5q12 156 22 316q6 91 6 189q0 74 -3 152q-42 2 -87 2q-67 0 -139 -4q-120 -6 -242 -18.5t-239.5 -26.5t-222.5 -29h-4q-3 -53 -2 -106v-53q2 -80 6 -155t8.5 -142.5t6.5 -122.5q-6 -29 -24.5 -46.5t-39 -21.5t-41 8.5 t-29.5 42.5q2 147 3.5 293t13.5 289q-54 -8 -109 -8q-3 1 -7 1q-59 0 -79 25q-21 33 -21 54q0 25 17 37zM311 754h4q102 0 219 12t236 29.5t235.5 36t221.5 30.5q-10 80 -30.5 151.5t-51.5 127.5q-41 72 -107 128q-65 57 -144 87q-74 29 -153 28h-10q-84 -2 -160 -47 q-66 -39 -111.5 -100t-76.5 -138t-48.5 -165t-23.5 -180z" />
<glyph unicode="B" horiz-adv-x="1359" d="M-24 140q10 30 50 35h8q37 0 85 -42q8 63 15 116.5t11.5 105t6.5 104.5q1 26 1 55.5t-1 60.5q-4 166 -31 330t-49 324q-33 -8 -52.5 5t-24.5 34.5t5 46t41 41.5q100 58 231 86q122 27 244 26h18q130 -2 242 -36q112 -32 174 -98q60 -62 59 -156v-10q-3 -100 -104 -232 q117 -23 211 -77t148 -135q55 -82 61 -186q1 -10 1 -20q0 -96 -52 -205q-66 -135 -193 -212.5t-279 -111.5q-143 -32 -290 -32h-18q-156 2 -281 27q-27 -23 -57.5 -19t-46.5 39q-86 23 -115 64q-21 30 -21 55q0 9 3 17zM182 1329q14 -6 19.5 -52t6.5 -111.5t1 -139.5t4 -133 v-12q37 12 97.5 19t129 12.5t139 11.5t131 16t102.5 27.5t52 46.5q62 81 62 146v8q-4 68 -54.5 115.5t-136.5 76.5t-183 35q-27 2 -54 2q-70 1 -142 -11q-98 -16 -174 -57zM215 784q2 -92 7 -175t8 -165t6.5 -168t3.5 -182q66 -39 173 -52q56 -7 115 -7q55 0 112 6 q120 12 238.5 51t207 103.5t131.5 155.5q26 54 26 119q0 43 -12 91q-18 100 -82 159.5t-155 89.5q-90 30 -200 35q-38 2 -76 2q-70 -1 -140 -7q-106 -10 -201.5 -25.5t-161.5 -30.5z" />
<glyph unicode="C" horiz-adv-x="1292" d="M16 558q-2 33 -2 66q0 122 31 240q39 150 124 274t216 189q104 53 219 71q46 7 92 8q68 0 136 -16q114 -28 217.5 -106t183.5 -219q2 -33 -13.5 -56.5t-38 -31.5t-46 2t-33.5 47q-47 121 -135 184q-89 62 -189 82q-56 11 -110 10q-44 0 -86 -6q-96 -16 -162 -51 q-88 -47 -152.5 -122.5t-105.5 -168.5q-40 -92 -58 -191q-13 -74 -14 -145q0 -25 2 -49q6 -96 40 -186t93.5 -159.5t142.5 -111.5t189 -44q7 0 59 -4q8 -1 18 0q48 0 112 16q78 18 174 67.5t196 153.5q12 27 32.5 42t41 15t37 -15t20.5 -48q-47 -98 -136 -162.5t-191 -103.5 t-204 -55q-90 -14 -158 -13h-17q-166 6 -280 93t-174.5 217t-70.5 287z" />
<glyph unicode="D" horiz-adv-x="1167" d="M4 100q2 10 2 27q12 31 38 45t48 10q3 49 3 100.5t-3 104.5q-6 107 -18.5 235t-28.5 282.5t-35 350.5q-6 14 -2 37q-2 16 -3 32t-1 32q2 33 18 51q16 19 38 23q7 2 15 1l29 -5q22 -8 33 -27q4 -4 1 -8.5t-3 -8.5q125 0 225.5 -5t194.5 -28.5t189.5 -71.5t207.5 -134 q63 -47 103.5 -119t58.5 -156q15 -68 15 -139q-1 -17 -1 -35q-4 -90 -28.5 -173t-70.5 -152.5t-111 -112.5q-39 -27 -76 -55.5t-82 -44.5q-72 -25 -162 -51.5t-183 -46.5q-93 -18 -185 -30q-58 -7 -110 -8q-32 0 -61 3q-31 10 -43 28.5t-12 48.5zM127 1249q2 -61 5 -152 t9 -193.5t15.5 -209t23.5 -196.5q14 -86 23.5 -171t15.5 -171q82 2 176 15t185.5 35.5t168 52.5t123.5 67q88 70 135.5 168t50.5 202v14q0 96 -37 188q-40 99 -126 175q-82 74 -174 113q-93 39 -191 55q-93 15 -188 15h-12q-102 -1 -203 -7z" />
<glyph unicode="E" d="M-13 1308q3 22 19.5 41t42.5 27l43 -4q16 4 33 -4q146 -13 290 -12h71q180 4 370 22q10 8 23 11q8 0 14 -1.5l14 -3.5q35 -2 50.5 -20t12.5 -41t-20.5 -43t-48.5 -27q-8 0 -15 -1t-16 -1q-8 0 -16 4q-149 11 -310 11h-40q-182 -2 -350 -17q-2 -66 -3 -107.5t-1 -77.5 t2 -77t4 -104q58 -9 130 -11q30 -1 60 -1q42 1 85 3q73 4 139.5 12.5t111.5 22.5q37 10 58.5 -1t26.5 -32.5t-7 -45t-43 -37.5q-68 0 -137.5 3t-140 3t-140.5 -5.5t-137 -21.5q10 -160 20.5 -330t22.5 -329q87 -6 187 -8q56 -1 109 -2q43 0 86 1q95 2 173 8.5t119 18.5 q35 0 56 2t31.5 -1t10.5 -15.5t-6 -42.5q-10 -31 -58.5 -44.5t-118.5 -16.5q-35 -2 -75.5 -1.5t-84.5 1.5q-90 3 -182 5q-37 1 -73 1q-55 0 -109 -2q-90 -3 -164 -19q-25 6 -37 20.5t-13 31t7.5 34.5t22.5 31q6 43 6 129t-3 194.5t-9 228t-13.5 230.5t-15.5 201t-14 141 q-29 7 -41 27q-10 16 -10 33q0 5 1 9z" />
<glyph unicode="F" d="M-13 1308q3 22 19.5 41t42.5 27q49 -6 120 -8t149.5 -2t161.5 2t160 5t141.5 7t105.5 9q8 0 14 -1.5l14 -3.5q35 -2 51 -20q13 -15 12 -34v-7q-3 -23 -20.5 -43t-48.5 -27q-8 0 -15 -1t-15 -1t-17 4q-149 11 -310 11h-40q-182 -2 -350 -17q-2 -66 -3 -107.5t-1 -77.5 t2 -77t4 -104q57 -9 131 -11q26 -1 53 0q46 0 94 2q74 4 140.5 13.5t107.5 21.5q37 10 58.5 -3t26.5 -36.5t-7 -49t-43 -40.5q-68 0 -137.5 3t-140 3t-140 -5t-137.5 -21q-1 -15 -1 -31q0 -42 4 -97q5 -77 12.5 -161t12.5 -168q4 -60 4 -112q0 -21 -1 -39q-2 -68 -14.5 -109 t-39.5 -41h-3q-25 0 -37 58q-13 62 -18 168t-5 240t-3 273.5t-12.5 269.5t-31.5 228q-29 7 -41 27q-10 16 -10 33q0 5 1 9z" />
<glyph unicode="G" horiz-adv-x="1374" d="M16 558q-2 33 -2 66q0 123 31 240q39 150 124 274t216 189q104 53 219 71q46 8 92 8q69 0 136 -16q114 -28 217.5 -106t183.5 -219q2 -33 -13.5 -56.5t-38 -31.5t-46 2t-33.5 47q-47 121 -135 183.5t-189 82.5q-55 10 -110 10q-44 0 -86 -6q-97 -16 -162 -51 q-88 -47 -150.5 -122.5t-102.5 -168t-55 -191.5q-12 -71 -12 -141q0 -26 2 -53q14 -195 113.5 -325.5t248.5 -175.5q68 -21 142 -21q88 0 184 29q177 53 347 225q-4 27 -5.5 62.5t-1.5 71.5t-1 71t-5 61q-49 -10 -101 -20t-97 -18.5t-79 -12.5t-46 2q-45 24 -45 44 q0 21 34 38q31 16 84.5 29.5t107.5 26t101 22.5t70 22q29 8 48.5 1t28.5 -22t8 -36.5t-13 -40.5q-3 -37 -3 -88q0 -26 1 -55q2 -88 11 -180.5t26.5 -173t46.5 -123.5q12 -25 12 -49.5t-9.5 -40t-27.5 -18.5h-5q-17 0 -40 15q-45 68 -63.5 145t-24.5 154q-61 -68 -140 -112.5 t-162 -70t-164 -35.5q-68 -9 -122 -9h-20q-166 6 -280 93t-174 217t-71 287z" />
<glyph unicode="H" horiz-adv-x="1144" d="M-24 814q4 22 20 41t43 28q16 -4 32.5 -5t32.5 -4q-10 104 -21 207t-20 207q2 33 21.5 54.5t43.5 25.5t44.5 -11.5t24.5 -51.5q-12 -219 -13 -435q19 0 38 -1q62 -1 134 5q92 6 187.5 15.5t187.5 21t174 19.5q2 0 2 1t2 1h11q10 0 14 -2l14 -4v14q0 45 -5 98.5t-6 106.5 v18q0 43 4 87q5 52 26 98q19 20 43 23q6 1 12 1q16 0 30 -7q18 -9 25 -29q4 -10 4 -22t-4 -26q0 -12 -4 -41.5t-9 -63.5t-10 -63.5t-7 -42.5q-10 -86 -17.5 -169t-7.5 -167q0 -154 18.5 -306t30.5 -306q-2 -35 -21.5 -55.5t-43 -24.5t-45 11.5t-23.5 52.5q10 176 12 349 q1 86 1 173.5t-1 175.5q-4 -4 -6 -4q-12 -10 -26 -12h-17q-2 0 -3 1t-3 1q-47 4 -111 8q-62 4 -128 5h-65.5h-64.5q-64 -1 -112 -7q-59 -6 -115.5 -17.5t-114.5 -21.5q-5 -53 -5 -106q0 -33 2 -67q5 -87 11 -175q4 -65 4 -128q0 -23 -1 -46q-2 -86 -27 -172q-24 -20 -46 -24 q-6 -1 -12 0q-15 0 -27 6q-17 9 -25.5 29.5t-0.5 47.5q10 135 33 267t23 280v37.5t-2 40.5q-20 -4 -40 -5t-40 -4q-31 8 -45 28q-11 16 -10 33q-1 4 0 8z" />
<glyph unicode="I" horiz-adv-x="901" d="M5 100q3 22 19.5 41t43.5 27q70 -6 114.5 -11t79.5 -8.5t66.5 -5.5t72.5 -2q-2 14 5 35q0 12 4 42t9 63.5t10 63.5l7 42q14 125 18 233q1 42 1 85q1 67 -3 131q-6 106 -16 216.5t-22 241.5q-76 -10 -156 -21t-166 -24q-31 8 -44 27.5t-10 41t19.5 41t42.5 27.5 q51 -18 117 -19h11q60 1 128 11q74 12 153 28.5t157 33.5q12 8 20 10h6q33 -2 48.5 -18.5t16.5 -38t-12.5 -43t-37.5 -33.5h-23v-4h-6q-4 0 -6 1t-4 1q-61 0 -125 -6q-12 -141 -12 -281q1 -6 1 -12q0 -146 2.5 -291t3.5 -291q0 -10 1 -20q0 -135 -13 -271q10 0 56.5 6.5 t97.5 12.5t93 11l42 5q19 6 31 -12q11 -17 11 -41q-1 -29 -17 -55q-16 -24 -47 -27h-7h-4q-134 17 -265 17q-47 0 -95 -2q-176 -8 -363 -27q-31 7 -44 27q-11 16 -11 34q0 4 1 8z" />
<glyph unicode="J" d="M6 371q8 18 18.5 29.5t41.5 29.5q41 -20 61 -58t39.5 -81t48.5 -86t86 -74q100 -54 208 -54h4q110 1 202 46t151.5 129t63.5 197q0 70 -7.5 160.5t-19.5 185t-25.5 184.5t-21.5 158q-4 31 -11 64.5t-11 66.5q-3 20 -3 41q0 12 1 24q2 33 14 62q25 29 47 35q7 2 14 2 q13 0 23 -8q16 -13 24.5 -38.5t6.5 -62.5q0 2 1 2t1 -2q-7 -47 -7 -102q0 -46 5 -97q10 -114 24 -238t21 -251q3 -35 3 -69q0 -89 -15 -168q-19 -111 -75.5 -199t-168.5 -136q-92 -37 -188 -56q-62 -12 -121 -12q-34 0 -67 4q-91 11 -171 58t-142 140q-29 43 -44 83 q-12 31 -12 70q0 10 1 21z" />
<glyph unicode="K" horiz-adv-x="972" d="M16 45q0 51 3.5 129t6.5 161t7 160.5t4 129.5q-2 8 -2 26q0 2 2 4v4q-2 111 -4 194t-5 161t-6.5 160.5t-5.5 193.5q2 33 22 54q18 22 42 26q5 1 10 1q18 -1 34 -13q20 -16 26 -52l-27 -645q111 61 199 117.5t169.5 117t162.5 133.5t180 169l6 6q27 16 49 15t35.5 -15 t15.5 -36v-6q0 -20 -12 -44l-64 -59q10 8 6 5t-51 -38t-149.5 -110.5t-288.5 -215.5q27 -47 59.5 -113.5t73.5 -139t92 -143.5t117 -124q10 -8 24.5 -23.5t14.5 -3.5q25 -25 24.5 -52t-15.5 -47.5t-42 -27t-55 14.5q-96 150 -188.5 298t-190.5 308l-8 -6q-53 -47 -84 -72.5 t-48.5 -40t-23.5 -18.5t-10 -6q2 -39 5 -109t6 -144.5t6 -138t5 -90.5l7 -22q0 -10 -3 -17v-6h-2q-6 -27 -24.5 -42t-38.5 -18q-4 -1 -8 -1q-15 0 -30 9q-19 11 -28 42z" />
<glyph unicode="L" horiz-adv-x="876" d="M26 86v22q0 70 5 170q6 118 16 265q11 147 15 295q2 60 1 118q1 83 -3 161q-6 132 -31 218q2 33 21.5 54.5t43.5 25.5q5 1 9 1q19 0 35 -12q20 -15 24 -52q-18 -299 -26 -612.5t-19 -608.5q75 -3 143 -3h33q82 1 160.5 9t158.5 25.5t170 46.5l9 4v-2q8 2 17 0t19 -6 q2 0 2 -2q27 -26 27 -54q0 -8 -2 -16q-10 -37 -51 -55q-47 -6 -66.5 -8t-7.5 2q2 0 3 1t5 1q-127 -8 -214 -15.5t-160.5 -14.5t-146.5 -14.5t-171 -15.5h-1q-17 0 -18 72z" />
<glyph unicode="M" horiz-adv-x="1359" d="M12 642v42q0 109 8 217q10 129 37 236.5t71 184.5t110 99q57 20 106 20q37 1 71 -11q77 -26 130 -103.5t86 -198t45 -272.5q6 55 13 120.5t18.5 132.5t30 130.5t47 112.5t71.5 80.5t102 35.5q12 1 24 1q99 0 166 -46q75 -51 119 -142t62.5 -209t18.5 -245t-12.5 -252.5 t-28 -229t-28.5 -175.5t-17 -92q-4 -36 -22 -52q-14 -12 -29 -13q-3 0 -7 1q-20 4 -36.5 24.5t-18.5 55.5q6 31 23.5 99.5t37 160.5t37 202t23.5 220q3 47 3 92q0 62 -5 120q-8 102 -41 183.5t-94.5 133t-159.5 59.5q-63 -12 -104.5 -60.5t-67 -115t-39.5 -144t-20.5 -150.5 t-10.5 -135.5t-8 -94.5q-8 -29 -14.5 -42.5t-14.5 -13.5t-18 12.5t-25 34.5q-2 20 -11 73.5t-24.5 123.5t-40 146.5t-56.5 145t-74 118t-93 63.5q-30 9 -56 9q-48 0 -80 -30q-50 -46 -73.5 -136.5t-26.5 -213.5q-1 -37 -1 -74q0 -88 5 -179q7 -130 20.5 -254.5t22.5 -220.5 q7 -76 7 -125v-25q-2 -53 -23 -41q-25 -20 -47 23.5t-41.5 130.5t-32 205t-14.5 248z" />
<glyph unicode="N" horiz-adv-x="1142" d="M-7 1273v13q0 64 9 100q8 32 27 32q4 0 8 -1q9 5 17 5q17 0 27 -20q15 -30 24.5 -88.5t11.5 -133t3 -150.5t2 -141.5t7 -104.5q6 49 14.5 108.5t21.5 120t33.5 116t49.5 94.5q49 68 119.5 113.5t150.5 65.5q60 15 120 16q21 0 42 -2q82 -7 151 -46q66 -27 117 -124 t86 -231t54.5 -290t21.5 -298v-34q0 -122 -12 -222q-14 -114 -45 -165q-25 -41 -48 -41h-5q-26 4 -35 58l-7 14q20 55 33 149q13 96 17 208q2 47 2 96q0 68 -4 140q-6 124 -24.5 239.5t-52.5 215t-83 164.5q-55 65 -131 83q-35 8 -71 9q-42 1 -85 -11q-80 -20 -151.5 -72 t-116.5 -121q-45 -72 -73 -162t-38 -216q-6 -79 -7 -174q0 -57 3 -119q6 -167 29 -390q0 -16 -12.5 -30.5t-29 -18.5t-33.5 3t-26 33q-2 2 -2 7v2v32q0 50 -4 119q-6 92 -18 200.5t-26.5 227.5t-28 232.5t-22.5 214t-10 175.5z" />
<glyph unicode="O" horiz-adv-x="1161" d="M-5 660q5 134 47 262.5t114.5 236t174 182t226.5 97.5q32 6 62 6q58 0 110 -20q80 -30 144.5 -94t114.5 -155.5t83 -194.5t49 -212q15 -97 16 -189q0 -11 -1 -22q-2 -102 -22.5 -189.5t-59.5 -146.5q-43 -74 -113 -124t-155 -76.5t-177 -29.5h-23q-80 -1 -156 17 q-87 20 -164 62.5t-128 107.5q-79 98 -113 223q-30 109 -30 225q0 17 1 34zM77 612q9 -116 54 -221.5t131 -183.5q64 -57 164 -81q74 -18 151 -17q27 -1 55 1q106 8 201 47.5t146 104.5q49 66 65 176q9 60 10 124q0 53 -6 109q-14 124 -55 247.5t-106.5 219t-153.5 147.5 q-64 38 -135 38q-28 0 -57 -6q-119 -23 -210 -92.5t-151 -168.5q-60 -98 -86 -214q-20 -86 -20 -172q1 -29 3 -58z" />
<glyph unicode="P" horiz-adv-x="1396" d="M-14 1193q-5 11 -4 23q0 22 16 50q25 43 106 75q10 37 41 45.5t60 -12.5q82 25 179 44q96 18 200 23q33 2 67 2q69 1 141 -7q104 -10 197.5 -42t173.5 -88.5t133 -140.5q68 -109 77 -210q2 -18 2 -35q0 -81 -35 -153q-42 -87 -133 -155.5t-224 -108.5t-304 -47 q-31 -1 -62 -1q-145 0 -312 26l2 -12q5 -109 13 -202q4 -50 5 -92q1 -37 -3 -67q-6 -66 -30 -96q-14 -18 -38 -19q-15 0 -35 7q-4 2 -5 49t-1 121t1 164t1 176t-1 157.5t-3 110.5q-6 63 -13.5 116.5t-17.5 104t-23.5 102.5t-27.5 113q-46 -52 -86 -52h-2q-41 1 -55 31z M244 1266q10 -96 17 -181.5t13.5 -167t11.5 -164.5t11 -175q66 -6 162 -12q59 -4 122 -4q39 0 79 1q106 4 211.5 21.5t191.5 56.5t142.5 105.5t62.5 166.5q1 11 1 22q-1 105 -53 182q-58 85 -150 139q-93 54 -211 80q-114 25 -225 25h-8q-116 -1 -216.5 -25.5t-161.5 -69.5z " />
<glyph unicode="Q" horiz-adv-x="1173" d="M-5 660q5 133 47 262t114.5 236.5t174 182t226.5 97.5q32 6 62 6q65 0 124 -27q86 -39 155 -114.5t120 -182t80.5 -225.5t37.5 -241q2 -35 2 -69q0 -84 -14 -161q-18 -109 -63 -195t-119 -131q6 -33 28.5 -56.5t44 -46t33.5 -49.5q4 -9 4 -20q0 -19 -14 -43q0 -2 -4 -6 q-23 -23 -46 -27q-4 -1 -7 -1q-20 0 -43 18q-29 41 -48.5 87t-35.5 93q-88 -41 -190 -51q-39 -4 -77 -4q-62 0 -122 10q-98 16 -184 60t-144 116q-78 98 -113 223q-30 109 -30 225q0 17 1 34zM77 612q9 -116 54 -221.5t131 -183.5q45 -41 111.5 -64.5t141.5 -30.5 q31 -4 63 -4q44 0 88 6q77 11 145 36q-2 4 -4 7t-4 7q-59 111 -130 198t-161 173q-18 27 -13 55t22.5 45.5t44 18.5t50.5 -23q74 -111 139.5 -222.5t133.5 -224.5q90 49 130 158q38 104 38 229v13q-2 133 -41 272t-107.5 248.5t-162.5 171.5q-72 46 -152 46q-26 0 -53 -5 q-119 -23 -210 -92.5t-150.5 -168t-86.5 -214.5q-19 -86 -19 -172q0 -29 2 -58z" />
<glyph unicode="R" horiz-adv-x="1179" d="M15 1180q-1 5 -1 10q0 23 17 45q-2 6 -2 20q0 27 14 46.5t33.5 27.5t39 5t31.5 -21q75 55 171 79q82 20 166 20q14 0 29 -1q99 -4 196.5 -30.5t180.5 -72.5t145.5 -108.5t90.5 -136.5q19 -51 18 -106q0 -25 -4 -51q-12 -83 -77 -169q-72 -92 -156 -154.5t-179 -103.5 t-201.5 -65.5t-221.5 -38.5q84 -61 166 -117.5t180 -110.5q25 -25 25 -52t-15.5 -47.5t-42 -27t-55.5 14.5q-41 43 -90 90t-100 88t-97.5 71.5t-76.5 45.5q4 -29 8 -63t6 -67.5t2 -64.5t-2 -49q-12 -61 -76 -70h-6q-25 4 -37 17.5t-18 38.5q0 4 -2 6q0 23 14 45v28.5t2 30.5 q4 78 6 156l4 156q1 29 1 57q0 57 -3 109q-4 80 -11 157.5t-19.5 156.5t-24.5 165q-23 13 -28 41zM84 80q0 4 1 8t1 8l-2 -2v-14zM158 1151q4 -168 7 -342t19 -344q16 -1 34 -1q46 0 110 7q88 10 186 35.5t196.5 65.5t175.5 98t121 130q35 58 35 127q0 17 -2 36 q-12 113 -86.5 191.5t-178 121.5t-220.5 48q-15 1 -29 1q-100 0 -182 -31q-51 -20 -95 -52t-87 -64q0 -6 -1 -12.5t-1 -10.5q0 -2 -2 -4z" />
<glyph unicode="S" horiz-adv-x="1083" d="M2 812.5q0 70.5 21.5 137t61.5 127t89 107.5q43 43 114.5 91t155.5 87q84 40 174 64q80 22 151 21h17q80 -3 142.5 -41t93.5 -124v-8q0 -24 -10 -44q-12 -22 -30.5 -33t-42.5 -6t-42 32q-10 61 -56 81q-42 18 -95 17h-12q-60 -2 -119.5 -17.5t-92.5 -27.5 q-72 -23 -146.5 -60.5t-136 -90t-103.5 -120t-50 -151.5q-2 -22 -2 -41q0 -65 26 -109q34 -56 93 -89t138 -48.5t161 -27t157.5 -25.5t131.5 -43q111 -59 162 -117t56 -112q1 -7 0 -14q0 -46 -29 -85q-34 -45 -91.5 -80.5t-132 -57t-152.5 -27.5q-28 -2 -56 -3q-48 -1 -94 7 q-72 12 -126 47q-18 12 -22.5 40.5t-8.5 47.5q2 29 17.5 49t36 28.5t42 -1t35.5 -37.5l6 -29q96 -49 186 -53q12 -1 25 -1q75 1 131 23q66 26 100 70q23 30 22 62q0 15 -5 31q-16 48 -91 91t-224 64q-72 23 -153 38t-155.5 39.5t-137 66.5t-99.5 118q-31 66 -31 136.5z" />
<glyph unicode="T" horiz-adv-x="952" d="M7 1318q3 22 19.5 41t43.5 27q51 -18 147 -19h18q89 0 189 9q111 10 220.5 27.5t186.5 34.5q12 8 21 10h6q32 -2 48 -18q17 -18 17 -41q-1 -21 -13 -41q-14 -22 -38 -33h-22v-4h-6q-4 0 -6 1t-4 1q-14 0 -71.5 -2t-124.5 -5t-124 -6.5t-74 -5.5q-12 -147 -12 -307 t2 -322.5t2 -323.5t-12 -306q-16 -2 -26 -17q-8 -16 -20 -25q-7 -5 -16 -5q-6 0 -13 2q-17 6 -50 43q-2 14 4 35q0 12 4 41.5t9 63.5t10.5 63.5t7.5 42.5q20 185 20 367q0 64 -2 128q-10 244 -37 506q-37 -4 -65.5 -7t-55 -6t-56.5 -7.5t-73 -10.5q-31 7 -44 27 q-11 16 -11 34q0 4 1 8z" />
<glyph unicode="U" horiz-adv-x="1052" d="M10 655.5q0 61.5 1 139t2 162.5t1 163t1 138.5t1 91.5q2 33 19.5 52t39 21t40 -14t22.5 -53q-2 -49 -9 -131t-15.5 -180.5t-13.5 -204t-5 -202.5t6 -179t25 -129q49 -131 130 -200t173 -83q25 -4 50 -4q68 0 136 28q94 38 166 119.5t115 203.5q38 107 38 240q0 19 -1 38 q0 4 -4 55t-10.5 126t-14.5 161t-14 159.5t-11 122.5l-4 50q-8 25 -5 46q3 22 15 32q10 10 26 9h2q18 -1 40 -22l-6 8l12 -12q-4 0 -4 4q12 -14 22.5 -73.5t17.5 -140.5t11.5 -174t6.5 -176t3 -147.5t1 -87.5q-2 -131 -37 -249.5t-105 -207.5t-172 -139q-91 -44 -210 -44 q-14 0 -29 1q-129 6 -213 55.5t-135.5 128.5t-75 183t-27.5 223q-2 31 -2 92.5zM944 1421l2 -2z" />
<glyph unicode="V" horiz-adv-x="1216" d="M-9 1350q5 28 22.5 45.5t44 18.5t51.5 -23q63 -139 124.5 -282.5t127 -292t142.5 -306.5t171 -328q51 111 101 238t100.5 276.5t101.5 325.5t106 385q23 29 49 34q7 1 14 1q18 0 32 -10q18 -14 24 -38q2 -6 2 -14q0 -21 -14 -45q-33 -84 -72 -189.5t-79 -222t-82 -237.5 t-80.5 -235.5t-75.5 -215t-66 -176.5q-18 -33 -45 -43q-11 -5 -23 -5q-11 -1 -25 5q-26 10 -36 50q-74 162 -153.5 345t-159.5 353t-153.5 311.5t-135.5 218.5q-14 21 -14 43q0 7 1 13z" />
<glyph unicode="W" horiz-adv-x="1382" d="M12 802q2 130 14.5 247.5t32 204.5t41.5 131t47 24q20 12 23 -41q1 -12 0 -25q0 -49 -7 -125q-9 -96 -22.5 -221t-20.5 -255q-5 -91 -5 -178q0 -36 1 -74q3 -122 26.5 -213t73.5 -137q32 -30 80 -30q26 0 56 9q51 14 93 63t74 118t56.5 145.5t40 146.5t24.5 123t11 73 q31 42 43 46q1 0 2 1q12 0 27 -55q4 -33 8 -95t10.5 -135t20.5 -150.5t39.5 -144.5t66.5 -115t105 -60q98 8 159.5 59t94.5 133t41 184q5 59 5 120q0 46 -3 92q-6 110 -23.5 219.5t-37 202t-37 161t-23.5 99.5q2 33 19 54q16 22 36 26q4 1 8 1q15 -1 28 -13q17 -16 22 -52 q4 -20 17 -92t28.5 -175.5t28 -229.5t12.5 -253t-18.5 -244.5t-62.5 -208.5t-119 -143q-67 -46 -166 -46q-12 0 -24 1q-59 4 -102 36t-71.5 81t-47 112.5t-30 130t-18.5 132t-13 121.5q-12 -152 -45 -272.5t-86 -197.5q-53 -78 -130 -104q-33 -11 -71 -11q-49 0 -106 20 q-66 23 -110 99.5t-70 183.5q-28 108 -38 237q-9 108 -8 217v42z" />
<glyph unicode="X" horiz-adv-x="1083" d="M3 1348q13 18 36.5 25t52.5 -5q45 -43 104.5 -124t121 -171t119 -174t98.5 -133q43 55 102 143t117.5 181.5t106 176.5t65.5 124q18 25 42 32q11 3 20 3q12 0 22 -4q20 -8 30 -30q6 -12 7 -29q0 -11 -3 -24q-20 -35 -55 -87t-76 -112.5t-87 -126t-90 -124t-83 -108.5 t-67 -79q72 -84 140.5 -173t125.5 -173t97 -156.5t57 -121.5q4 -27 -4.5 -44.5t-26.5 -35.5l-10 -8q-23 20 -57 71.5t-73.5 117t-83.5 139t-85 139t-76 117t-58 73.5q-27 -35 -72.5 -111.5t-101 -166.5t-118 -179.5t-121.5 -148.5q-27 -27 -52.5 -27t-41 16.5t-17.5 44 t21 56.5q70 68 120 132.5t99 133t103.5 144t131.5 164.5q-41 47 -102.5 126.5t-130 162.5t-134 155t-112.5 106q-15 24 -15 47q0 26 14 46z" />
<glyph unicode="Y" d="M20 447q-2 36 -2 73q0 61 4 126q7 104 20 211.5t28.5 205.5t29 179t17.5 132q12 27 32.5 42.5t41 15.5t37 -15.5t20.5 -48.5q-4 -39 -21.5 -110.5t-37 -162.5t-39 -195.5t-29.5 -205.5q-8 -79 -8 -151q0 -22 1 -43q3 -92 29 -160q47 -92 128 -118q52 -17 108 -17 q31 0 65 5q91 15 183 62t159 103q29 25 46.5 44t29.5 42q0 51 -1 130t-2 167t-2 178t-1 168t2 135t6 78q10 23 29.5 31t38.5 -13q18 -57 28.5 -160.5t13.5 -229.5q2 -95 2 -196v-68q-1 -138 -5 -265t-10.5 -232.5t-10.5 -165.5q-8 -96 -48 -165.5t-100.5 -115.5t-137 -70.5 t-157.5 -30.5q-31 -3 -62 -3l-100 7q-81 10 -150 32q-16 25 -15.5 49.5t14 43t37 25.5t52.5 -5q10 -6 51 -16.5t98 -13.5q15 -1 30 -1q44 0 93 6q66 9 126 37.5t107.5 82.5t65.5 145q6 27 8 70.5t3 92.5q1 24 1 47t-1 46q-1 45 -1 73q-59 -63 -137 -114.5t-161 -84 t-165 -45.5q-41 -7 -79 -7t-74 7q-70 13 -123 55t-78 118q-23 70 -27 164z" />
<glyph unicode="Z" d="M5 1342q3 22 19.5 41.5t43.5 27.5q127 -10 230 -21.5t201.5 -18.5t202.5 -9h35q90 0 195 8q54 -4 64 -38q3 -11 3 -21q0 -22 -16 -43q-47 -55 -122 -157.5t-160 -225.5t-172 -253t-157.5 -239.5t-117.5 -184.5t-51 -87q39 4 98 11t129 14.5t142.5 16.5t136 14t113.5 8 q30 2 50 2q14 0 23 -1q37 -2 53.5 -21.5t13 -44t-22.5 -46t-52 -25.5q-33 7 -108 7h-20q-91 -1 -205 -4t-236 -4h-34q-101 0 -186 5q-33 6 -30.5 32t24.5 42q8 6 39 50t76 113.5t101.5 159t117.5 185.5t124.5 193.5t121 183.5t106.5 153.5t84 106.5l-39 2t-102.5 4t-145 4 t-171 2t-178.5 -2t-167 -8q-31 8 -44 28q-11 16 -11 33q0 3 1 7z" />
<glyph unicode="[" horiz-adv-x="292" d="M12 1593.5q0 104.5 13 108.5q43 18 80.5 21t76.5 1t83 -1t100 14q37 -2 53 -21.5t13 -44t-22.5 -46t-52.5 -26.5q-66 16 -124 13.5t-117 -17.5q-6 -197 -4 -421t9 -453t17 -453.5t21 -419.5q20 -8 70.5 -0.5t99.5 19.5t81.5 23.5t22.5 11.5q-4 0 2 3l10 5q37 10 58.5 -3 t27 -37t-7 -49.5t-43.5 -39.5q-14 2 -51 -1t-84 -7t-99 -9.5t-95.5 -6.5t-73 4.5t-31.5 19.5q10 141 9 337.5t-7 408.5t-14 421t-14.5 375t-6.5 270.5z" />
<glyph unicode="\" horiz-adv-x="677" d="M12 1384q-10 37 3.5 57.5t37 26t49 -7t39.5 -43.5q61 -195 121 -366.5t122 -338.5t131 -336t153 -358q2 -33 -12.5 -51t-35 -22t-44 6t-39.5 35q-63 195 -123 367.5t-121.5 338.5t-130 335t-150.5 357z" />
<glyph unicode="]" horiz-adv-x="292" d="M-243 -130q5 24 26.5 37t58.5 3q4 -2 10.5 -5t2.5 -3q-10 0 22.5 -11.5t81.5 -23.5t98 -19.5t72 0.5q10 195 20.5 419.5t17.5 453.5t9 453.5t-4 420.5q-59 14 -117.5 17.5t-124.5 -13.5q-33 4 -52 26t-22 46.5t13 44t53 21.5q55 -12 99.5 -13.5t83 0.5t76.5 -1t81 -21 q10 -4 11 -108.5t-5 -270.5t-14 -375t-14.5 -421t-7.5 -408.5t10 -337.5q-2 -14 -32 -19.5t-73 -4.5t-95 6.5t-99 9.5t-84.5 7t-51.5 1q-31 14 -43 39.5t-7 49.5z" />
<glyph unicode="^" horiz-adv-x="745" d="M24.5 1541.5q-4.5 21.5 5 45t33.5 39.5q127 164 211 222.5t151 39t131.5 -102.5t154.5 -200l-4 -6q-16 -27 -37 -39t-54 -4q-33 27 -56 65.5t-48 78.5t-52.5 76t-68.5 56q-41 -33 -75.5 -74.5t-68.5 -85.5t-70 -84t-79 -71q-33 -4 -51 9.5t-22.5 35z" />
<glyph unicode="_" horiz-adv-x="757" d="M17 56.5q3 21.5 19.5 41t43.5 27.5q70 -16 145.5 -28.5t149.5 -16.5t141.5 2t120.5 27q14 12 35 12l2 2v-2q23 4 45 -17l-4 5q4 -2 12 -11l-8 6q27 -33 15.5 -66.5t-50.5 -49.5q-53 2 -136 6t-170 6t-170 -1t-136 -11q-31 8 -44.5 27.5t-10.5 41z" />
<glyph unicode="`" horiz-adv-x="522" d="M2 1806q-4 27 8.5 48.5t38 31.5t55.5 -2q78 -70 170.5 -128t188.5 -120q33 -14 41 -39.5t-2 -48t-34 -38t-56 -7.5q-43 37 -86 77t-88 75t-95.5 62.5t-107.5 41.5q-29 20 -33 47z" />
<glyph unicode="a" d="M-14 448q-7 38 -7 76q-1 45 9 90q18 82 68.5 159t140.5 149q69 54 153 76q55 15 110 14q28 0 56 -4q82 -12 149.5 -57.5t104.5 -131.5l-25 201q2 18 12.5 32.5t24.5 20.5q7 3 14 3q6 0 13 -2q14 -5 25 -23h2v-7q27 -123 41 -246.5t22 -249.5t14.5 -252t20.5 -251l6 -25 q0 -6 -1 -12t-1 -12v-10h-2q-8 -25 -24 -40q-14 -16 -32 -19q-3 -1 -7 -1q-13 0 -27 10q-16 12 -23 44l-12 307l-6 -11q-37 -51 -98.5 -88.5t-136 -59.5t-154.5 -25h-23q-67 1 -130 15q-73 18 -132 57.5t-90 105.5q-41 83 -55 167zM86 487v-16q0 -79 35 -145 q16 -29 39.5 -51.5t48.5 -43.5q39 -33 94 -46q42 -10 88 -10q15 0 29 1q62 4 123 21.5t113.5 48t91.5 72t55 90.5q-4 66 -7 108.5t-5.5 70t-6.5 42t-10 20.5q0 45 -43 98.5t-107 92.5q-62 39 -138 55q-30 6 -59 6q-43 0 -81 -14q-72 -23 -130 -86.5t-92 -144.5t-38 -169z " />
<glyph unicode="b" horiz-adv-x="1112" d="M2 1362q2 33 22 54q18 22 42 26q5 1 10 1q18 -1 34 -13q20 -16 25 -52q-4 -89 -4 -176q0 -76 3 -150q7 -160 24 -323q16 78 69.5 142.5t130.5 99.5q76 35 159 38h17q74 -1 147 -23q81 -26 153.5 -76t127 -121.5t84.5 -161.5q28 -84 27 -180v-13q-4 -104 -22.5 -180 t-57.5 -128t-101.5 -86t-150.5 -54q-53 -12 -117 -16l-42 -2q-44 0 -90 6q-66 10 -129.5 31.5t-112.5 57.5l2 -11q2 -11 5 -23.5t5 -22.5l2 -10q-12 -23 -31.5 -35t-38 -12t-35 13t-24.5 42v2q0 18 4 27q-2 6 -2 18q-14 59 -19 118.5t-6 120l-2 121t-8 121.5 q-23 211 -53.5 416t-46.5 414zM234 470q2 -71 14 -136.5t34.5 -120.5t57.5 -90q18 -18 48 -30.5t61.5 -18.5t63.5 -8.5t54 -2.5q78 2 156 27t139 71q62 45 98 113q32 61 31 140v18q-8 186 -106.5 311t-280.5 154q-41 6 -82 9q-12 1 -25 1q-28 0 -56 -5q-40 -7 -75.5 -26.5 t-62.5 -56.5q-25 -35 -41 -90t-24 -121q-6 -50 -5 -103q0 -17 1 -35z" />
<glyph unicode="c" horiz-adv-x="913" d="M8 514q-2 25 -2 50q0 81 20 160q26 103 90 182t164 121q72 30 164 30q35 0 74 -4q78 -10 137 -33t125 -70q25 -25 25 -52.5t-15.5 -48t-42 -26.5t-55.5 15q-47 41 -92 66.5t-108 31.5q-26 2 -50 2q-110 0 -190 -45q-98 -55 -144 -149q-38 -80 -38 -175q0 -19 2 -37 q8 -116 78 -223q59 -92 146 -136q81 -41 166 -41h12q91 3 175 54.5t139 151.5q31 20 56.5 16t37.5 -24q10 -16 11 -36q0 -4 -1 -10q-3 -28 -28 -53q-20 -39 -53 -69.5t-73 -55t-84 -42t-87 -27.5q-64 -16 -121.5 -15.5t-107.5 15.5q-100 31 -171 101.5t-111 170t-48 205.5z " />
<glyph unicode="d" horiz-adv-x="1054" d="M2 586q0 131 62.5 231.5t160 163.5t215.5 85q56 10 109 9q60 0 119 -12q41 -8 67.5 -18.5t49 -23.5t45 -31.5t53.5 -45.5q10 -10 20 -20.5t19 -22.5l4 111v4q-2 102 -4 202.5t-7 200.5q2 33 20.5 54.5t40.5 25.5q5 1 10 1q18 0 32 -12q18 -15 22 -52q-12 -174 -29.5 -346 t-29.5 -347l-10 -499l4 -160t6 -158q-6 -29 -22.5 -46t-36.5 -21q-5 -1 -11 -1q-15 0 -29 9q-18 12 -26 43q4 57 8 113.5t8 111.5q-78 -96 -173 -127q-61 -20 -122 -20q-35 0 -69 6q-96 18 -186.5 75.5t-161 139.5t-113.5 180t-45 197zM94 594q6 -74 35 -148.5t73 -139 t103.5 -115t130.5 -74.5q57 -19 126 -19h10q76 2 133 37q53 31 92 90.5t61.5 135t27.5 158.5q1 21 1 42q-1 61 -11 119q-14 78 -49.5 143.5t-95.5 104.5q-59 39 -132 51q-38 6 -76 6q-35 0 -71 -5q-74 -11 -141 -44t-119 -83q-50 -49 -78 -115q-21 -51 -22 -109q0 -17 2 -35 z" />
<glyph unicode="e" horiz-adv-x="962" d="M22 465q-3 40 -4 80q0 57 6 111q10 94 33 161q37 111 108 172.5t156 79.5q41 9 84 9q45 0 90 -10q89 -19 165.5 -71.5t129 -131.5t62.5 -179q14 -27 5 -47.5t-36 -32.5q-170 -74 -352 -98.5t-365 -38.5q12 -66 37 -126t60 -107.5t82 -78t104 -36.5q12 -1 24 -1 q63 0 133 26q83 32 154.5 68t125.5 58q23 9 40 9q22 0 33 -17q8 -17 8 -32q0 -14 -7 -26q-15 -24 -46 -42.5t-71 -32.5t-72 -27q-86 -35 -158 -60q-73 -26 -139 -28h-8q-62 0 -124 26q-66 28 -139 99q-55 53 -83 140.5t-36 183.5zM92 602l2 2q80 8 162 11t162 9.5 t159.5 18.5t157.5 35q-20 117 -77.5 189.5t-131.5 102.5q-55 22 -113 22q-20 0 -40 -3q-80 -10 -144.5 -57t-104.5 -131q-33 -70 -34 -162q1 -18 2 -37z" />
<glyph unicode="f" horiz-adv-x="749" d="M3 768q0 15 11 30q13 17 39 25q16 -4 43 4.5t43 6.5v30q0 111 26 218q30 122 96.5 207t172.5 118q43 13 93 13q75 0 165 -29q23 -25 24 -53v-3q0 -25 -14 -45t-39.5 -27.5t-54.5 11.5q-59 18 -120 28q-12 1 -24 1q-49 0 -97 -33q-45 -31 -74 -80t-46.5 -109.5t-25.5 -126 t-8 -127.5q14 -2 29 -2q24 0 51 5q43 6 90 13t96 12q35 4 71 4q14 0 28 -1q31 -12 40 -33.5t3.5 -42t-24.5 -33t-48 -6.5q-16 2 -50 6.5t-78 5.5h-12q-39 0 -85 -5q-52 -7 -103 -21q6 -119 17.5 -209t27 -163.5t31.5 -139t33 -135.5q2 -14 -6.5 -26.5t-23.5 -19.5 q-13 -6 -30 -6h-4q-20 1 -41 13q-10 37 -19 95.5t-18.5 127t-17.5 140t-14 135t-11.5 111.5t-7.5 69l-76 -2q-29 2 -43 15q-15 15 -15 34z" />
<glyph unicode="g" horiz-adv-x="913" d="M-5 433q3 87 30.5 178t77 171t116 141.5t145.5 88.5q54 19 114 19q27 0 56 -4q91 -13 185 -81q20 -23 27.5 -44t1 -36.5t-24.5 -22.5t-47 -1q-29 18 -54.5 36.5t-52 31t-56.5 15.5q-8 1 -17 1q-23 0 -50 -6q-72 -18 -133 -66.5t-107 -114t-75 -141.5t-36 -150 q-2 -21 -2 -42q0 -50 11 -94q17 -64 62 -105q68 -57 148 -65q19 -3 39 -3q59 0 117 19q77 26 141.5 76.5t103.5 111.5q8 14 17 29.5t18 32.5q-4 31 -9.5 71.5t-6.5 80.5v11q0 34 5 61q6 32 25 48q16 13 30 13q16 0 29 -17q38 -52 38 -108q0 -57 -21 -117l4 -66 q12 -104 15 -205v-17q0 -94 -30 -190q-20 -68 -88.5 -114.5t-155.5 -73.5t-177 -33q-29 -2 -56 -2q-53 0 -94 8q-23 16 -29 22.5t-6 33.5l4 12q14 33 39 44t54.5 11t60.5 -5t55 -3q88 8 159 34.5t116 76t59 124.5q5 30 5 64q0 54 -13 119q-80 -106 -174 -158.5t-186 -64.5 q-31 -4 -62 -4q-56 0 -106 14q-78 22 -128 63q-61 51 -88 128q-23 69 -23 146v18z" />
<glyph unicode="h" horiz-adv-x="1132" d="M4 1325q2 33 22 55q18 21 42 25q5 1 10 1q18 0 34 -12q20 -16 25 -53q-1 -30 -1 -61q0 -178 20 -350q24 -202 53 -408q-1 15 -1 30q0 91 32 168q36 89 99.5 149.5t146.5 92.5q76 30 156 30h15q88 -3 171 -44t149 -123q68 -86 103.5 -192.5t38.5 -216.5q0 -11 1 -21 q0 -97 -26 -193q-28 -106 -84 -194q-18 -8 -41 -15t-41 13q8 86 34 184q26 97 40 197q6 45 7 89q1 54 -9 108q-16 98 -93 184q-103 116 -203 142q-37 9 -72 10q-59 0 -111 -27q-83 -43 -140 -145.5t-74 -239.5q-10 -89 -10 -178q0 -32 1 -64q5 -120 9 -243 q-6 -25 -19.5 -41.5t-30.5 -23.5q-11 -4 -22 -4q-7 0 -13 1q-18 4 -34 20q-16 12 -26 43q1 28 1 55q1 73 -7 143q-10 98 -19 196q-4 66 -7 131t-13 131q-23 166 -60 325.5t-53 325.5z" />
<glyph unicode="i" horiz-adv-x="325" d="M55 1100q-1 7 -1 13q0 16 7 30q10 20 28 25.5t30 17.5q37 -2 53 -22.5t12 -47.5q2 -6 1 -14t-1 -15q-4 -41 -33.5 -47t-58.5 11l-10 4q4 -4 10 -5t8 -8l-10 -4q-35 23 -35 62zM59 23q0 16 9 36l12 72q2 10 1 26.5t5 10.5q6 94 7 176v33q0 65 -3 127q-4 78 -12.5 160 t-18.5 178q2 33 21.5 54.5t43.5 25.5q5 1 9 1q19 -1 35 -13q20 -16 25 -52q-4 -61 -9.5 -109.5t-9.5 -94.5t-5 -94q0 -16 -1 -33q0 -35 2 -76q2 -49 9 -103.5t13.5 -108t8.5 -107.5v-18q0 -44 -8 -85q-6 -29 -23.5 -46.5t-39.5 -21.5q-5 -1 -10 -1q-16 0 -30 10 q-20 12 -29 42q0 8 -2 11z" />
<glyph unicode="j" horiz-adv-x="503" d="M-400 -245q0 16 9 38q8 14 45 19.5t90 7.5t115.5 7t121 20.5t105.5 46t72 86.5q33 82 44 173q9 71 9 145q0 21 -1 41q-3 95 -17.5 189.5t-28.5 180.5q-8 41 -12.5 81.5t-10.5 81.5q2 33 21.5 54.5t43 25.5t44 -11t24.5 -52q8 -135 19.5 -244.5t13.5 -214.5v-23 q0 -95 -15 -198q-16 -115 -63 -262q-12 -39 -53 -81t-98.5 -81t-124 -68.5t-131.5 -42.5q-42 -9 -80 -9q-20 0 -38 2q-54 7 -87 44q-17 25 -17 44zM117 1102q2 33 21.5 54.5t43.5 25.5q4 1 9 1q18 0 35 -13q20 -15 24 -52q-2 -2 -4 -2q2 -20 -10 -47q-4 2 -11 2 q-10 -10 -20 -15t-27 -1l-18 -17q-18 12 -26.5 27.5t-8.5 32.5z" />
<glyph unicode="k" horiz-adv-x="935" d="M16 45q0 102 11.5 201.5t13.5 202.5q-2 8 -2 26q0 2 2 4v4q-4 223 -11.5 442.5t-13.5 442.5q2 33 18 54q18 22 38 26q4 1 8 1q16 -1 30 -13q18 -16 21 -52l-22 -821l59 31l174 96q135 78 239.5 176.5t209.5 204.5q4 8 8 12l20 17l6 6q27 16 49.5 15t36 -15t15.5 -36v-6 q0 -20 -13 -44l-10 -12l-12 -15q-23 -18 -39 -24l-475 -355l-47 -36q29 -94 98.5 -171t140.5 -139l78 -61q10 -8 24.5 -23.5t14.5 -3.5q25 -25 25 -52.5t-15.5 -48t-42 -26.5t-55.5 15q-47 66 -93 131t-102 123q-45 43 -94 83.5t-86 92.5l-8 -6l-76 -60q-14 -18 -33 -26 q4 -78 9.5 -165t9.5 -141l6 -22q0 -10 -2 -17v-6h-2q-6 -27 -21.5 -42t-31.5 -18q-4 -1 -8 -1q-13 0 -25 9q-16 11 -25 42z" />
<glyph unicode="l" horiz-adv-x="294" d="M57 176q0 12 4.5 42t9.5 63.5t10 63.5l7 42q10 86 17.5 169t7.5 167q0 154 -19 306t-31 306q2 33 21.5 54.5t43.5 25.5q5 1 10 1q18 0 34 -12q20 -15 25 -52q-11 -209 -13 -414q-1 -79 0 -158q0 -127 2 -256q0 -47 6 -99q5 -53 6 -107v-16q0 -46 -4 -89q-6 -51 -26 -96 q-24 -19 -46 -23q-6 -1 -11 -1q-15 1 -28 7q-17 10 -25 30q-4 11 -5 22q0 11 4 24z" />
<glyph unicode="m" horiz-adv-x="1566" d="M14 977q2 33 22 55q18 21 42 25q5 1 10 1q18 0 34 -12q20 -16 25 -53q-3 -69 -3 -136v-33q1 -83 6 -167q29 143 80 229q52 84 114 116q42 21 86 22q22 0 42 -5q66 -15 124.5 -70.5t105 -145.5t66.5 -207q31 61 78 126.5t104 117.5q56 50 120 78q40 17 80 18q23 0 46 -6 q88 -23 148.5 -78t97.5 -131t54 -167q18 -90 20 -186v-37q0 -77 -8 -151q-10 -92 -27 -170q-23 -39 -57 -46q-5 -1 -11 -1q-29 0 -53 33l-4 8q-10 31 4 55q25 93 42 187q13 72 13 143q0 21 -1 41q-5 90 -39 175t-109 165q-59 59 -119 59t-113 -34.5t-96 -92t-68 -108.5 q-20 -43 -28 -99.5t-10 -118.5v-30q0 -48 4 -96q4 -64 10 -127q18 -31 16 -53.5t-18.5 -33.5t-43 -8t-55.5 25q-10 10 -10 20.5t-4 22.5q0 12 2 17q3 58 3 112q0 143 -20 255q-26 154 -74 250.5t-110 138.5q-51 35 -103 35l-23 -2q-62 -9 -116 -68.5t-85 -165.5t-32 -256v-6 q0 -148 44 -334q-6 -29 -24.5 -46.5t-39 -21.5t-41 8.5t-28.5 42.5q2 29 3 58.5t1 60.5q-4 8 -4 12q0 16 -2 31.5t-5 45.5t-9.5 78t-13.5 131t-17 206t-23 299z" />
<glyph unicode="n" horiz-adv-x="1093" d="M14 891q-2 32 -2 58q0 41 6 69q8 36 29 36q6 0 12 -3q9 5 16 5q15 0 27 -20q16 -30 25.5 -88.5t11.5 -133.5t3 -150.5t2 -141t8 -104.5q10 98 35.5 190t82.5 170q49 68 110.5 114t129.5 66q51 15 104 16q18 0 36 -2q72 -7 143 -46q55 -18 103 -79t85 -146t60.5 -185 t29.5 -196q2 -36 2 -70q0 -57 -6 -109q-10 -84 -41 -135q-12 -23 -32 -33q-16 -8 -31 -8h-7q-18 2 -32.5 16.5t-20.5 41.5l-6 14q29 84 44 183q11 74 11 149q0 25 -1 51q-5 100 -33.5 195.5t-86.5 170.5q-55 66 -121 92q-50 20 -100 20l-34 -2q-66 -9 -128.5 -51 t-107.5 -112q-45 -72 -62.5 -155.5t-20.5 -173.5q-1 -34 -1 -67q0 -56 3 -111q5 -89 5 -169q-12 -41 -48 -56q-15 -6 -28 -6q-19 0 -34 13q-37 4 -50 55q-2 2 -2 7v2q1 21 1 45q0 65 -8 143q-11 108 -27.5 220t-32 220.5t-21.5 190.5z" />
<glyph unicode="o" horiz-adv-x="1110" d="M5 450q-2 22 -2 44q1 67 17 134q22 89 74 169q63 111 173 168t232 61q10 0 19 1q112 0 220 -44q116 -47 194 -143q78 -98 110 -200q25 -82 24 -160q0 -20 -1 -40q-8 -96 -53 -181t-122 -147q-76 -62 -182 -96q-89 -28 -195 -29q-19 0 -38 1q-104 6 -188 46t-144.5 103.5 t-95.5 144t-42 168.5zM97 522q-2 -19 -2 -38q0 -94 37 -176q44 -100 136 -169t219 -78q24 -2 47 -2q92 0 168 26q94 32 155 91.5t89 139.5q23 64 23 133q0 17 -1 34q-7 88 -52.5 177t-129.5 167q-63 57 -146 75q-45 10 -89 10q-39 0 -78 -8q-84 -16 -162 -59.5t-129 -109.5 q-76 -99 -85 -213z" />
<glyph unicode="p" horiz-adv-x="1095" d="M14 971q4 29 20.5 48t38 24.5t42 -5t32.5 -41.5q0 -29 1.5 -40t1.5 -19v-19.5v-37.5q72 100 162 139q71 31 148 31q19 0 38 -1q96 -10 190 -59t170 -124.5t127 -170t62 -192.5q2 -21 2 -41q0 -107 -45 -195q-52 -106 -142 -177t-204 -103q-75 -20 -150 -20q-38 0 -76 5 q-41 6 -69.5 13.5t-52 19.5t-47 28.5t-56.5 39.5q-25 18 -43 39l6 -111v-4q6 -49 11 -83t10.5 -64.5t11.5 -64.5t12 -83q0 -35 -17.5 -57.5t-41.5 -28.5q-7 -2 -14 -2q-16 0 -32 9q-22 14 -28 50v157t1 138.5t1 138v156.5l-33 500q-4 39 -8 62.5t-9 42t-9.5 41t-10.5 61.5z M168 498q2 -84 22.5 -161t61.5 -139.5t104 -95.5t136 -39q19 -2 37 -2q54 0 108 13q72 18 135.5 56t108.5 92t67 122q12 40 12 83q0 30 -6 62q-12 72 -46 144t-84 132t-113.5 105t-137.5 66q-42 9 -88 9q-22 0 -46 -2q-71 -7 -124 -48q-49 -35 -82.5 -97.5t-50.5 -139.5 q-14 -68 -14 -142v-18z" />
<glyph unicode="q" horiz-adv-x="1073" d="M33 610q10 104 33.5 179t66.5 125.5t106.5 79t153.5 42.5q47 7 104 7h15q66 -1 131.5 -13t126.5 -38.5t109 -65.5l-1 10t-3.5 22.5t-4.5 23.5l-2 11q14 23 34 33t38 9t34.5 -15t22.5 -43v-2q0 -14 -6 -27q2 -10 0 -18q10 -59 11 -120q1 -22 1 -45q0 -37 -1 -75 q-3 -59 -6 -120q-2 -36 -2 -72q0 -25 1 -49q2 -104 9.5 -195.5t14.5 -178.5t12 -177.5t7 -194.5q-4 -35 -25.5 -54.5t-44.5 -21.5h-6q-20 0 -38 15q-19 16 -19 55q8 82 14.5 148.5t8.5 130.5q1 44 1 87v45q-1 66 -3 148q-20 -78 -79 -138.5t-138 -88.5q-71 -28 -146 -28h-15 q-83 3 -162 34t-147.5 85t-117.5 129t-73 167q-18 65 -18 136q0 28 3 58zM115 608v-16q0 -176 85 -301q89 -131 269 -172q39 -10 81 -17q24 -3 47 -3q18 0 35 2q40 5 76.5 21.5t65.5 53.5q27 33 47.5 87t32.5 120t14 137v31q0 54 -5 105q-7 67 -26.5 123.5t-52.5 92.5 q-16 20 -44.5 35t-60.5 23t-62.5 12t-53.5 4h-15q-71 0 -142 -16q-80 -19 -143.5 -61t-104.5 -106.5t-43 -154.5z" />
<glyph unicode="r" horiz-adv-x="772" d="M14 989q2 33 22 55q18 21 42 25q5 1 10 1q18 0 34 -12q20 -16 25 -52q-4 -71 -4 -141q0 -35 1 -71q3 -106 20 -212q16 106 52 185t96.5 134t149.5 92t212 60q33 -3 49 -19q17 -18 17 -41q0 -21 -12 -41q-13 -22 -40 -34q-51 9 -95 9q-66 -1 -116 -21q-84 -34 -135 -105.5 t-74 -168.5q-24 -96 -27 -202q-1 -23 -1 -46q0 -82 9 -162q11 -102 27 -183q-10 -45 -46 -63q-15 -7 -28 -7q-19 0 -36 15q-16 6 -28.5 23.5t-10.5 47.5v16.5t2 6.5q2 -8 -1 -23.5t1 -7.5q8 18 7 40t-1 42q3 42 3 84q0 69 -8 135q-13 108 -34.5 214t-45 212.5t-36.5 214.5z " />
<glyph unicode="s" horiz-adv-x="901" d="M33 207q-4 13 -4 25q0 14 5 26q9 24 27.5 37.5t42 12.5t46.5 -23q68 -129 184 -168q49 -17 102 -16q71 0 146 30q122 49 154 97q17 26 17 50q-1 22 -13 42q-28 44 -98.5 83t-152 73t-157.5 60.5t-115 45.5q-35 18 -56.5 46.5t-29.5 62.5q-5 23 -5 47q0 12 1 24 q4 37 23 69q37 61 90 97.5t115.5 53.5t129 21.5t125.5 4.5h15q37 -2 53 -21.5t13 -44t-22.5 -46.5t-52.5 -26q-34 1 -75 1h-43q-68 -1 -129.5 -13t-105.5 -41t-46 -78q4 -39 50 -69.5t115 -58t147.5 -56.5t148.5 -63.5t120 -79.5t60 -107q7 -15 6 -31q0 -22 -12 -46 q-22 -40 -62 -74.5t-83 -61t-68 -37.5q-88 -37 -173 -49q-36 -5 -71 -5q-48 -1 -93 9q-79 16 -147.5 64.5t-121.5 132.5z" />
<glyph unicode="t" horiz-adv-x="647" d="M1 798q3 22 19.5 41t42.5 27q29 -2 56 -2q19 0 37 1q42 3 84 14q-10 106 -19.5 209.5t-19.5 201.5q2 33 21.5 54.5t43.5 25.5q5 1 9 1q19 -1 35 -13q20 -16 24 -51q-3 -77 -3 -156v-41q1 -100 5 -205q49 18 101 37t112 35q37 -1 53 -21q13 -16 13 -37v-7 q-3 -24 -22.5 -46t-51.5 -26q-16 2 -35 1t-35 3q-4 0 -2 1t6 1q-35 -2 -68.5 -8.5t-66.5 -16.5q10 -197 28.5 -389t34.5 -369q-6 -29 -24.5 -46t-38.5 -21q-5 -1 -11 -1q-15 0 -30 9q-20 12 -29 43q6 97 6 198q0 81 -4 165q-8 190 -24 383q-47 -16 -95.5 -34t-97.5 -30 q-31 7 -44 27q-11 16 -11 34q0 4 1 8z" />
<glyph unicode="u" horiz-adv-x="1044" d="M12 563q-2 41 -2 81q0 50 3 100q5 88 5 178q2 33 21.5 54t43 25.5t44 -11t25.5 -52.5q-4 -74 -14.5 -151.5t-14.5 -154.5q-2 -34 -2 -68q0 -43 3 -85q5 -76 30 -149q53 -154 136 -222.5t174 -71.5q5 0 10 -1q86 0 170 51q89 53 152.5 142t92.5 205q14 58 14.5 117.5 t-14.5 121.5q-2 6 -10.5 45t-18.5 83t-18 81l-8 37q-8 25 0 48t26 36q18 14 40 15h2q21 0 42 -20l-6 9l12 -13q-4 0 -4 4q18 -23 30.5 -71.5t21 -106t13.5 -112t9 -89.5q4 -37 5 -74q1 -86 -23 -168q-32 -118 -106 -210q-76 -92 -186 -146q-99 -48 -220 -48q-14 0 -27 1 q-129 6 -213 55.5t-135.5 128.5t-75 183t-27.5 223z" />
<glyph unicode="v" horiz-adv-x="1110" d="M-9 932q5 28 22.5 45.5t44 18.5t51.5 -23q76 -111 147.5 -220.5t149.5 -217.5q27 -37 55 -82t56 -92.5t54.5 -93.5t49.5 -85q45 98 84.5 182.5t78.5 176.5t81 205.5t93 269.5q24 29 50 34q7 1 13 1q17 1 31 -9q18 -14 25 -40q1 -6 1 -13q0 -21 -13 -45 q-104 -217 -198.5 -436.5t-184.5 -448.5q-18 -33 -45 -43q-11 -5 -23 -5q-12 -1 -26 5q-26 10 -35 50q-74 162 -145.5 279.5t-141 209.5t-135 168t-127.5 154q-14 21 -14 43q0 6 1 12z" />
<glyph unicode="w" horiz-adv-x="1441" d="M30 587q1 122 17 218q16 97 44 149q18 35 39 34q11 0 22 -9q20 13 22 -21v-17q0 -31 -5 -79q-7 -62 -18.5 -147.5t-17.5 -173.5q-3 -48 -3 -95q0 -39 2 -76q5 -83 30.5 -144.5t77.5 -92.5q34 -20 83 -20q27 0 58 6q72 14 119 70.5t74.5 136.5t41 170t18.5 172t5 142t2 81 q2 31 17.5 51.5t36 26.5t39 -4.5t26.5 -38.5q12 -35 18 -108t12.5 -163t16.5 -186t32.5 -178t60.5 -140.5t101 -70.5q106 4 165 58q58 54 84 136q25 78 25 173v7q-1 98 -12.5 188.5t-23.5 161t-12 99.5q2 33 21.5 54.5t43.5 25.5q5 1 9 1q19 0 35 -12q20 -16 24 -52 q-1 -19 -1 -40q0 -54 4 -126q4 -83 4 -172v-36q-1 -108 -16.5 -215.5t-56.5 -191.5q-40 -84 -114 -130q-58 -36 -146 -36q-23 0 -47 2q-90 10 -143 86t-83 180.5t-42 217t-17 198.5q-25 -385 -129 -545q-72 -111 -191 -111q-53 0 -116 22q-88 31 -139 120.5t-75 205.5 q-23 111 -22 228v10z" />
<glyph unicode="x" horiz-adv-x="968" d="M27 88q0 26 20 51q45 45 77 76t55.5 55.5t44 47t46 52t59 69.5t85.5 100q-80 96 -168 183t-183 155q-16 25 -15 49t14.5 42.5t37.5 25.5q9 3 18 3q16 0 34 -8q45 -43 83.5 -91t76.5 -98t75 -100.5t78 -99.5q86 111 147.5 194t98.5 167q17 25 41 31q11 3 21 3q13 0 23 -4 q20 -8 30 -28.5t3 -53.5q-63 -104 -145 -193t-168 -179q72 -84 135.5 -144.5t114.5 -108.5t87 -91t52 -93q1 -9 1 -17q0 -16 -5 -27q-8 -17 -27 -36l-10 -8q-47 16 -93 73.5t-94 129.5t-100.5 144.5t-113.5 121.5q-27 -35 -58.5 -84t-70.5 -106.5t-87 -119.5t-108 -122 q-27 -27 -52.5 -26.5t-41.5 16.5q-18 19 -18 49z" />
<glyph unicode="y" horiz-adv-x="978" d="M28 605q15 83 37.5 166t28.5 159q12 27 32.5 42t41 15t37 -15.5t20.5 -47.5q-6 -57 -28.5 -138t-42 -164t-26.5 -159q-2 -18 -2 -35q0 -52 17 -88q47 -92 122 -135t159 -46h15q77 0 155 27q86 31 154 86q29 25 46 44.5t29 41.5q0 78 -7 157t-14 147.5t-12 123.5 q-1 22 -1 40q0 28 4 46q10 23 29.5 31t37.5 -12q27 -86 40 -198.5t16 -232.5q2 -47 2 -93q0 -72 -4 -143q-5 -115 -13 -206q-8 -96 -45 -165.5t-91 -115.5t-125 -70.5t-146 -30.5q-28 -3 -57 -3q-47 0 -95 7q-78 10 -147 32q-16 25 -15.5 49.5t14 43t37 25.5t52.5 -5 q10 -6 47 -16.5t89 -13.5q14 -1 28 -1q40 0 83 6q60 9 115 37.5t98 82.5t62 145q12 55 16 111.5t4 115.5q-90 -96 -203 -144q-106 -44 -209 -44h-15q-111 4 -205.5 58t-145.5 161q-36 74 -36 153q0 81 17 169z" />
<glyph unicode="z" horiz-adv-x="1011" d="M-9 876q3 22 19.5 41t42.5 27q127 -10 227 -13q60 -2 119 -2q39 0 76 1q94 2 194.5 8t227.5 16q53 -4 63 -38q3 -10 4 -20q0 -22 -16 -44q-72 -82 -139.5 -154.5t-147 -153.5t-179 -178.5t-232.5 -226.5q38 4 90 4q26 0 56 -1q89 -3 179.5 -10t167 -14t111.5 -12 q37 -2 53.5 -21t13.5 -44t-22.5 -46.5t-52.5 -25.5q-98 16 -182 31.5t-166 29t-168 25t-185 17.5q-33 6 -30.5 31.5t24.5 41.5q10 8 49 48t93.5 98.5t120 131.5t132 145.5t127 140t105.5 118.5q-115 7 -198 9q-21 0 -41 1q-61 1 -119 -3q-78 -4 -162 -11.5t-201 -15.5 q-31 7 -44 27q-11 16 -11 34q0 4 1 8z" />
<glyph unicode="{" horiz-adv-x="409" d="M12.5 1146q-2.5 85 13 167t49.5 158.5t87 140.5q16 20 41.5 32.5t48.5 24.5q33 18 75 22.5t85 0.5t84.5 -10.5t76.5 -8.5q31 -12 40.5 -33.5t3 -43t-27 -39t-46.5 -21.5q-59 6 -117.5 19.5t-118.5 7.5q-66 -6 -107.5 -62.5t-64 -130.5t-31 -151.5t-6.5 -126.5 q4 -49 10.5 -83t20.5 -81q14 -43 40 -81t48 -79q25 -41 41 -90t21.5 -99.5t-7 -98.5t-47.5 -89l-4 -4q59 -20 82 -67.5t27 -104.5t1 -118.5t7 -110.5t44 -80t112 -29q25 12 45 7t32.5 -19.5t13.5 -38t-14 -47.5q-23 -25 -61.5 -31t-80.5 1t-82 23.5t-60 39.5 q-14 14 -23.5 31.5t-19.5 33.5q-12 25 -16.5 52.5t-4.5 57t2 59.5t4 54q2 18 5.5 41t3.5 46.5t-3.5 45t-13.5 39.5q-20 35 -51 38t-66 3q-31 8 -33.5 31t13.5 45q27 16 55.5 33.5t44.5 42.5q37 55 23 122.5t-49 136.5t-75 135.5t-52 121.5q-16 80 -18.5 165z" />
<glyph unicode="|" horiz-adv-x="346" d="M43 1599q2 33 21.5 54.5t43 25.5t44 -11t24.5 -52q-8 -205 -6 -444.5t9 -486.5t18.5 -486.5t23.5 -444.5q-6 -29 -24.5 -46t-39 -21t-41 8t-28.5 43q8 205 7 445.5t-8 487.5t-19.5 485t-24.5 443z" />
<glyph unicode="}" horiz-adv-x="409" d="M-211 1596.5q-6 21.5 3 43t40 33.5q35 2 77 8.5t85 10.5t84 0t76 -23q23 -12 48 -24.5t42 -32.5q53 -63 87 -140t49 -159t13 -167t-18 -165q-12 -55 -52 -121.5t-75 -135.5t-49.5 -136.5t22.5 -122.5q16 -25 45 -42t56 -34q16 -23 13 -45t-34 -31q-35 0 -65.5 -3 t-51.5 -38q-10 -18 -13 -39.5t-3 -45t3 -46t5 -41.5q2 -51 6 -113.5t-20 -109.5q-10 -16 -19.5 -33.5t-23.5 -31.5q-23 -23 -62 -39.5t-81 -23.5t-81.5 -1t-60.5 31q-14 25 -13 48t13 37.5t32.5 19.5t45.5 -7q78 -2 111.5 29t44 80t7.5 110.5t1 118.5t26.5 104.5t81.5 67.5 l-4 4q-35 41 -47 89t-7 98.5t21.5 99.5t40.5 90q23 41 48.5 79t39.5 81q14 47 20.5 80.5t10.5 83.5q2 49 -6 126.5t-30.5 151.5t-64.5 130t-108 63q-59 6 -117.5 -7.5t-117.5 -19.5q-29 4 -48.5 21.5t-25.5 39z" />
<glyph unicode="~" horiz-adv-x="710" d="M37 644.5q-10 23.5 4 57.5q16 29 48 70t71 70.5t82 37t82 -29.5q25 -23 43 -51.5t35.5 -58t38 -55.5t48.5 -42q31 8 43.5 35t15.5 56.5t0 52t-3 26.5q2 33 21.5 54.5t43 25.5t44 -11.5t24.5 -52.5q-2 -35 -11.5 -75.5t-26.5 -79.5t-44 -70t-66 -41q-8 -2 -32.5 -7 t-36.5 1q-29 18 -55.5 53t-51 71t-47 64.5t-46 32.5t-49 -23.5t-52.5 -103.5q-18 -31 -44 -40t-47.5 0.5t-31.5 33z" />
<glyph unicode="&#xa1;" horiz-adv-x="344" d="M43 74q25 147 38 280t20.5 262t10.5 262.5t7 282.5q8 27 28.5 43.5t42 17.5t40 -12.5t24.5 -46.5q-25 -147 -39 -280t-21.5 -262t-10.5 -262t-5 -283q-6 -33 -27.5 -51.5t-46 -20.5t-43 15.5t-18.5 54.5zM119 1341q10 16 15 29.5t16 30.5q16 20 37.5 23t41 -5t38 -24.5 t28.5 -30.5q-2 -14 -5 -22.5t-11 -18.5q-10 -18 -31 -27.5t-37 -19.5q-6 0 -11 1t-12 3q-25 -6 -45 8.5t-24 52.5z" />
<glyph unicode="&#xa2;" horiz-adv-x="733" d="M-4 660.5q2 72.5 27.5 137t76 114t119.5 65.5q-6 53 -13 103.5t-11 103.5q2 33 21.5 54.5t43 25.5t44 -11.5t24.5 -52.5q-4 -47 -6.5 -95t-4.5 -95q74 18 142.5 15t115.5 -34q14 -10 24.5 -22.5t21.5 -24.5q12 -25 7 -50.5t-21.5 -40.5t-40 -19.5t-50.5 14.5 q-29 39 -85 51t-118 2q-4 -98 -1 -199.5t14 -230.5q59 6 105 36t87 60.5t81 54t87 19.5q31 -39 17.5 -75t-46 -65.5t-73.5 -52t-64 -32.5q-45 -20 -92 -31.5t-94 -13.5q2 -29 5 -71t1 -83t-12.5 -73.5t-32.5 -43.5q-4 0 -6 -2q-10 0 -23.5 2t-24 5.5t-14.5 5.5t6 2h9 q-10 12 -16.5 28.5t-9.5 46t1 74.5t16 117q-84 4 -137 46t-77.5 102.5t-22.5 133zM69 663.5q-1 -65.5 41 -122t130 -74.5q4 72 4 130t-1 107.5t-5.5 91.5t-8.5 83q-78 -29 -118.5 -89.5t-41.5 -126z" />
<glyph unicode="&#xa3;" horiz-adv-x="761" d="M-19.5 748.5q3.5 21.5 19.5 41t43 27.5q33 -4 63.5 -8t61.5 -6q-18 70 -4 136.5t53 123.5t98.5 99t128 61.5t142 10.5t145.5 -52q14 -29 5 -55.5t-28.5 -42t-46 -12.5t-47.5 32v2q-98 25 -169.5 12.5t-117.5 -53.5t-66.5 -105.5t-16.5 -142.5q0 -4 -1 -8t-1 -8 q59 0 115.5 12t119.5 23q8 4 25.5 -1.5t32 -11.5t20.5 -8t-8 10q31 -37 11.5 -74.5t-69.5 -45.5q-61 20 -123.5 22t-125.5 -8q6 -55 22.5 -113.5t33.5 -117t26.5 -116t-0.5 -108.5q39 -45 84 -71.5t102 -30.5h2q29 -2 47 11t34.5 28.5t36 30t50.5 14.5l8 -4q57 -23 41 -86 q-25 -49 -82 -64.5t-125.5 -9.5t-138.5 26.5t-121 43.5l-6 -7q-41 -37 -70.5 -64.5t-77.5 -47.5q-39 -4 -44 11t-3 52q8 37 26.5 55.5t39 31t42 26.5t38.5 45q0 4 2 6q20 43 18 95.5t-12 110.5t-24.5 119.5t-20.5 121.5l-133 -27q-31 8 -44.5 27.5t-10 41z" />
<glyph unicode="&#xa4;" horiz-adv-x="884" d="M24.5 954.5q-12.5 18.5 4.5 57.5q4 4 6 4q29 29 47 32t31.5 -8.5t25 -34t24.5 -42t30.5 -31.5t46.5 -6q57 29 107 50t99.5 32.5t100.5 9.5t110 -21q4 0 5 -2l2 -2h6q2 -2 0 -4q2 -2 4 -2q16 12 21 32.5t9.5 41t12.5 39t31 26.5q57 -4 72.5 -19t7 -35.5t-30 -45.5 t-39.5 -45q-4 -6 -11.5 -16.5t-13.5 -22.5q41 -29 64.5 -62.5t40.5 -101.5q23 -86 -16.5 -168t-110.5 -147q12 -20 35.5 -29.5t43 -20t28.5 -26.5t-7 -53q-31 -53 -52.5 -49t-40 28.5t-39 53t-50.5 26.5q-6 0 6 -2t14 -8q2 -4 -6 -2t-12 2q-11 0 -17 -2q-92 -41 -184 -51.5 t-166 32.5q-8 -6 -15 -13t-18 -13q-4 -2 -7 -3t-5 -5q2 2 3 -12.5t-1 -33t-9 -35t-22 -16.5q-59 0 -84.5 26t-7.5 46q0 -2 -1 -3t-1 -3q18 18 20.5 24.5t-18.5 -18.5q12 8 25.5 26.5t25 37t16.5 31t3 5.5q-2 -2 -2 3.5v9.5q0 2 4 6l-12 12q-39 39 -56.5 88t-16.5 101.5 t16.5 104.5t41.5 99q2 4 0 11.5t2 5.5t4.5 -5t2.5 -8q0 2 1 2.5t1 2.5l-4 8q-12 33 -39 48t-50.5 29.5t-36 33zM175 601.5q9 -54.5 41 -97.5t84 -69.5t112 -26.5q55 -2 118.5 25.5t115.5 75.5t79.5 108.5t11.5 123.5q-16 53 -56 87t-92 47.5t-112.5 8.5t-115 -26.5 t-100.5 -58.5t-68 -88q-27 -55 -18 -109.5z" />
<glyph unicode="&#xa5;" horiz-adv-x="821" d="M11 1182.5q3 21.5 19.5 41t43.5 27.5q16 -2 26.5 -2t24.5 -8q39 -23 70.5 -58.5t69.5 -79.5t91.5 -93t139.5 -99q10 4 38.5 42t61.5 90.5t60.5 110.5t37.5 103q14 33 39 46.5t47.5 9.5t35.5 -25.5t5 -58.5q-18 -10 -47 -44t-59.5 -79t-62 -94t-56.5 -91t-40 -71t-15 -31 q0 -6 23.5 -6t55 1t63.5 3t50 -2q27 -37 13.5 -64.5t-46 -42t-75.5 -16.5t-76 13q-4 -29 -5 -54.5t-3 -52.5q29 6 58.5 13t59.5 16q37 -2 53.5 -21.5t13.5 -44t-22.5 -46t-52.5 -26.5q-29 4 -56.5 6.5t-53.5 2.5q-10 -31 2 -84.5t22 -109.5t7 -106.5t-44 -74.5 q-47 -6 -64.5 20.5t-6.5 59.5l-4 -4q12 37 14 116.5t-4 178.5q-49 -6 -98.5 -17.5t-102.5 -25.5q-31 8 -44 27.5t-10 41t19.5 41t42.5 27.5q49 -8 95.5 -8t91.5 4l-8 114q-29 -4 -56.5 -12t-55.5 -11t-54.5 3t-51.5 31q-6 25 0.5 47t21.5 36.5t35.5 17.5t43.5 -11 q10 -2 36.5 1t51 5t37 2t-7.5 -8q0 18 -38 58t-95.5 87t-122 93t-115.5 75l4 -4l-12 6h-4q-31 8 -44.5 27.5t-10.5 41zM82 1108h2q2 -2 1 -2t-3 2z" />
<glyph unicode="&#xa6;" horiz-adv-x="342" d="M43 1599q2 33 21.5 54.5t43 25.5t44 -11t24.5 -52q-8 -201 -7 -432.5t9 -472.5q-12 0 -22 2q-16 2 -35 3t-35 1q-8 236 -19.5 460.5t-23.5 421.5zM88 -262q6 162 7 343t-3 374l94 4q8 -190 16.5 -367.5t18.5 -337.5q-6 -29 -24.5 -46t-39 -21t-41 8t-28.5 43z" />
<glyph unicode="&#xa7;" horiz-adv-x="935" d="M8 977q2 70 33 138.5t89 129t138 103.5q66 35 136.5 51t143.5 20t145.5 -1t144.5 -15q31 -12 40 -33.5t2.5 -43t-26.5 -39t-47 -21.5h-6q-170 43 -298 35.5t-215 -44t-137.5 -96t-67.5 -121t-4 -116t54 -82.5q20 -16 50 -27.5t61.5 -19t61.5 -11.5t54 -4 q121 0 225.5 -24.5t176.5 -66.5t105.5 -99.5t14 -125t-98 -144t-230.5 -154.5q68 -18 131.5 -40t112.5 -53.5t77.5 -74.5t26.5 -102q-6 -86 -67.5 -140.5t-145.5 -86t-174 -46t-154 -22.5q-37 -4 -85 -13.5t-85.5 -4.5t-53 31t15.5 89q51 2 120.5 2t145.5 4t151.5 19.5 t137.5 52.5q33 16 61.5 41.5t40.5 55.5t3 60.5t-48 59.5q-76 55 -168 78.5t-180 46.5q-76 18 -148.5 38.5t-120 56.5t-55.5 95.5t45 155.5q35 61 75 118.5t99 106.5q-106 12 -173.5 54.5t-99.5 100.5t-30 128zM198.5 401.5q-12.5 -49.5 9 -91.5t80 -73.5t167.5 -43.5 q72 18 140.5 58t115.5 91t64.5 106.5t-9.5 103.5t-107.5 83t-232.5 45q-51 -37 -100.5 -84t-82 -96t-45 -98.5z" />
<glyph unicode="&#xa8;" horiz-adv-x="542" d="M14 1708v10q2 33 21.5 54.5t43 25.5t44 -11t24.5 -52v-11q-6 -29 -24.5 -46t-39 -21t-40.5 8t-29 43zM369 1706v10q2 33 21.5 54.5t43 25.5t44 -11.5t24.5 -51.5v-11q-6 -29 -24.5 -46t-39 -21t-41 8t-28.5 43z" />
<glyph unicode="&#xad;" horiz-adv-x="591" d="M17 730.5q3 21.5 19.5 41t43.5 27.5q70 -16 118 -27.5t87 -15.5t77.5 2t92.5 26q14 12 34 13l3 2v-2q16 4 40 -15v2q4 -2 13 -10l-8 6q27 -33 15.5 -66.5t-50.5 -49.5q-109 6 -215 11t-215 -13q-31 8 -44.5 27.5t-10.5 41z" />
<glyph unicode="&#xb4;" horiz-adv-x="497" d="M-2 1596.5q8 25.5 41 39.5q96 61 188 120t170 128q31 12 56.5 2t38 -31.5t8.5 -48.5t-33 -47q-59 -14 -108.5 -41.5t-94.5 -62.5t-88 -75t-86 -77q-33 -8 -56.5 7.5t-33.5 38t-2 48z" />
<glyph unicode="&#xb7;" horiz-adv-x="397" d="M124.5 776q11.5 37 72.5 72q4 0 8 -1t8 -1q8 2 25 2q14 -10 27.5 -16.5t17.5 -22.5q10 -16 10 -26.5t-4 -28.5q-49 -49 -93 -53.5t-63.5 17t-8 58.5z" />
<glyph unicode="&#xb8;" horiz-adv-x="464" d="M78 23q-4 6 3 18t24.5 19.5t46 4t69.5 -27.5q2 -35 -6 -71t-18 -66q96 4 149 -17.5t70.5 -57.5t3.5 -79t-52 -81t-97.5 -64.5t-131.5 -28.5q-35 8 -47 31.5t-6 47t28.5 42t55.5 16.5q104 2 140 25.5t21.5 47t-68.5 35t-132 -6.5q-37 12 -37 53q12 63 12 131q0 -4 -1 -5 t-1 -3q0 -4 -1 5t-3 13q0 2 -4 2q-6 4 -10 8t-8 9z" />
<glyph unicode="&#xbf;" horiz-adv-x="894" d="M-3 469q9 94 51 183t118 157t183.5 105.5t248.5 27.5l10 256q6 29 24.5 46.5t39 21.5t40 -8.5t29.5 -43.5q-31 -139 -35 -211.5t-8 -104.5t-24.5 -37t-83.5 -9q-41 -2 -84 -3t-86 -6t-84 -17.5t-78 -37.5q-86 -61 -135 -152t-51 -186.5t46 -180.5t158 -132 q57 -25 124 -28t133.5 11.5t129 42t111.5 64.5q0 2 2 4h2q41 29 67.5 13.5t2.5 -74.5q-18 -39 -80.5 -69.5t-131.5 -52t-129.5 -33t-74.5 -13.5q-117 -12 -204 24.5t-141 103.5t-76.5 156t-13.5 183zM604 1357q-4 32 14 56q4 12 9 19q0 6 2 12t-2 10q41 39 74.5 23.5 t37.5 -54.5q4 -16 2 -24q2 -2 7 -17v-6q-2 -16 -7.5 -23t-15.5 -16q-10 -12 -39 -18t-39 -10q-39 16 -43 48z" />
<glyph unicode="&#xc0;" horiz-adv-x="1402" d="M-8.5 715.5q2.5 21.5 17 32t37 11.5t40.5 0t26.5 -2t-3.5 3l110 -4q12 94 32.5 187t55.5 187q43 115 110.5 187t148.5 107.5t170 35.5t176 -30.5t165 -91t137 -146.5q35 -51 59.5 -139t42 -195.5t26 -226.5t11.5 -228.5t0 -201.5t-10 -150q-10 -39 -34.5 -53t-49 -10 t-40 26.5t-5.5 57.5q12 156 22.5 316.5t2.5 340.5q-106 4 -226 -2t-242 -18.5t-239.5 -26.5t-222.5 -29h-4q-4 -80 -2 -159.5t6 -154.5t8.5 -142.5t6.5 -122.5q-6 -29 -24.5 -46.5t-39 -21.5t-41 8.5t-29.5 42.5q2 147 3.5 293t13.5 289q-57 -8 -116 -7.5t-79 25.5 q-23 37 -20.5 58.5zM311 754h4q102 0 219 12t236 29.5t235.5 36t221.5 30.5q-10 80 -30.5 151.5t-51.5 127.5q-41 72 -106.5 128t-144.5 86.5t-163 28.5t-160 -47q-66 -39 -111.5 -100t-76.5 -138t-48.5 -165t-23.5 -180zM516 1806q-4 27 8.5 48.5t38 31.5t55.5 -2 q78 -70 170.5 -128t188.5 -120q33 -14 41 -39.5t-2 -48t-34 -38t-56 -7.5q-43 37 -86 77t-88 75t-95.5 62.5t-107.5 41.5q-29 20 -33 47z" />
<glyph unicode="&#xc1;" horiz-adv-x="1402" d="M-8.5 715.5q-2.5 -21.5 20.5 -58.5q20 -25 79 -25.5t116 7.5q-12 -143 -13 -288.5t-4 -293.5q8 -31 29 -43t41.5 -8t38.5 21.5t25 46.5q-2 55 -6.5 122.5t-8.5 142.5t-6 154.5t2 159.5h4q104 14 222 28.5t240 27t242 18.5t226 2q8 -180 -2 -341t-23 -316 q-10 -35 5.5 -57.5t40 -26.5t49 10t34.5 53q6 57 9.5 149.5t0.5 202t-11.5 228.5t-26 226.5t-42 195.5t-59.5 139q-59 86 -137 146.5t-165 91t-176 30.5t-170 -35.5t-148.5 -107.5t-110.5 -187q-35 -94 -55.5 -187t-32.5 -187l-110 4q12 -4 3.5 -3t-26.5 2t-40.5 0 t-37 -11.5t-17 -32zM311 754q6 92 23.5 180t48.5 165t77 138t111 100q76 45 160 47t163 -28.5t144.5 -87t106.5 -127.5q31 -55 51.5 -127t30.5 -152q-104 -12 -221 -30.5t-236 -36t-236 -29.5t-219 -12h-4zM518 1596.5q8 25.5 41 39.5q96 61 188.5 120t170.5 128q31 12 56 2 t37.5 -31.5t8.5 -48.5t-33 -47q-59 -14 -108.5 -41.5t-94.5 -62.5t-88 -75t-86 -77q-33 -8 -56.5 7.5t-33.5 38t-2 48z" />
<glyph unicode="&#xc2;" horiz-adv-x="1402" d="M-8.5 715.5q2.5 21.5 17 32t37 11.5t40.5 0t26.5 -2t-3.5 3l110 -4q12 94 32.5 187t55.5 187q43 115 110.5 187t148.5 107.5t170 35.5t176 -30.5t165 -91t137 -146.5q35 -51 59.5 -139t42 -195.5t26 -226.5t11.5 -228.5t0 -201.5t-10 -150q-10 -39 -34.5 -53t-49 -10 t-40 26.5t-5.5 57.5q12 156 22.5 316.5t2.5 340.5q-106 4 -226 -2t-242 -18.5t-239.5 -26.5t-222.5 -29h-4q-4 -80 -2 -159.5t6 -154.5t8.5 -142.5t6.5 -122.5q-6 -29 -24.5 -46.5t-39 -21.5t-41 8.5t-29.5 42.5q2 147 3.5 293t13.5 289q-57 -8 -116 -7.5t-79 25.5 q-23 37 -20.5 58.5zM311 754h4q102 0 219 12t236 29.5t235.5 36t221.5 30.5q-10 80 -30.5 151.5t-51.5 127.5q-41 72 -106.5 128t-144.5 86.5t-163 28.5t-160 -47q-66 -39 -111.5 -100t-76.5 -138t-48.5 -165t-23.5 -180zM379 1541.5q-4 21.5 5 45t34 39.5 q127 164 211 222.5t150.5 39t131 -102.5t154.5 -200l-4 -6q-16 -27 -36.5 -39t-53.5 -4q-33 27 -56.5 65.5t-48 78.5t-52.5 76t-69 56q-41 -33 -75.5 -74.5t-68.5 -85.5t-69.5 -84t-78.5 -71q-33 -4 -51.5 9.5t-22.5 35z" />
<glyph unicode="&#xc3;" horiz-adv-x="1402" d="M-8.5 715.5q2.5 21.5 17 32t37 11.5t40.5 0t26.5 -2t-3.5 3l110 -4q12 94 32.5 187t55.5 187q43 115 110.5 187t148.5 107.5t170 35.5t176 -30.5t165 -91t137 -146.5q35 -51 59.5 -139t42 -195.5t26 -226.5t11.5 -228.5t0 -201.5t-10 -150q-10 -39 -34.5 -53t-49 -10 t-40 26.5t-5.5 57.5q12 156 22.5 316.5t2.5 340.5q-106 4 -226 -2t-242 -18.5t-239.5 -26.5t-222.5 -29h-4q-4 -80 -2 -159.5t6 -154.5t8.5 -142.5t6.5 -122.5q-6 -29 -24.5 -46.5t-39 -21.5t-41 8.5t-29.5 42.5q2 147 3.5 293t13.5 289q-57 -8 -116 -7.5t-79 25.5 q-23 37 -20.5 58.5zM311 754h4q102 0 219 12t236 29.5t235.5 36t221.5 30.5q-10 80 -30.5 151.5t-51.5 127.5q-41 72 -106.5 128t-144.5 86.5t-163 28.5t-160 -47q-66 -39 -111.5 -100t-76.5 -138t-48.5 -165t-23.5 -180zM422 1631.5q-10 23.5 4 58.5q16 29 48 69.5t71 70.5 t82 37t82 -30q25 -23 43 -51.5t35.5 -58t38 -55t48.5 -42.5q31 8 43.5 35t15.5 56.5t0 52t-3 26.5q2 33 21.5 54.5t43 25.5t44 -11.5t24.5 -51.5q-2 -35 -11.5 -76t-26.5 -80t-44 -69.5t-66 -41.5q-8 -2 -32.5 -7t-36.5 1q-31 16 -56.5 52t-50 72t-47 64.5t-46 32.5 t-49 -23.5t-52.5 -103.5q-18 -31 -44 -40t-47.5 0.5t-31.5 33z" />
<glyph unicode="&#xc4;" horiz-adv-x="1402" d="M-8.5 715.5q2.5 21.5 17 32t37 11.5t40.5 0t26.5 -2t-3.5 3l110 -4q12 94 32.5 187t55.5 187q43 115 110.5 187t148.5 107.5t170 35.5t176 -30.5t165 -91t137 -146.5q35 -51 59.5 -139t42 -195.5t26 -226.5t11.5 -228.5t0 -201.5t-10 -150q-10 -39 -34.5 -53t-49 -10 t-40 26.5t-5.5 57.5q12 156 22.5 316.5t2.5 340.5q-106 4 -226 -2t-242 -18.5t-239.5 -26.5t-222.5 -29h-4q-4 -80 -2 -159.5t6 -154.5t8.5 -142.5t6.5 -122.5q-6 -29 -24.5 -46.5t-39 -21.5t-41 8.5t-29.5 42.5q2 147 3.5 293t13.5 289q-57 -8 -116 -7.5t-79 25.5 q-23 37 -20.5 58.5zM311 754h4q102 0 219 12t236 29.5t235.5 36t221.5 30.5q-10 80 -30.5 151.5t-51.5 127.5q-41 72 -106.5 128t-144.5 86.5t-163 28.5t-160 -47q-66 -39 -111.5 -100t-76.5 -138t-48.5 -165t-23.5 -180zM524 1708v10q2 33 21.5 54.5t43 25.5t44 -11 t24.5 -52v-11q-6 -29 -24.5 -46t-39 -21t-41 8t-28.5 43zM879 1706v10q2 33 21.5 54.5t43 25.5t44 -11.5t24.5 -51.5v-11q-6 -29 -24.5 -46t-39 -21t-41 8t-28.5 43z" />
<glyph unicode="&#xc5;" horiz-adv-x="1402" d="M-8.5 715.5q2.5 21.5 17 32t37 11.5t40.5 0t26.5 -2t-3.5 3l110 -4q12 94 32.5 187t55.5 187q43 115 110.5 187t148.5 107.5t170 35.5t176 -30.5t165 -91t137 -146.5q35 -51 59.5 -139t42 -195.5t26 -226.5t11.5 -228.5t0 -201.5t-10 -150q-10 -39 -34.5 -53t-49 -10 t-40 26.5t-5.5 57.5q12 156 22.5 316.5t2.5 340.5q-106 4 -226 -2t-242 -18.5t-239.5 -26.5t-222.5 -29h-4q-4 -80 -2 -159.5t6 -154.5t8.5 -142.5t6.5 -122.5q-6 -29 -24.5 -46.5t-39 -21.5t-41 8.5t-29.5 42.5q2 147 3.5 293t13.5 289q-57 -8 -116 -7.5t-79 25.5 q-23 37 -20.5 58.5zM311 754h4q102 0 219 12t236 29.5t235.5 36t221.5 30.5q-10 80 -30.5 151.5t-51.5 127.5q-41 72 -106.5 128t-144.5 86.5t-163 28.5t-160 -47q-66 -39 -111.5 -100t-76.5 -138t-48.5 -165t-23.5 -180zM552 1743q15 43 50 81t83 63.5t94 27.5t85 -25.5 t58 -97.5q6 -31 4 -67.5t-16.5 -69.5t-42 -54.5t-70.5 -19.5q-111 -2 -168.5 21.5t-74.5 60.5t-2 80zM642 1731.5q-3 -19.5 22 -40t86 -34.5q39 -10 63.5 6t25.5 41t-22.5 49.5t-81.5 34.5q-39 -6 -64.5 -21.5t-28.5 -35z" />
<glyph unicode="&#xc6;" horiz-adv-x="1474" d="M-8.5 715.5q2.5 21.5 17 32t37 11.5t40.5 0t26.5 -2t-3.5 3l110 -4q12 94 27.5 189t60.5 185q47 94 107.5 167t171 118t290 58.5t463.5 -9.5q10 8 23 11q8 0 14 -1t15 -4q35 -2 50 -17t12 -33.5t-20.5 -36t-48.5 -23.5q-8 0 -15 -1t-15 -1t-17 4q-84 6 -140 13 t-106.5 11.5t-106.5 4.5t-140 -7q-2 -66 -5 -140.5t-5.5 -151t-3.5 -151.5t1 -138q57 -8 101.5 -10t83.5 1t76.5 12t83.5 23q37 10 58 -1t26.5 -32.5t-7 -45t-43.5 -37.5q-68 0 -109.5 3t-76.5 3t-77 -5t-109 -22q4 -80 8 -149.5t7 -137t7 -136t10 -148.5q174 -12 292 -8 t200 26q35 0 56.5 2t31.5 -1t10 -15t-6 -43q-16 -47 -82.5 -55.5t-163 -5t-210 6.5t-226.5 -22q-25 6 -37 20.5t-13 31t7 35t23 30.5q4 31 6 91t0 138t-5 168t-8 185q-117 -10 -227 -24.5t-209 -27.5h-4q-4 -80 -2 -159.5t6 -154.5t8.5 -142.5t6.5 -122.5 q-6 -29 -24.5 -46.5t-39 -21.5t-41 8.5t-29.5 42.5q2 147 3.5 293t13.5 289q-57 -8 -115.5 -7t-79.5 25q-23 37 -20.5 58.5zM311 754h4q98 -2 206 8t220 26q-4 86 -4 173.5t1 165t2 139t-3 96.5q-94 10 -172 -44t-134 -144.5t-88 -202t-32 -217.5z" />
<glyph unicode="&#xc7;" horiz-adv-x="1292" d="M16.5 584.5q-10.5 156.5 28.5 306t124 273.5t216 190q104 53 219 71.5t228.5 -9t217 -105.5t183.5 -219q2 -33 -13.5 -56.5t-38 -32t-46 2t-33.5 47.5q-47 121 -135 183t-188.5 81.5t-197 4.5t-161.5 -50q-88 -47 -152.5 -123t-105.5 -168t-58.5 -191.5t-11.5 -193.5 q6 -96 40 -186.5t93.5 -160t142.5 -111.5t189 -44q8 0 59.5 -3t129 15.5t174 67.5t196.5 154q12 27 32.5 42t41 15t37 -15.5t20.5 -47.5q-47 -98 -136 -163t-191.5 -104t-204 -54t-174.5 -13q-166 6 -280 93t-174 217t-70.5 286.5zM504 31q-4 6 3 18t24.5 19.5t46 4.5 t69.5 -28q2 -35 -6 -70.5t-18 -66.5q96 4 149 -17.5t70.5 -57.5t3 -79t-52 -81t-97 -64.5t-131.5 -28.5q-35 8 -47 31.5t-6 47.5t28.5 42t55.5 16q104 2 140 26t21.5 47.5t-68.5 34.5t-132 -7q-37 12 -37 53q12 63 12 131q0 -4 -1 -5t-1 -3q0 -4 -1 5t-3 13q0 2 -4 2 q-6 4 -10 8.5t-8 8.5z" />
<glyph unicode="&#xc8;" d="M-13 1307.5q3 21.5 19.5 41t42.5 27.5l43 -4q16 4 33 -4q182 -16 361.5 -12t369.5 22q10 8 23 11q8 0 14 -1.5l14 -3.5q35 -2 50.5 -20t12.5 -41t-20.5 -43t-48.5 -27q-8 0 -15 -1t-16 -1q-8 0 -16 4q-168 12 -350 10.5t-350 -16.5q-2 -66 -3 -107.5t-1 -77.5t2 -77 t4 -104q57 -8 129.5 -10.5t145.5 1t139.5 12.5t111.5 23q37 10 58.5 -1t26.5 -32.5t-7 -45t-43 -37.5q-68 0 -137.5 3t-140 3t-140.5 -5.5t-137 -21.5q10 -160 20.5 -330t22.5 -329q86 -6 186.5 -8.5t195.5 -0.5t173 8.5t119 18.5q35 0 56 2t31.5 -1t10.5 -15.5t-6 -42.5 q-10 -31 -58.5 -44.5t-119 -16.5t-159.5 0t-181.5 5t-182.5 -1t-164 -19q-25 6 -37 20.5t-13 31t7.5 34.5t22.5 31q6 43 6 129t-3 194.5t-9 228t-13.5 230.5t-15.5 201t-14 141q-29 8 -41 27.5t-9 41zM246 1806q-4 27 8 48.5t37.5 31.5t56.5 -2q78 -70 170 -128t189 -120 q33 -14 41 -39.5t-2.5 -48t-34 -38t-56.5 -7.5q-43 37 -86 77t-88 75t-95 62.5t-107 41.5q-29 20 -33 47z" />
<glyph unicode="&#xc9;" d="M-13 1307.5q-3 -21.5 9 -41t41 -27.5q6 -51 14 -141t15.5 -201t13.5 -230.5t9 -228t3 -194.5t-6 -129q-14 -12 -22.5 -30.5t-7.5 -35t13 -31t37 -20.5q74 16 164 19t182.5 1t181.5 -5t159.5 0t119 16.5t58.5 44.5q6 31 6 43t-10.5 15t-32 1t-55.5 -2q-41 -12 -119 -18.5 t-173 -8.5t-195.5 0t-186.5 9q-12 160 -22.5 329.5t-20.5 329.5q68 16 137.5 21.5t140 5.5t140 -3t137.5 -3q31 14 43 37.5t7 45t-26.5 33t-58.5 0.5q-45 -14 -111.5 -23t-139.5 -12.5t-145.5 -1.5t-129.5 11q-2 63 -4 104t-2 77t1 78t3 107q168 14 350 16.5t350 -10.5 q8 -4 16 -4t15.5 1t15.5 1q31 6 48.5 26.5t20.5 43.5t-12.5 41t-50.5 20l-14 3.5t-14 1.5q-12 -2 -23 -11q-190 -18 -369.5 -22t-361.5 12q-16 8 -33 4l-43 4q-27 -8 -43 -27.5t-19 -41zM248 1596.5q8 25.5 41 39.5q96 61 188 120t170 128q31 12 56.5 2t38 -31.5t8.5 -48.5 t-33 -47q-59 -14 -108.5 -41.5t-94.5 -62.5t-88 -75t-86 -77q-33 -8 -56.5 7.5t-33.5 38t-2 48z" />
<glyph unicode="&#xca;" d="M-13 1307.5q3 21.5 19.5 41t42.5 27.5l43 -4q16 4 33 -4q182 -16 361.5 -12t369.5 22q10 8 23 11q8 0 14 -1.5l14 -3.5q35 -2 50.5 -20t12.5 -41t-20.5 -43t-48.5 -27q-8 0 -15 -1t-16 -1q-8 0 -16 4q-168 12 -350 10.5t-350 -16.5q-2 -66 -3 -107.5t-1 -77.5t2 -77 t4 -104q57 -8 129.5 -10.5t145.5 1t139.5 12.5t111.5 23q37 10 58.5 -1t26.5 -32.5t-7 -45t-43 -37.5q-68 0 -137.5 3t-140 3t-140.5 -5.5t-137 -21.5q10 -160 20.5 -330t22.5 -329q86 -6 186.5 -8.5t195.5 -0.5t173 8.5t119 18.5q35 0 56 2t31.5 -1t10.5 -15.5t-6 -42.5 q-10 -31 -58.5 -44.5t-119 -16.5t-159.5 0t-181.5 5t-182.5 -1t-164 -19q-25 6 -37 20.5t-13 31t7.5 34.5t22.5 31q6 43 6 129t-3 194.5t-9 228t-13.5 230.5t-15.5 201t-14 141q-29 8 -41 27.5t-9 41zM133 1541.5q-4 21.5 5 45t34 39.5q127 164 211 222.5t150.5 39 t131 -102.5t154.5 -200l-4 -6q-16 -27 -36.5 -39t-53.5 -4q-33 27 -56.5 65.5t-48 78.5t-52 76t-68.5 56q-41 -33 -76 -74.5t-68.5 -85.5t-69.5 -84t-79 -71q-33 -4 -51.5 9.5t-22.5 35z" />
<glyph unicode="&#xcb;" d="M-13 1307.5q3 21.5 19.5 41t42.5 27.5l43 -4q16 4 33 -4q182 -16 361.5 -12t369.5 22q10 8 23 11q8 0 14 -1.5l14 -3.5q35 -2 50.5 -20t12.5 -41t-20.5 -43t-48.5 -27q-8 0 -15 -1t-16 -1q-8 0 -16 4q-168 12 -350 10.5t-350 -16.5q-2 -66 -3 -107.5t-1 -77.5t2 -77 t4 -104q57 -8 129.5 -10.5t145.5 1t139.5 12.5t111.5 23q37 10 58.5 -1t26.5 -32.5t-7 -45t-43 -37.5q-68 0 -137.5 3t-140 3t-140.5 -5.5t-137 -21.5q10 -160 20.5 -330t22.5 -329q86 -6 186.5 -8.5t195.5 -0.5t173 8.5t119 18.5q35 0 56 2t31.5 -1t10.5 -15.5t-6 -42.5 q-10 -31 -58.5 -44.5t-119 -16.5t-159.5 0t-181.5 5t-182.5 -1t-164 -19q-25 6 -37 20.5t-13 31t7.5 34.5t22.5 31q6 43 6 129t-3 194.5t-9 228t-13.5 230.5t-15.5 201t-14 141q-29 8 -41 27.5t-9 41zM276 1708v10q2 33 21.5 54.5t43.5 25.5t44.5 -11t24.5 -52v-11 q-6 -29 -24.5 -46t-39 -21t-41 8t-29.5 43zM631 1706v10q2 33 21.5 54.5t43 25.5t44 -11.5t24.5 -51.5v-11q-6 -29 -24.5 -46t-39 -21t-41 8t-28.5 43z" />
<glyph unicode="&#xcc;" horiz-adv-x="901" d="M5 99.5q3 21.5 19.5 41t43.5 27.5q70 -6 114.5 -11t79.5 -8.5t66.5 -5.5t72.5 -2q-2 14 5 35q0 12 4 42t9 63.5t10 63.5l7 42q14 125 17.5 233.5t-2 215t-15.5 217t-22 241.5q-76 -10 -156 -21t-166 -24q-31 8 -44 27.5t-10 41t19.5 41t42.5 27.5q51 -18 117 -19 t139.5 10.5t152.5 28.5t157 34q12 8 20 10h6q33 -2 48.5 -18.5t16.5 -38t-12.5 -43t-37.5 -33.5h-23v-4h-6q-4 0 -6 1t-4 1q-61 0 -125 -6q-12 -147 -11.5 -293t3 -291t3.5 -290.5t-12 -291.5q10 0 56.5 6.5t97.5 12.5t93 11l42 5q20 6 31.5 -12.5t10.5 -45t-16.5 -51 t-47.5 -26.5h-7h-4q-184 23 -360.5 14.5t-362.5 -26.5q-31 8 -44 27.5t-10 41zM188 1806q-4 27 8.5 48.5t38 31.5t56.5 -2q78 -70 170 -128t188 -120q33 -14 41 -39.5t-2 -48t-33.5 -38t-56.5 -7.5q-43 37 -86 77t-88 75t-95.5 62.5t-107.5 41.5q-29 20 -33 47z" />
<glyph unicode="&#xcd;" horiz-adv-x="901" d="M5 99.5q-3 -21.5 10 -41t44 -27.5q186 18 362.5 26.5t360.5 -14.5h4h7q33 2 48 26.5t16 51t-10 45t-32 12.5l-42 -5t-93 -11t-97 -12.5t-57 -6.5q12 145 11.5 291t-3 291t-3.5 290.5t12 293.5q63 6 125 6q2 0 4 -1t6 -1h6v4h23q25 12 38 33.5t12 43t-16.5 38t-48.5 18.5 h-6q-8 -2 -20 -10q-78 -16 -157 -33.5t-152.5 -29t-139 -10.5t-117.5 19q-27 -8 -43 -27.5t-19 -41t10 -41t44 -27.5q86 12 166 23.5t156 21.5q12 -131 22 -241.5t15.5 -217t2.5 -215t-18 -233.5l-7 -42t-10 -63.5t-9 -63.5t-4 -42q-6 -20 -5 -35q-41 0 -72.5 2t-66.5 5.5 t-80 8.5t-114 11q-27 -8 -43.5 -27.5t-19.5 -41zM190.5 1596.5q8.5 25.5 40.5 39.5q96 61 188.5 120t170.5 128q31 12 56.5 2t37.5 -31.5t8 -48.5t-33 -47q-59 -14 -108 -41.5t-94 -62.5t-88 -75t-86 -77q-33 -8 -56.5 7.5t-34 38t-2 48z" />
<glyph unicode="&#xce;" horiz-adv-x="901" d="M5 99.5q3 21.5 19.5 41t43.5 27.5q70 -6 114.5 -11t79.5 -8.5t66.5 -5.5t72.5 -2q-2 14 5 35q0 12 4 42t9 63.5t10 63.5l7 42q14 125 17.5 233.5t-2 215t-15.5 217t-22 241.5q-76 -10 -156 -21t-166 -24q-31 8 -44 27.5t-10 41t19.5 41t42.5 27.5q51 -18 117 -19 t139.5 10.5t152.5 28.5t157 34q12 8 20 10h6q33 -2 48.5 -18.5t16.5 -38t-12.5 -43t-37.5 -33.5h-23v-4h-6q-4 0 -6 1t-4 1q-61 0 -125 -6q-12 -147 -11.5 -293t3 -291t3.5 -290.5t-12 -291.5q10 0 56.5 6.5t97.5 12.5t93 11l42 5q20 6 31.5 -12.5t10.5 -45t-16.5 -51 t-47.5 -26.5h-7h-4q-184 23 -360.5 14.5t-362.5 -26.5q-31 8 -44 27.5t-10 41zM74 1541.5q-4 21.5 5 45t34 39.5q127 164 211 222.5t150.5 39t131 -102.5t154.5 -200l-4 -6q-16 -27 -37 -39t-53 -4q-33 27 -56.5 65.5t-48 78.5t-52.5 76t-69 56q-41 -33 -75.5 -74.5 t-68.5 -85.5t-70 -84t-79 -71q-33 -4 -51 9.5t-22 35z" />
<glyph unicode="&#xcf;" horiz-adv-x="901" d="M5 99.5q3 21.5 19.5 41t43.5 27.5q70 -6 114.5 -11t79.5 -8.5t66.5 -5.5t72.5 -2q-2 14 5 35q0 12 4 42t9 63.5t10 63.5l7 42q14 125 17.5 233.5t-2 215t-15.5 217t-22 241.5q-76 -10 -156 -21t-166 -24q-31 8 -44 27.5t-10 41t19.5 41t42.5 27.5q51 -18 117 -19 t139.5 10.5t152.5 28.5t157 34q12 8 20 10h6q33 -2 48.5 -18.5t16.5 -38t-12.5 -43t-37.5 -33.5h-23v-4h-6q-4 0 -6 1t-4 1q-61 0 -125 -6q-12 -147 -11.5 -293t3 -291t3.5 -290.5t-12 -291.5q10 0 56.5 6.5t97.5 12.5t93 11l42 5q20 6 31.5 -12.5t10.5 -45t-16.5 -51 t-47.5 -26.5h-7h-4q-184 23 -360.5 14.5t-362.5 -26.5q-31 8 -44 27.5t-10 41zM166 1708v10q2 33 21.5 54.5t43 25.5t44 -11t24.5 -52v-11q-6 -29 -24.5 -46t-39 -21t-41 8t-28.5 43zM520 1706v10q2 33 21.5 54.5t43 25.5t44 -11.5t24.5 -51.5v-11q-6 -29 -24.5 -46t-39 -21 t-41 8t-28.5 43z" />
<glyph unicode="&#xd0;" horiz-adv-x="1167" d="M-198 623.5q3 21.5 19.5 41t43.5 27.5q51 -4 101 -5t102 3q-12 117 -26.5 255t-31.5 310q-6 14 -2 37q-2 16 -3 31.5t-1 32.5q2 33 18.5 51t38 22.5t43 -4t33.5 -26.5q4 -4 1 -8.5t-3 -8.5q125 0 225.5 -5t194.5 -28.5t189.5 -71.5t207.5 -134q63 -47 103.5 -119t59 -156 t14 -174t-29 -173t-70.5 -152.5t-111 -112.5q-39 -27 -76 -55.5t-82 -44.5q-72 -25 -162 -51.5t-183 -46t-185.5 -31t-170.5 -4.5q-31 10 -43 28.5t-12 48.5q2 10 2 27q12 31 38 45t48 10q4 94 0 195.5t-16 222.5q-53 -14 -107.5 -25.5t-111.5 -19.5q-31 8 -44.5 27.5 t-10.5 41zM127 1249q0 -45 2 -108.5t6 -136t9.5 -151.5t11.5 -157q61 6 123 19q104 20 205.5 46.5t207.5 43.5q37 -2 53.5 -21.5t13.5 -44t-22.5 -46t-52.5 -25.5q-100 4 -199.5 2t-199.5 -23l-121 -26q4 -33 8 -63.5t8 -59.5q14 -86 23.5 -171t15.5 -171q82 2 176 15 t185.5 35.5t168 52.5t123.5 67q88 70 135.5 168t50.5 201.5t-37 202.5t-126 175q-82 74 -174 113t-190.5 55t-201 15t-202.5 -7z" />
<glyph unicode="&#xd1;" horiz-adv-x="1142" d="M-7 1273q-1 75 9 113.5t35 30.5q29 14 44 -15.5t24.5 -88t11.5 -133t3 -150.5t2 -141.5t7 -104.5q6 49 14.5 108.5t21.5 120t33.5 116t49.5 94.5q49 68 119.5 113.5t150.5 66t162 13.5t151 -46q66 -27 117 -124t86 -231t54.5 -290t21.5 -298t-12.5 -256t-44.5 -165 q-27 -45 -52.5 -41t-35.5 58l-7 14q20 55 33 149.5t17 207t-1.5 236.5t-24.5 239.5t-53 215t-83 164.5q-55 66 -131 83.5t-156 -3t-151.5 -72t-116.5 -120.5q-45 -72 -73 -162t-38 -216t-4 -293t29 -390q0 -16 -12.5 -30.5t-29 -18.5t-33.5 3t-26 33q-2 2 -2 7v2 q2 59 -4 151t-18 200.5t-26.5 227.5t-28 232.5t-22.5 214t-10 175.5zM213 1631.5q-10 23.5 4 58.5q16 29 48 69.5t71 70.5t82 37t82 -30q25 -23 43 -51.5t35.5 -58t38 -55t49.5 -42.5q31 8 43 35t15 56.5t0 52t-3 26.5q2 33 21.5 54.5t43 25.5t44 -11.5t24.5 -51.5 q-2 -35 -11 -76t-26.5 -80t-44.5 -69.5t-65 -41.5q-8 -2 -33 -7t-37 1q-29 16 -55.5 52t-51 72t-47 64.5t-46 32.5t-49 -23.5t-52.5 -103.5q-18 -31 -44 -40t-47.5 0.5t-31.5 33z" />
<glyph unicode="&#xd2;" horiz-adv-x="1161" d="M-5 659.5q5 133.5 47 262.5t114.5 236.5t174 182t226.5 97.5q92 16 172 -14.5t144.5 -94t114.5 -155t83 -194.5t49.5 -212t14.5 -211t-22.5 -189.5t-59.5 -146.5q-43 -74 -113 -124t-155 -76.5t-177 -29.5t-179 17.5t-164 62.5t-128 107q-78 98 -112.5 223t-29.5 258.5z M77 611.5q9 -115.5 54 -221t131 -183.5q63 -57 163.5 -81t206 -15.5t201 47.5t146.5 104q49 66 65.5 175.5t3 233.5t-54.5 247.5t-106.5 219t-153.5 147.5t-192 32q-119 -23 -210 -92.5t-150.5 -168t-86 -214t-17.5 -231zM311 1806q-4 27 8.5 48.5t38 31.5t56.5 -2 q78 -70 170 -128t188 -120q33 -14 41 -39.5t-2 -48t-33.5 -38t-56.5 -7.5q-43 37 -86 77t-88 75t-95.5 62.5t-107.5 41.5q-29 20 -33 47z" />
<glyph unicode="&#xd3;" horiz-adv-x="1161" d="M-5 659.5q-5 -133.5 29.5 -258.5t112.5 -223q51 -66 128 -107.5t164 -62t179 -17.5t177 29.5t155 76.5t113 124q39 59 59.5 146.5t22.5 189.5t-14.5 211t-49.5 212t-83 194.5t-114.5 155t-144.5 94t-172 14.5q-125 -23 -226.5 -97.5t-174 -182t-114.5 -236.5t-47 -262.5z M77 611.5q-9 115.5 17.5 231t86 214t150.5 168t210 92.5q104 20 192 -32t153.5 -147.5t106.5 -219t54.5 -247.5t-3 -233.5t-65.5 -175.5q-51 -66 -146.5 -104.5t-201 -47t-206 15.5t-163.5 81q-86 78 -131 183.5t-54 221zM313.5 1596.5q8.5 25.5 40.5 39.5q96 61 188.5 120 t170.5 128q31 12 56.5 2t37.5 -31.5t8 -48.5t-33 -47q-59 -14 -108 -41.5t-94 -62.5t-88 -75t-86 -77q-33 -8 -56.5 7.5t-34 38t-2 48z" />
<glyph unicode="&#xd4;" horiz-adv-x="1161" d="M-5 659.5q5 133.5 47 262.5t114.5 236.5t174 182t226.5 97.5q92 16 172 -14.5t144.5 -94t114.5 -155t83 -194.5t49.5 -212t14.5 -211t-22.5 -189.5t-59.5 -146.5q-43 -74 -113 -124t-155 -76.5t-177 -29.5t-179 17.5t-164 62.5t-128 107q-78 98 -112.5 223t-29.5 258.5z M77 611.5q9 -115.5 54 -221t131 -183.5q63 -57 163.5 -81t206 -15.5t201 47.5t146.5 104q49 66 65.5 175.5t3 233.5t-54.5 247.5t-106.5 219t-153.5 147.5t-192 32q-119 -23 -210 -92.5t-150.5 -168t-86 -214t-17.5 -231zM235.5 1541.5q-4.5 21.5 5 45t33.5 39.5 q127 164 211 222.5t150.5 39t131 -102.5t155.5 -200l-4 -6q-16 -27 -37 -39t-54 -4q-33 27 -56 65.5t-48 78.5t-52.5 76t-68.5 56q-41 -33 -75.5 -74.5t-68.5 -85.5t-70 -84t-79 -71q-33 -4 -51 9.5t-22.5 35z" />
<glyph unicode="&#xd5;" horiz-adv-x="1161" d="M-5 659.5q5 133.5 47 262.5t114.5 236.5t174 182t226.5 97.5q92 16 172 -14.5t144.5 -94t114.5 -155t83 -194.5t49.5 -212t14.5 -211t-22.5 -189.5t-59.5 -146.5q-43 -74 -113 -124t-155 -76.5t-177 -29.5t-179 17.5t-164 62.5t-128 107q-78 98 -112.5 223t-29.5 258.5z M77 611.5q9 -115.5 54 -221t131 -183.5q63 -57 163.5 -81t206 -15.5t201 47.5t146.5 104q49 66 65.5 175.5t3 233.5t-54.5 247.5t-106.5 219t-153.5 147.5t-192 32q-119 -23 -210 -92.5t-150.5 -168t-86 -214t-17.5 -231zM229.5 1631.5q-10.5 23.5 3.5 58.5q16 29 48 69.5 t71 70.5t82 37t82 -30q25 -23 43.5 -51.5t35.5 -58t37.5 -55t49.5 -42.5q31 8 43 35t15 56.5t0 52t-3 26.5q2 33 21.5 54.5t43 25.5t44 -11.5t24.5 -51.5q-2 -35 -11 -76t-26.5 -80t-44 -69.5t-65.5 -41.5q-8 -2 -32.5 -7t-37.5 1q-29 16 -55.5 52t-51 72t-47 64.5t-46 32.5 t-49 -23.5t-52.5 -103.5q-18 -31 -43.5 -40t-47 0.5t-32 33z" />
<glyph unicode="&#xd6;" horiz-adv-x="1161" d="M-5 659.5q5 133.5 47 262.5t114.5 236.5t174 182t226.5 97.5q92 16 172 -14.5t144.5 -94t114.5 -155t83 -194.5t49.5 -212t14.5 -211t-22.5 -189.5t-59.5 -146.5q-43 -74 -113 -124t-155 -76.5t-177 -29.5t-179 17.5t-164 62.5t-128 107q-78 98 -112.5 223t-29.5 258.5z M77 611.5q9 -115.5 54 -221t131 -183.5q63 -57 163.5 -81t206 -15.5t201 47.5t146.5 104q49 66 65.5 175.5t3 233.5t-54.5 247.5t-106.5 219t-153.5 147.5t-192 32q-119 -23 -210 -92.5t-150.5 -168t-86 -214t-17.5 -231zM289 1708v10q2 33 21.5 54.5t43 25.5t44 -11 t24.5 -52v-11q-6 -29 -24.5 -46t-39 -21t-41 8t-28.5 43zM643 1706v10q2 33 21.5 54.5t43 25.5t44 -11.5t24.5 -51.5v-11q-6 -29 -24.5 -46t-39 -21t-41 8t-28.5 43z" />
<glyph unicode="&#xd7;" horiz-adv-x="638" d="M10 883.5q-6 23.5 2 44t29.5 35t50.5 12.5q63 -35 107.5 -86t93.5 -103q41 35 76.5 77.5t72.5 99.5q27 18 51.5 16t38 -16.5t15.5 -39t-12 -51.5q-45 -35 -92.5 -67.5t-94.5 -67.5q55 -47 113.5 -86t122.5 -73q25 -25 24.5 -52.5t-15.5 -48t-42 -27t-55 14.5 q-45 47 -96.5 107.5t-108.5 115.5l-2 -2q-57 -55 -85 -88t-40 -49.5t-13 -21.5t-3.5 -8t-10.5 -6t-33 -15q-29 -4 -46 5t-24 25.5t-5 36t12 35.5q-10 -6 -17.5 -8t-0.5 2q59 43 110 77t98 68q-45 37 -93 64.5t-97 38.5q-25 18 -31 41.5z" />
<glyph unicode="&#xd8;" horiz-adv-x="1161" d="M-5 659.5q5 133.5 47 262.5t114.5 236.5t174 182t226.5 97.5q63 10 119.5 -0.5t105.5 -38.5l56 168q14 31 39.5 43t49 7t37 -25.5t3.5 -57.5l-90 -211q63 -63 112 -154.5t82 -194t49.5 -211t14.5 -209.5t-22.5 -187t-59.5 -146q-45 -78 -120 -129t-164 -76.5 t-186.5 -24.5t-187.5 25q-16 -45 -29.5 -89t-27.5 -87q-16 -25 -40 -35t-44.5 -6t-34.5 22.5t-12 51.5l80 186q-90 43 -150 119q-78 98 -112.5 223t-29.5 258.5zM77 611.5q9 -115.5 54 -221t131 -183.5q25 -25 66 -45q111 268 217 556t198 562q-47 27 -97 37t-105 0 q-119 -23 -210 -92.5t-150.5 -168t-86 -214t-17.5 -231zM432 125q72 -16 152 -15t155.5 18t138 51t101.5 83q37 47 55.5 120t20.5 159t-12.5 179t-44 182t-71.5 168t-98 136q-104 -262 -205.5 -540.5t-191.5 -540.5z" />
<glyph unicode="&#xd9;" horiz-adv-x="1052" d="M10 655.5q0 61.5 1 139t2 162.5t1 163t1 138.5t1 91.5q2 33 19.5 52t39 21t40 -14t22.5 -53q-2 -49 -9 -131t-15.5 -180.5t-13.5 -204t-5 -202.5t6 -179t25 -129q49 -131 130 -200t173 -83t185.5 24t166 119.5t115.5 203.5t37 278q0 4 -4 55t-10.5 126t-14.5 161 t-14 159.5t-11 122.5l-4 50q-8 25 -5 46t14.5 31.5t29 9.5t39.5 -22l-6 8l12 -12q-4 0 -4 4q12 -14 22.5 -73.5t17.5 -140.5t11.5 -174t6.5 -176t3 -147.5t1 -87.5q-2 -131 -37 -249.5t-104.5 -207.5t-172 -138.5t-239.5 -43.5q-129 6 -213 55.5t-135.5 128.5t-75 183 t-27.5 223q-2 31 -2 92.5zM243.5 1806q-3.5 27 8.5 48.5t37.5 31.5t56.5 -2q78 -70 170 -128t189 -120q33 -14 41 -39.5t-2.5 -48t-34 -38t-56.5 -7.5q-43 37 -86 77t-88 75t-95.5 62.5t-107.5 41.5q-29 20 -32.5 47zM944 1421l2 -2z" />
<glyph unicode="&#xda;" horiz-adv-x="1052" d="M10 655.5q0 -61.5 2 -92.5q4 -119 27.5 -223t75 -183t135.5 -128t213 -56q137 -6 239.5 43.5t172 138.5t104.5 207.5t37 249.5q0 23 -1 87.5t-3 147.5t-6.5 176t-11.5 174t-17 140.5t-23 73.5q0 -4 4 -4l-12 12l6 -8q-23 20 -40 21.5t-28.5 -9t-14.5 -32t5 -45.5l4 -50 q5 -49 11 -122.5t14 -159.5t14.5 -161t10.5 -126t4 -55q6 -156 -37 -278t-115.5 -203.5t-166 -119.5t-185.5 -24t-173 83t-130 200q-18 47 -24.5 129t-6.5 179t5 202.5t13.5 204t15.5 180.5t9 131q-4 37 -22.5 53t-40 14t-39 -21t-19.5 -52q0 -31 -1 -91.5t-1 -138.5 t-1 -163t-2 -162.5t-1 -139zM297 1596.5q8 25.5 41 39.5q96 61 188 120t170 128q31 12 56.5 2t38 -31.5t8.5 -48.5t-33 -47q-59 -14 -108.5 -41.5t-94.5 -62.5t-88 -75t-86 -77q-33 -8 -56.5 7.5t-33.5 38t-2 48zM944 1421l2 -2z" />
<glyph unicode="&#xdb;" horiz-adv-x="1052" d="M10 655.5q0 61.5 1 139t2 162.5t1 163t1 138.5t1 91.5q2 33 19.5 52t39 21t40 -14t22.5 -53q-2 -49 -9 -131t-15.5 -180.5t-13.5 -204t-5 -202.5t6 -179t25 -129q49 -131 130 -200t173 -83t185.5 24t166 119.5t115.5 203.5t37 278q0 4 -4 55t-10.5 126t-14.5 161 t-14 159.5t-11 122.5l-4 50q-8 25 -5 46t14.5 31.5t29 9.5t39.5 -22l-6 8l12 -12q-4 0 -4 4q12 -14 22.5 -73.5t17.5 -140.5t11.5 -174t6.5 -176t3 -147.5t1 -87.5q-2 -131 -37 -249.5t-104.5 -207.5t-172 -138.5t-239.5 -43.5q-129 6 -213 55.5t-135.5 128.5t-75 183 t-27.5 223q-2 31 -2 92.5zM166 1541.5q-4 21.5 5 45t34 39.5q127 164 211 222.5t150.5 39t131 -102.5t154.5 -200l-4 -6q-16 -27 -36.5 -39t-53.5 -4q-33 27 -56.5 65.5t-48 78.5t-52.5 76t-69 56q-41 -33 -75.5 -74.5t-68.5 -85.5t-69.5 -84t-78.5 -71q-33 -4 -51.5 9.5 t-22.5 35zM944 1421l2 -2z" />
<glyph unicode="&#xdc;" horiz-adv-x="1052" d="M10 655.5q0 61.5 1 139t2 162.5t1 163t1 138.5t1 91.5q2 33 19.5 52t39 21t40 -14t22.5 -53q-2 -49 -9 -131t-15.5 -180.5t-13.5 -204t-5 -202.5t6 -179t25 -129q49 -131 130 -200t173 -83t185.5 24t166 119.5t115.5 203.5t37 278q0 4 -4 55t-10.5 126t-14.5 161 t-14 159.5t-11 122.5l-4 50q-8 25 -5 46t14.5 31.5t29 9.5t39.5 -22l-6 8l12 -12q-4 0 -4 4q12 -14 22.5 -73.5t17.5 -140.5t11.5 -174t6.5 -176t3 -147.5t1 -87.5q-2 -131 -37 -249.5t-104.5 -207.5t-172 -138.5t-239.5 -43.5q-129 6 -213 55.5t-135.5 128.5t-75 183 t-27.5 223q-2 31 -2 92.5zM242 1708v10q2 33 21.5 54.5t43 25.5t44 -11t24.5 -52v-11q-6 -29 -24.5 -46t-39 -21t-41 8t-28.5 43zM596 1706v10q2 33 21.5 54.5t43 25.5t44 -11.5t24.5 -51.5v-11q-6 -29 -24.5 -46t-39 -21t-41 8t-28.5 43zM944 1421l2 -2z" />
<glyph unicode="&#xdd;" d="M20.5 446.5q4.5 -94.5 26.5 -163.5q25 -76 78 -118t123.5 -55.5t152.5 0t165 46t161 84t137 114.5q0 -29 1 -73.5t0 -93t-3 -92.5t-8 -70q-18 -90 -65.5 -144.5t-107.5 -83t-126 -37t-123 -5.5t-98 13.5t-51 16.5q-29 12 -52.5 5t-37 -25.5t-14.5 -43t16 -49.5 q70 -23 150.5 -33t161.5 -3.5t157.5 31t137 70.5t100.5 115.5t48 165.5q4 59 10.5 165t10.5 233t5 265t-2 264t-13.5 229.5t-28.5 160.5q-18 20 -38 12t-30 -30q-4 -20 -6 -77.5t-2 -135.5t1 -168t2 -178t2 -167t1 -130q-12 -23 -29.5 -42.5t-46.5 -43.5 q-68 -55 -159.5 -102.5t-183 -62.5t-172.5 11.5t-128 118.5q-27 68 -29.5 160t7.5 193.5t29.5 206t39 195.5t37 162.5t21.5 110.5q-4 33 -20.5 48.5t-37 15.5t-41 -15.5t-32.5 -42.5q-4 -51 -17.5 -132t-29 -179t-28.5 -205.5t-19.5 -212t-2 -199zM325.5 1596.5 q8.5 25.5 41.5 39.5q96 61 188 120t170 128q31 12 56.5 2t37.5 -31.5t8.5 -48.5t-32.5 -47q-59 -14 -108.5 -41.5t-94.5 -62.5t-88 -75t-86 -77q-33 -8 -56.5 7.5t-34 38t-2 48z" />
<glyph unicode="&#xde;" d="M43 1599q2 33 21.5 54.5t43 25.5t44 -11t24.5 -52q-10 -254 -6 -551q70 31 160 33t181 -13.5t174 -45t138 -62.5q109 -88 125.5 -171t-29 -157t-136.5 -133t-197.5 -99t-213 -58.5t-182.5 -6.5l31 -598q-6 -29 -24.5 -46t-39 -21t-41 8t-28.5 43q8 205 7 445.5t-8 487.5 t-19.5 485t-24.5 443zM172 924l12 -420q25 -4 37 -19q57 -10 118.5 -9t120 10.5t113 26.5t97.5 40q59 31 106 74t64.5 91t-4 96t-99.5 91q-47 27 -92 42.5t-89 22.5t-92 8t-102 -1q-20 0 -45.5 -5t-51 -11.5t-48 -15.5t-35.5 -19q-4 -2 -10 -2z" />
<glyph unicode="&#xdf;" horiz-adv-x="1267" d="M54 484q-1 132 11.5 263.5t50.5 250t110.5 218t195.5 166.5q86 47 160.5 42t132 -48t93.5 -113.5t44 -154.5t-15.5 -174t-84.5 -168q45 4 94 4t96 -7t90 -25.5t78 -53.5q94 -88 109.5 -190.5t-25.5 -197.5t-124 -173t-184.5 -120t-208 -36t-194.5 78q-8 27 1.5 51.5 t27.5 37.5t42 12t46 -23q102 -47 187 -43t149.5 40t105.5 96t55.5 129t-1 136.5t-63.5 116.5t-132 73.5t-209 6.5l-28 -6q-4 0 -6.5 -1t-4.5 -1q-35 -4 -42 21.5t10 47.5q80 137 106.5 244t13 178.5t-57.5 108.5t-104.5 38t-129 -36t-129 -114t-106.5 -193.5t-62 -274.5 q-16 -174 -7 -350t13 -352q-12 -57 -47 -59.5t-54 61.5q6 109 2 235.5t-5 258.5z" />
<glyph unicode="&#xe0;" d="M-14.5 448.5q-14.5 83.5 3 165.5t68 159t140.5 149q70 53 151.5 75.5t159.5 11t143.5 -57.5t102.5 -132l-25 201q2 18 12.5 32.5t23.5 20.5t27.5 1t24.5 -23h2v-7q29 -111 51.5 -226.5t18.5 -231.5q16 -135 26.5 -270.5t18.5 -270.5l6 -25q0 -6 -1 -12t-1 -12v-10h-2 q-8 -25 -26.5 -40.5t-39 -18.5t-39 9.5t-24.5 43.5l-12 307l-7 -11q-37 -51 -97 -88.5t-133 -59.5t-150.5 -25t-149.5 14.5t-129 57.5t-88 106q-41 84 -55.5 167.5zM86 487q-4 -88 35 -161q16 -29 39.5 -51.5t48.5 -43.5q59 -49 148 -55t176.5 20.5t157.5 82t95 129.5 q-4 66 -7 108.5t-5 70t-6 42t-10 20.5q0 45 -40 98.5t-101.5 92.5t-134 55t-136.5 -8q-72 -23 -130 -86.5t-92 -144.5t-38 -169zM203 1509q-4 27 8 48.5t37.5 31.5t56.5 -2q78 -70 170 -128t189 -120q33 -14 41 -39.5t-2.5 -48t-34 -38t-56.5 -7.5q-43 37 -86 77t-88 75 t-95 62.5t-107 41.5q-29 20 -33 47z" />
<glyph unicode="&#xe1;" d="M-14.5 448.5q14.5 -83.5 55.5 -167.5q31 -66 88 -106t129 -57.5t149.5 -14.5t150.5 25t133.5 59.5t96.5 88.5l7 11l12 -307q6 -31 24.5 -43.5t39 -9.5t39 18.5t26.5 40.5h2v10q0 6 1 12t1 12l-6 25q-8 135 -18.5 270.5t-26.5 270.5q4 117 -18.5 232.5t-51.5 225.5v7h-2 q-10 18 -24.5 23t-27.5 -1t-23.5 -20.5t-12.5 -32.5l25 -201q-37 86 -102.5 132t-143.5 57.5t-159.5 -11t-151.5 -75.5q-90 -72 -140.5 -149t-68 -159t-3 -165.5zM86 487.5q4 87.5 38 168.5t92 144.5t130 86.5q63 25 136 8.5t134.5 -55.5t101.5 -92.5t40 -98.5 q6 -6 10 -20.5t6 -42t5 -70t7 -108.5q-25 -74 -95 -129.5t-157.5 -82t-176.5 -20.5t-148 55q-25 20 -48.5 43t-39.5 52q-39 74 -35 161.5zM205 1299.5q8 25.5 41 39.5q96 61 188 120t170 128q31 12 56.5 2t38 -31.5t8.5 -48.5t-33 -47q-59 -14 -108.5 -41.5t-94.5 -62.5 t-88 -75t-86 -77q-33 -8 -56.5 7.5t-33.5 38t-2 48z" />
<glyph unicode="&#xe2;" d="M-14.5 448.5q-14.5 83.5 3 165.5t68 159t140.5 149q70 53 151.5 75.5t159.5 11t143.5 -57.5t102.5 -132l-25 201q2 18 12.5 32.5t23.5 20.5t27.5 1t24.5 -23h2v-7q29 -111 51.5 -226.5t18.5 -231.5q16 -135 26.5 -270.5t18.5 -270.5l6 -25q0 -6 -1 -12t-1 -12v-10h-2 q-8 -25 -26.5 -40.5t-39 -18.5t-39 9.5t-24.5 43.5l-12 307l-7 -11q-37 -51 -97 -88.5t-133 -59.5t-150.5 -25t-149.5 14.5t-129 57.5t-88 106q-41 84 -55.5 167.5zM86 487q-4 -88 35 -161q16 -29 39.5 -51.5t48.5 -43.5q59 -49 148 -55t176.5 20.5t157.5 82t95 129.5 q-4 66 -7 108.5t-5 70t-6 42t-10 20.5q0 45 -40 98.5t-101.5 92.5t-134 55t-136.5 -8q-72 -23 -130 -86.5t-92 -144.5t-38 -169zM119 1281.5q-4 21.5 5 45t34 39.5q127 164 211 222.5t150.5 39t131 -102.5t154.5 -200l-4 -6q-16 -27 -37 -39t-53 -4q-33 27 -56.5 65.5 t-48 78.5t-52.5 76t-69 56q-41 -33 -75.5 -74.5t-68.5 -85.5t-69.5 -84t-78.5 -71q-33 -4 -51.5 9.5t-22.5 35z" />
<glyph unicode="&#xe3;" d="M-14.5 448.5q-14.5 83.5 3 165.5t68 159t140.5 149q70 53 151.5 75.5t159.5 11t143.5 -57.5t102.5 -132l-25 201q2 18 12.5 32.5t23.5 20.5t27.5 1t24.5 -23h2v-7q29 -111 51.5 -226.5t18.5 -231.5q16 -135 26.5 -270.5t18.5 -270.5l6 -25q0 -6 -1 -12t-1 -12v-10h-2 q-8 -25 -26.5 -40.5t-39 -18.5t-39 9.5t-24.5 43.5l-12 307l-7 -11q-37 -51 -97 -88.5t-133 -59.5t-150.5 -25t-149.5 14.5t-129 57.5t-88 106q-41 84 -55.5 167.5zM86 487q-4 -88 35 -161q16 -29 39.5 -51.5t48.5 -43.5q59 -49 148 -55t176.5 20.5t157.5 82t95 129.5 q-4 66 -7 108.5t-5 70t-6 42t-10 20.5q0 45 -40 98.5t-101.5 92.5t-134 55t-136.5 -8q-72 -23 -130 -86.5t-92 -144.5t-38 -169zM94 1307.5q-10 23.5 4 58.5q16 29 48 70t71 70.5t82 36.5t82 -30q25 -23 43 -51t35.5 -58t38 -55.5t49.5 -41.5q31 8 43 34.5t15 56t0 52.5 t-3 27q2 33 21.5 54t43 25.5t44 -11t24.5 -52.5q-2 -35 -11 -76t-26.5 -80t-44 -69.5t-65.5 -40.5q-8 -2 -33 -7.5t-37 1.5q-31 18 -56.5 53t-50 70.5t-47 64.5t-46 33t-49 -23.5t-52.5 -103.5q-18 -31 -44 -40t-47.5 0t-31.5 32.5z" />
<glyph unicode="&#xe4;" d="M-14.5 448.5q-14.5 83.5 3 165.5t68 159t140.5 149q70 53 151.5 75.5t159.5 11t143.5 -57.5t102.5 -132l-25 201q2 18 12.5 32.5t23.5 20.5t27.5 1t24.5 -23h2v-7q29 -111 51.5 -226.5t18.5 -231.5q16 -135 26.5 -270.5t18.5 -270.5l6 -25q0 -6 -1 -12t-1 -12v-10h-2 q-8 -25 -26.5 -40.5t-39 -18.5t-39 9.5t-24.5 43.5l-12 307l-7 -11q-37 -51 -97 -88.5t-133 -59.5t-150.5 -25t-149.5 14.5t-129 57.5t-88 106q-41 84 -55.5 167.5zM86 487q-4 -88 35 -161q16 -29 39.5 -51.5t48.5 -43.5q59 -49 148 -55t176.5 20.5t157.5 82t95 129.5 q-4 66 -7 108.5t-5 70t-6 42t-10 20.5q0 45 -40 98.5t-101.5 92.5t-134 55t-136.5 -8q-72 -23 -130 -86.5t-92 -144.5t-38 -169zM188 1343v11q2 33 21.5 54.5t43 25.5t44 -11.5t25.5 -52.5v-10q-6 -29 -24.5 -46.5t-39 -21.5t-41 8.5t-29.5 42.5zM543 1341v11q2 33 21.5 54 t43 25.5t44 -11t24.5 -52.5v-10q-6 -29 -24.5 -46.5t-39 -21.5t-41 8.5t-28.5 42.5z" />
<glyph unicode="&#xe5;" d="M-14.5 448.5q-14.5 83.5 3 165.5t68 159t140.5 149q70 53 151.5 75.5t159.5 11t143.5 -57.5t102.5 -132l-25 201q2 18 12.5 32.5t23.5 20.5t27.5 1t24.5 -23h2v-7q29 -111 51.5 -226.5t18.5 -231.5q16 -135 26.5 -270.5t18.5 -270.5l6 -25q0 -6 -1 -12t-1 -12v-10h-2 q-8 -25 -26.5 -40.5t-39 -18.5t-39 9.5t-24.5 43.5l-12 307l-7 -11q-37 -51 -97 -88.5t-133 -59.5t-150.5 -25t-149.5 14.5t-129 57.5t-88 106q-41 84 -55.5 167.5zM86 487q-4 -88 35 -161q16 -29 39.5 -51.5t48.5 -43.5q59 -49 148 -55t176.5 20.5t157.5 82t95 129.5 q-4 66 -7 108.5t-5 70t-6 42t-10 20.5q0 45 -40 98.5t-101.5 92.5t-134 55t-136.5 -8q-72 -23 -130 -86.5t-92 -144.5t-38 -169zM232.5 1376q15.5 43 50 81t83 63.5t94.5 27.5t85 -25.5t57 -97.5q6 -31 4 -67.5t-16.5 -69.5t-42 -54.5t-70.5 -19.5q-111 -2 -168 22 t-74.5 60.5t-2 79.5zM322.5 1365q-3.5 -19 21.5 -40t86 -35q39 -10 63.5 6.5t25.5 41t-22.5 49t-80.5 34.5q-39 -6 -64.5 -21.5t-29 -34.5z" />
<glyph unicode="&#xe6;" horiz-adv-x="1794" d="M-14.5 448.5q-14.5 83.5 3 165.5t67.5 159t141 149q70 53 151.5 75.5t159.5 11t143.5 -57.5t102.5 -132l-25 201q2 18 12.5 32.5t23.5 20.5t27.5 1t24.5 -23h2v-7q16 -59 29.5 -119.5t23.5 -121.5q37 111 108 171t156 78.5t175 -2t165.5 -71.5t128 -131t62.5 -178 q14 -27 5 -47.5t-36 -32.5q-170 -74 -352 -98.5t-364 -38.5q12 -66 36.5 -126.5t59.5 -107.5t82 -77.5t104 -37.5q74 -6 157 26t154.5 67.5t126 57t72.5 -6.5q16 -33 1 -57.5t-46 -43t-71 -33t-72 -26.5q-86 -35 -158 -60.5t-138.5 -27.5t-132 25.5t-139.5 99.5l-15 15 t-13 18l6 -113l6 -25q0 -6 -1 -12t-1 -12v-10h-2q-8 -25 -26.5 -40.5t-39 -18.5t-39 9.5t-24.5 43.5l-12 307l-7 -11q-37 -51 -97 -88.5t-133 -59.5t-150.5 -25t-149.5 14.5t-129 57.5t-88 106q-41 84 -55.5 167.5zM86 487q-4 -88 35 -161q16 -29 39.5 -51.5t48.5 -43.5 q59 -49 148 -55t176.5 20.5t157.5 82t95 129.5q-4 66 -7 108.5t-5 70t-6 42t-10 20.5q0 45 -40 98.5t-101.5 92.5t-134 55t-136.5 -8q-72 -23 -130 -86.5t-92 -144.5t-38 -169zM907 586l2 2q80 8 162 11t162 9t159.5 18.5t157.5 35.5q-20 117 -77.5 189.5t-131 102 t-153.5 19.5t-144.5 -57.5t-104.5 -131.5t-32 -198z" />
<glyph unicode="&#xe7;" horiz-adv-x="913" d="M6 574.5q2 99.5 34 192.5t95.5 160.5t158.5 103.5t224 22q78 -10 137.5 -33t124.5 -70q25 -25 25 -52.5t-15.5 -48t-42 -26.5t-55.5 15q-47 41 -92 66.5t-108 31.5q-143 12 -240.5 -43t-143 -149.5t-37 -211t78.5 -223.5q57 -88 137 -132t166 -46q25 10 51 2 q84 10 158.5 61.5t125.5 143.5q31 20 56.5 16t38 -23.5t9.5 -47t-28 -52.5q-41 -78 -124 -125t-169 -69q2 -35 -6 -71t-18 -66q96 4 149.5 -17.5t70.5 -57.5t3 -79t-52 -81t-97.5 -64.5t-131.5 -28.5q-35 8 -47 31.5t-6 47t28.5 42t55.5 16.5q104 2 140 25.5t22 47t-68.5 35 t-132.5 -6.5q-37 12 -37 53q12 63 13 131q0 -4 -1 -5t-1 -3q0 -4 -1 5t-3 13q-1 2 -5 2q-6 4 -10 8t-8 9q-104 4 -184 54t-133.5 128t-80 174t-24.5 195.5z" />
<glyph unicode="&#xe8;" horiz-adv-x="962" d="M21.5 465q-7.5 96 3 190.5t32.5 161.5q37 111 108 172.5t156 79.5t174 -1t165.5 -71.5t129 -131.5t62.5 -179q14 -27 5 -47.5t-36 -32.5q-170 -74 -352 -98.5t-365 -38.5q12 -66 37 -126t60 -107.5t82 -78t104 -36.5q74 -6 157 25.5t154.5 67.5t126 57.5t72.5 -7.5 q16 -33 1 -57.5t-46 -43t-71 -32.5t-72 -27q-86 -35 -158 -60.5t-138.5 -27.5t-132 26t-139.5 99q-55 53 -83.5 140.5t-36 183.5zM92 602l2 2q80 8 162 11t162 9.5t159.5 18.5t157.5 35q-20 117 -77.5 189.5t-131 102t-153.5 19.5t-144.5 -57t-104.5 -131t-32 -199z M203 1509q-4 27 8 48.5t37.5 31.5t56.5 -2q78 -70 170 -128t189 -120q33 -14 41 -39.5t-2.5 -48t-34 -38t-56.5 -7.5q-43 37 -86 77t-88 75t-95 62.5t-107 41.5q-29 20 -33 47z" />
<glyph unicode="&#xe9;" horiz-adv-x="962" d="M21.5 465q7.5 -96 36 -183t83.5 -141q74 -72 139.5 -99.5t132 -25.5t138.5 28t158 60q33 12 72.5 26.5t70.5 33t46 43t-1 57.5q-18 29 -72.5 7.5t-126 -57.5t-154.5 -67.5t-157 -25.5q-57 6 -104 36.5t-82 78t-59.5 107.5t-37.5 126q182 14 364.5 38.5t352.5 98.5 q27 12 36 32.5t-5 47.5q-10 100 -62.5 179t-129 131.5t-165.5 71.5t-174 1t-156 -79.5t-108 -172.5q-23 -68 -33 -162t-2.5 -190zM92 602q-8 115 32 199t104.5 131t144.5 57t153.5 -19.5t131 -102t77.5 -189.5q-78 -23 -157.5 -35t-159.5 -18.5t-162 -9.5t-162 -11z M205 1299.5q8 25.5 41 39.5q96 61 188 120t170 128q31 12 56.5 2t38 -31.5t8.5 -48.5t-33 -47q-59 -14 -108.5 -41.5t-94.5 -62.5t-88 -75t-86 -77q-33 -8 -56.5 7.5t-33.5 38t-2 48z" />
<glyph unicode="&#xea;" horiz-adv-x="962" d="M21.5 465q-7.5 96 3 190.5t32.5 161.5q37 111 108 172.5t156 79.5t174 -1t165.5 -71.5t129 -131.5t62.5 -179q14 -27 5 -47.5t-36 -32.5q-170 -74 -352 -98.5t-365 -38.5q12 -66 37 -126t60 -107.5t82 -78t104 -36.5q74 -6 157 25.5t154.5 67.5t126 57.5t72.5 -7.5 q16 -33 1 -57.5t-46 -43t-71 -32.5t-72 -27q-86 -35 -158 -60.5t-138.5 -27.5t-132 26t-139.5 99q-55 53 -83.5 140.5t-36 183.5zM92 602l2 2q80 8 162 11t162 9.5t159.5 18.5t157.5 35q-20 117 -77.5 189.5t-131 102t-153.5 19.5t-144.5 -57t-104.5 -131t-32 -199z M102 1281.5q-4 21.5 5.5 45t33.5 39.5q127 164 211 222.5t150.5 39t131 -102.5t154.5 -200l-4 -6q-16 -27 -36.5 -39t-53.5 -4q-33 27 -56.5 65.5t-48 78.5t-52 76t-68.5 56q-41 -33 -76 -74.5t-68.5 -85.5t-69.5 -84t-79 -71q-33 -4 -51.5 9.5t-22.5 35z" />
<glyph unicode="&#xeb;" horiz-adv-x="962" d="M21.5 465q-7.5 96 3 190.5t32.5 161.5q37 111 108 172.5t156 79.5t174 -1t165.5 -71.5t129 -131.5t62.5 -179q14 -27 5 -47.5t-36 -32.5q-170 -74 -352 -98.5t-365 -38.5q12 -66 37 -126t60 -107.5t82 -78t104 -36.5q74 -6 157 25.5t154.5 67.5t126 57.5t72.5 -7.5 q16 -33 1 -57.5t-46 -43t-71 -32.5t-72 -27q-86 -35 -158 -60.5t-138.5 -27.5t-132 26t-139.5 99q-55 53 -83.5 140.5t-36 183.5zM92 602l2 2q80 8 162 11t162 9.5t159.5 18.5t157.5 35q-20 117 -77.5 189.5t-131 102t-153.5 19.5t-144.5 -57t-104.5 -131t-32 -199z M188 1343v11q2 33 21.5 54.5t43 25.5t44 -11.5t25.5 -52.5v-10q-6 -29 -24.5 -46.5t-39 -21.5t-41 8.5t-29.5 42.5zM543 1341v11q2 33 21.5 54t43 25.5t44 -11t24.5 -52.5v-10q-6 -29 -24.5 -46.5t-39 -21.5t-41 8.5t-28.5 42.5z" />
<glyph unicode="&#xec;" horiz-adv-x="460" d="M-2 1470q-4 27 8 48.5t38 32t56 -2.5q39 -35 75 -60.5t72 -48t75.5 -46t87.5 -54.5q33 -14 41 -39.5t-2.5 -48t-34 -38t-56.5 -7.5q-43 37 -77.5 71t-70.5 61.5t-79 49t-100 35.5q-29 20 -33 47zM176 23q0 16 8 36l13 72q2 10 1 26.5t5 10.5q14 193 3.5 384t-30.5 384 q2 33 21.5 54.5t43 25.5t44 -11.5t24.5 -52.5q-10 -123 -18 -251t-4 -250q2 -49 9 -103.5t13 -108t8 -107.5t-8 -103q-6 -29 -23.5 -46.5t-39 -21.5t-41 8.5t-27.5 42.5q0 8 -2 11z" />
<glyph unicode="&#xed;" horiz-adv-x="460" d="M2 1299.5q8 25.5 41 39.5q47 31 87 54.5t76 46t71.5 48t74.5 60.5q31 12 56.5 2t38 -31.5t8.5 -48.5t-33 -47q-59 -14 -101 -35.5t-78 -49t-71 -61.5t-78 -71q-33 -8 -56.5 7.5t-33.5 38t-2 48zM176 23q2 -2 2 -11q8 -31 27.5 -43t41 -8t39 21.5t23.5 46.5q10 49 8 103 t-8 107.5t-13 107.5t-9 104q-4 123 4 250.5t18 250.5q-4 37 -24.5 52.5t-44 11.5t-43 -25.5t-21.5 -54.5q20 -193 30.5 -384.5t-3.5 -383.5q-6 6 -5 -10.5t-1 -26.5l-13 -72q-8 -20 -8 -36z" />
<glyph unicode="&#xee;" horiz-adv-x="559" d="M-2 1348.5q-4 21.5 5 45t34 40.5q20 8 38.5 27.5t45 45t66.5 57t104 62.5q31 -16 64.5 -50t68.5 -74t67.5 -83t59.5 -80l-4 -6q-16 -27 -37 -39t-53 -4q-33 27 -50.5 57.5t-35 60.5t-39 57.5t-62.5 47.5q-41 -33 -61.5 -58t-35.5 -49t-36.5 -47t-64.5 -54q-33 -4 -51.5 9 t-22.5 34.5zM221 23q0 16 8 36l13 72q2 10 1 26.5t5 10.5q14 193 3.5 384t-30.5 384q2 33 21.5 54.5t43 25.5t44 -11.5t24.5 -52.5q-10 -123 -18 -251t-4 -250q2 -49 9 -103.5t13 -108t8.5 -107.5t-8.5 -103q-6 -29 -23.5 -46.5t-39 -21.5t-41 8.5t-27.5 42.5q0 8 -2 11z " />
<glyph unicode="&#xef;" horiz-adv-x="512" d="M39 1343v11q2 33 21.5 54.5t43 25.5t44 -11.5t24.5 -52.5v-10q-6 -29 -24.5 -46.5t-39 -21.5t-41 8.5t-28.5 42.5zM176 23q0 16 8 36l13 72q2 10 1 26.5t5 10.5q14 193 3.5 384t-30.5 384q2 33 21.5 54.5t43 25.5t44 -11.5t24.5 -52.5q-10 -123 -18 -251t-4 -250 q2 -49 9 -103.5t13 -108t8 -107.5t-8 -103q-6 -29 -23.5 -46.5t-39 -21.5t-41 8.5t-27.5 42.5q0 8 -2 11zM340 1341v11q2 33 21.5 54t43 25.5t44 -11t24.5 -52.5v-10q-6 -29 -24.5 -46.5t-39 -21.5t-41 8.5t-28.5 42.5z" />
<glyph unicode="&#xf0;" horiz-adv-x="1048" d="M10.5 340q-10.5 86 15 162t84 142.5t142.5 123.5q29 18 86 43t127 47.5t140.5 43t125.5 32.5q-55 88 -121 170q-59 -47 -115 -95t-122 -87q-33 -4 -51.5 9t-22.5 34.5t5 45t34 40.5q18 4 47 19t45 24q33 16 49.5 23t27.5 11.5t21.5 10.5t30.5 22l2 2q-49 57 -99 106.5 t-97 84.5q-29 20 -33 46.5t8 48t37.5 32t56.5 -1.5q131 -98 228 -234q47 37 94 71t106 52q25 0 37 -13.5t9 -32.5t-21.5 -43t-55.5 -48h-2q-63 -20 -120 -57q35 -53 67.5 -113t65.5 -123q41 -82 83 -181.5t63.5 -203.5t10 -205.5t-76.5 -185.5q-45 -57 -115 -101.5 t-149.5 -70t-164.5 -30.5t-164 14.5t-145.5 64.5t-109.5 121q-53 94 -63.5 180zM116 373q-1 -82 54 -161t182 -136q41 -18 98.5 -22.5t119 8t123 38t110.5 64.5t81 89.5t36 111.5q8 98 -26 213.5t-93 232.5h-4q-145 2 -269.5 -35t-215.5 -98.5t-143 -142t-53 -162.5z" />
<glyph unicode="&#xf1;" horiz-adv-x="1093" d="M14 891q-6 82 3.5 127t41.5 33q27 14 43.5 -15.5t25.5 -88t11 -133.5t3 -150.5t2 -141t8 -104.5q10 98 35.5 190t82.5 170q49 68 110.5 114t129.5 66.5t140.5 13.5t142.5 -46q55 -18 103 -79t85 -146t60.5 -185t29.5 -195.5t-4 -179.5t-41 -135q-12 -23 -31.5 -33t-38 -8 t-33 16.5t-20.5 41.5l-6 14q29 84 44 183t10 199.5t-33.5 196t-86.5 170.5q-55 66 -121.5 92.5t-133 17.5t-129 -51t-107.5 -112q-45 -72 -62.5 -155.5t-20.5 -173t2 -178.5t5 -169q-12 -41 -48 -56t-62 7q-37 4 -50 55q-2 2 -2 7v2q4 80 -7 187.5t-27.5 220t-32 221 t-21.5 190.5zM213 1307.5q-10 23.5 4 58.5q16 29 48 70t71 70.5t82 36.5t82 -30q25 -23 43 -51t35.5 -58t38 -55.5t49.5 -41.5q31 8 43 34.5t15 56t0 52.5t-3 27q2 33 21.5 54t43 25.5t44 -11t24.5 -52.5q-2 -35 -11 -76t-26.5 -80t-44.5 -69.5t-65 -40.5q-8 -2 -33 -7.5 t-37 1.5q-29 18 -55.5 53t-51 70.5t-47 64.5t-46 33t-49 -23.5t-52.5 -103.5q-18 -31 -44 -40t-47.5 0t-31.5 32.5z" />
<glyph unicode="&#xf2;" horiz-adv-x="1110" d="M5 450.5q-7 88.5 14.5 177.5t74.5 169q63 111 173 168t232 61t238.5 -43t194.5 -143q78 -98 109.5 -200.5t23.5 -199t-53 -181.5t-122 -147.5t-182.5 -96t-232.5 -27.5q-104 6 -188 46t-144.5 103.5t-95.5 144t-42 169zM97 522.5q-9 -114.5 35 -214t136 -169t219 -78.5 q121 -8 214.5 24t155 91.5t90 139t21.5 167.5t-52.5 177t-129.5 167q-63 57 -146 75t-167 2.5t-162 -59.5t-129 -110q-76 -98 -85 -212.5zM276 1509q-4 27 8.5 48.5t38 31.5t56.5 -2q78 -70 170 -128t188 -120q33 -14 41 -39.5t-2 -48t-33.5 -38t-56.5 -7.5q-43 37 -86 77 t-88 75t-95.5 62.5t-107.5 41.5q-29 20 -33 47z" />
<glyph unicode="&#xf3;" horiz-adv-x="1110" d="M5 450.5q7 -88.5 42 -169t95.5 -144t144.5 -103.5t188 -46q127 -6 232.5 27.5t182.5 96t122 147.5t53 181.5t-23.5 198.5t-109.5 201q-78 96 -194.5 143t-238.5 43t-232 -61t-173 -168q-53 -80 -74.5 -169t-14.5 -177.5zM97 522.5q9 114.5 85 212.5q51 66 129 110 t162 59.5t167 -2.5t146 -75q84 -78 129.5 -167t52.5 -177t-21.5 -167.5t-90 -139t-155 -91.5t-214.5 -24q-127 8 -219 78t-136 169.5t-35 214zM278.5 1299.5q8.5 25.5 40.5 39.5q96 61 188.5 120t170.5 128q31 12 56.5 2t37.5 -31.5t8.5 -48.5t-32.5 -47 q-59 -14 -108.5 -41.5t-94.5 -62.5t-88 -75t-86 -77q-33 -8 -56.5 7.5t-34 38t-2 48z" />
<glyph unicode="&#xf4;" horiz-adv-x="1110" d="M5 450.5q-7 88.5 14.5 177.5t74.5 169q63 111 173 168t232 61t238.5 -43t194.5 -143q78 -98 109.5 -200.5t23.5 -199t-53 -181.5t-122 -147.5t-182.5 -96t-232.5 -27.5q-104 6 -188 46t-144.5 103.5t-95.5 144t-42 169zM97 522.5q-9 -114.5 35 -214t136 -169t219 -78.5 q121 -8 214.5 24t155 91.5t90 139t21.5 167.5t-52.5 177t-129.5 167q-63 57 -146 75t-167 2.5t-162 -59.5t-129 -110q-76 -98 -85 -212.5zM180 1281.5q-4 21.5 5.5 45t33.5 39.5q127 164 211 222.5t150.5 39t131 -102.5t154.5 -200l-4 -6q-16 -27 -36.5 -39t-53.5 -4 q-33 27 -56.5 65.5t-48 78.5t-52 76t-68.5 56q-41 -33 -76 -74.5t-68.5 -85.5t-69.5 -84t-79 -71q-33 -4 -51.5 9.5t-22.5 35z" />
<glyph unicode="&#xf5;" horiz-adv-x="1110" d="M5 450.5q-7 88.5 14.5 177.5t74.5 169q63 111 173 168t232 61t238.5 -43t194.5 -143q78 -98 109.5 -200.5t23.5 -199t-53 -181.5t-122 -147.5t-182.5 -96t-232.5 -27.5q-104 6 -188 46t-144.5 103.5t-95.5 144t-42 169zM97 522.5q-9 -114.5 35 -214t136 -169t219 -78.5 q121 -8 214.5 24t155 91.5t90 139t21.5 167.5t-52.5 177t-129.5 167q-63 57 -146 75t-167 2.5t-162 -59.5t-129 -110q-76 -98 -85 -212.5zM221 1307.5q-10 23.5 4 58.5q16 29 48 70t71 70.5t82 36.5t82 -30q25 -23 43 -51t35.5 -58t38 -55.5t49.5 -41.5q31 8 43 34.5t15 56 t0 52.5t-3 27q2 33 21.5 54t43 25.5t44 -11t24.5 -52.5q-2 -35 -11 -76t-26.5 -80t-44 -69.5t-65.5 -40.5q-8 -2 -33 -7.5t-37 1.5q-29 18 -55.5 53t-51 70.5t-47 64.5t-46 33t-49 -23.5t-52.5 -103.5q-18 -31 -44 -40t-47.5 0t-31.5 32.5z" />
<glyph unicode="&#xf6;" horiz-adv-x="1110" d="M5 450.5q-7 88.5 14.5 177.5t74.5 169q63 111 173 168t232 61t238.5 -43t194.5 -143q78 -98 109.5 -200.5t23.5 -199t-53 -181.5t-122 -147.5t-182.5 -96t-232.5 -27.5q-104 6 -188 46t-144.5 103.5t-95.5 144t-42 169zM97 522.5q-9 -114.5 35 -214t136 -169t219 -78.5 q121 -8 214.5 24t155 91.5t90 139t21.5 167.5t-52.5 177t-129.5 167q-63 57 -146 75t-167 2.5t-162 -59.5t-129 -110q-76 -98 -85 -212.5zM319 1343v11q2 33 21.5 54.5t43.5 25.5t44.5 -11.5t24.5 -52.5v-10q-6 -29 -24.5 -46.5t-39 -21.5t-41 8.5t-29.5 42.5zM674 1341v11 q2 33 21.5 54t43 25.5t44 -11t24.5 -52.5v-10q-6 -29 -24.5 -46.5t-39 -21.5t-41 8.5t-28.5 42.5z" />
<glyph unicode="&#xf7;" horiz-adv-x="839" d="M47 748.5q6 23.5 28.5 42t55.5 16.5q8 -4 21.5 -4t7.5 -6q-2 -2 -4 -2q154 -27 298 -19t298 31q37 -2 53 -21.5t13 -44t-22.5 -46t-52.5 -25.5q-80 8 -160.5 19t-162.5 9q-78 -2 -159 -18t-161 -10q-35 8 -47 31.5t-6 47zM330 939q-2 17 6 35.5t24 31.5q16 14 36 19 t42 -9q12 -8 15.5 -18.5t13.5 -18.5q2 -25 -8 -49q0 -2 -2 -4l-11 -15q-2 -4 -10 -12h-2q-23 -18 -45 -12l-4 -2q-27 6 -40 21.5t-15 32.5zM349 558.5q5 21.5 18.5 35.5t36 19t47.5 -5q4 -10 10 -16t10 -14q18 -23 19.5 -46.5t-10 -42t-33 -27.5t-50.5 -3q-2 4 -7 10t-9 10 q-20 8 -29 35q-8 23 -3 44.5z" />
<glyph unicode="&#xf8;" horiz-adv-x="1110" d="M9.5 574.5q15.5 119.5 84.5 222.5q45 78 113.5 129t149.5 75.5t169 23.5t170 -28l78 240q14 31 40 43t49.5 7t36.5 -25.5t3 -57.5q-29 -66 -55.5 -128t-50.5 -122q80 -47 135 -114q78 -98 109.5 -200.5t23.5 -199t-53 -181.5t-122 -147.5t-182.5 -96t-232.5 -27.5l-37 4 l-59 -187q-16 -25 -40 -35t-44.5 -5.5t-34.5 22.5t-12 51l78 178q-117 41 -193 130.5t-107.5 199t-16 229zM101 553q-15 -98 10.5 -188.5t89 -164t155.5 -110.5q88 209 161 403.5t145 403.5q-61 18 -129 14t-132.5 -25.5t-122 -60.5t-96.5 -90q-66 -84 -81 -182zM463 63 q8 -2 24 -2q121 -8 214.5 24t155 91.5t90 139t21.5 167.5t-52.5 177.5t-129.5 166.5z" />
<glyph unicode="&#xf9;" horiz-adv-x="1044" d="M12 563q-4 92 1 180.5t5 178.5q2 33 21.5 54t43 25.5t44 -11t25.5 -52.5q-4 -74 -14.5 -151.5t-14.5 -154.5t1 -153t30 -149q53 -154 136 -222.5t174 -71.5t180 50t152.5 142t92.5 205t0 239q-2 6 -10.5 45t-18.5 83t-18 81l-8 37q-8 25 0 48t25.5 36.5t40 14.5t44.5 -20 l-6 9l12 -13q-4 0 -4 4q18 -23 30.5 -71.5t21 -106t13.5 -112t9 -89.5q14 -123 -18.5 -241.5t-106.5 -210.5t-184.5 -145.5t-247.5 -47.5q-129 6 -213 55.5t-135.5 128.5t-75 183t-27.5 223zM246 1509q-4 27 8 48.5t37.5 31.5t56.5 -2q78 -70 170 -128t189 -120 q33 -14 41 -39.5t-2.5 -48t-34 -38t-56.5 -7.5q-43 37 -86 77t-88 75t-95 62.5t-107 41.5q-29 20 -33 47z" />
<glyph unicode="&#xfa;" horiz-adv-x="1044" d="M12 563q4 -119 27.5 -223t75 -183t135.5 -128t213 -56q137 -6 247.5 47.5t184.5 145.5t106.5 211t18.5 241q-4 35 -9 89.5t-13.5 112t-20.5 106.5t-31 71q0 -4 4 -4l-12 13l6 -9q-23 20 -45 19.5t-39.5 -14t-26 -37t0.5 -47.5l8 -37t18 -81t18.5 -83t10.5 -45 q29 -123 0 -239t-92.5 -205t-152.5 -142t-180 -50t-174 71.5t-136 222.5q-25 74 -30 149.5t-1 152.5t14 154.5t15 151.5q-4 37 -25 52.5t-44.5 11t-43 -25.5t-21.5 -54q0 -90 -5 -178.5t-1 -180.5zM248 1299.5q8 25.5 41 39.5q96 61 188 120t170 128q31 12 56.5 2t38 -31.5 t8.5 -48.5t-33 -47q-59 -14 -108.5 -41.5t-94.5 -62.5t-88 -75t-86 -77q-33 -8 -56.5 7.5t-33.5 38t-2 48z" />
<glyph unicode="&#xfb;" horiz-adv-x="1044" d="M12 563q-4 92 1 180.5t5 178.5q2 33 21.5 54t43 25.5t44 -11t25.5 -52.5q-4 -74 -14.5 -151.5t-14.5 -154.5t1 -153t30 -149q53 -154 136 -222.5t174 -71.5t180 50t152.5 142t92.5 205t0 239q-2 6 -10.5 45t-18.5 83t-18 81l-8 37q-8 25 0 48t25.5 36.5t40 14.5t44.5 -20 l-6 9l12 -13q-4 0 -4 4q18 -23 30.5 -71.5t21 -106t13.5 -112t9 -89.5q14 -123 -18.5 -241.5t-106.5 -210.5t-184.5 -145.5t-247.5 -47.5q-129 6 -213 55.5t-135.5 128.5t-75 183t-27.5 223zM180 1281.5q-4 21.5 5.5 45t33.5 39.5q127 164 211 222.5t150.5 39t131 -102.5 t154.5 -200l-4 -6q-16 -27 -36.5 -39t-53.5 -4q-33 27 -56.5 65.5t-48 78.5t-52 76t-68.5 56q-41 -33 -76 -74.5t-68.5 -85.5t-69.5 -84t-79 -71q-33 -4 -51.5 9.5t-22.5 35z" />
<glyph unicode="&#xfc;" horiz-adv-x="1044" d="M12 563q-4 92 1 180.5t5 178.5q2 33 21.5 54t43 25.5t44 -11t25.5 -52.5q-4 -74 -14.5 -151.5t-14.5 -154.5t1 -153t30 -149q53 -154 136 -222.5t174 -71.5t180 50t152.5 142t92.5 205t0 239q-2 6 -10.5 45t-18.5 83t-18 81l-8 37q-8 25 0 48t25.5 36.5t40 14.5t44.5 -20 l-6 9l12 -13q-4 0 -4 4q18 -23 30.5 -71.5t21 -106t13.5 -112t9 -89.5q14 -123 -18.5 -241.5t-106.5 -210.5t-184.5 -145.5t-247.5 -47.5q-129 6 -213 55.5t-135.5 128.5t-75 183t-27.5 223zM272 1343v11q2 33 21.5 54.5t43 25.5t44 -11.5t25.5 -52.5v-10q-6 -29 -25 -46.5 t-39 -21.5t-40.5 8.5t-29.5 42.5zM627 1341v11q2 33 21.5 54t43 25.5t44 -11t24.5 -52.5v-10q-6 -29 -24.5 -46.5t-39 -21.5t-41 8.5t-28.5 42.5z" />
<glyph unicode="&#xfd;" horiz-adv-x="978" d="M11 440q-1 -82 36 -157q51 -106 145.5 -160.5t205 -58t224 44t203.5 143.5q0 -59 -4 -115.5t-16 -111.5q-18 -90 -61.5 -144.5t-98.5 -83t-114.5 -37t-111.5 -5.5t-89 13.5t-47 16.5q-29 12 -52.5 5t-37 -25.5t-14.5 -43t16 -49.5q70 -23 147.5 -33t152 -3.5t145.5 31 t125 70.5t91 115.5t45 165.5q8 90 13.5 206t2 236t-16.5 232.5t-40 198.5q-18 20 -37.5 12t-29.5 -31q-6 -31 -2 -86t11 -123.5t14 -147.5t7 -157q-12 -23 -29.5 -42t-45.5 -44q-68 -55 -154 -85.5t-170 -27.5t-159 46t-122 135q-23 47 -15.5 123t27 159t42 163.5 t28.5 138.5q-4 33 -20.5 48t-37 15t-41 -15t-32.5 -42q-6 -76 -28.5 -159t-38 -166t-16.5 -165zM248 1299.5q8 25.5 41 39.5q96 61 188 120t170 128q31 12 56.5 2t38 -31.5t8.5 -48.5t-33 -47q-59 -14 -108.5 -41.5t-94.5 -62.5t-88 -75t-86 -77q-33 -8 -56.5 7.5t-33.5 38 t-2 48z" />
<glyph unicode="&#xfe;" horiz-adv-x="954" d="M43 1599q2 33 21.5 54.5t43 25.5t44 -11t24.5 -52q-6 -143 -7 -304t3 -331q41 27 82 51.5t88 36.5q104 27 195.5 -9t162 -106.5t118.5 -163t67 -178.5q14 -66 5 -142.5t-38 -152t-74 -145.5t-102.5 -123t-126 -82.5t-139.5 -25.5q-20 2 -48 5t-57 9t-54.5 15.5 t-43.5 21.5l14 -238q-6 -29 -24.5 -46t-39 -21t-41 8t-28.5 43q8 205 7 445.5t-8 487.5t-19.5 485t-24.5 443zM188 241q0 -48 2 -51q27 -29 50.5 -51t49 -39.5t57.5 -29t79 -15.5q76 -4 142.5 28t116.5 86t83 122.5t45 136.5q10 51 2 113.5t-31.5 126t-60.5 123t-86 102.5 t-108.5 63.5t-125.5 8.5q-35 -6 -71.5 -23.5t-66 -38t-48 -38t-18.5 -23.5q0 -2 -1 -50.5t-3 -120t-3.5 -154.5t-2.5 -155.5t-1 -120.5z" />
<glyph unicode="&#xff;" horiz-adv-x="989" d="M11 440.5q1 81.5 16.5 164.5t38 166t28.5 159q12 27 32.5 42t41 15t37 -15.5t20.5 -47.5q-6 -57 -28.5 -138t-42 -164t-26.5 -159t15 -123q47 -92 122 -135t159 -46t170 27.5t154 85.5q29 25 46 44.5t29 41.5q0 78 -7 157t-14 147.5t-11.5 124t2.5 85.5q10 23 29.5 31 t37.5 -12q27 -86 40 -198.5t16.5 -232.5t-2 -235.5t-13.5 -206.5q-8 -96 -45 -165.5t-91 -115.5t-125 -70.5t-145.5 -31t-152.5 4t-147 32.5q-16 25 -15.5 49.5t14 43t37 25.5t52.5 -5q10 -6 47 -16.5t89 -13.5t111.5 5.5t114.5 37t98 82.5t62 145q12 55 16 111.5t4 115.5 q-90 -96 -203.5 -143.5t-224 -44t-205 57.5t-145.5 161q-37 76 -36 157.5zM272 1343v11q2 33 21.5 54.5t43 25.5t44 -11.5t25.5 -52.5v-10q-6 -29 -25 -46.5t-39 -21.5t-40.5 8.5t-29.5 42.5zM627 1341v11q2 33 21.5 54t43 25.5t44 -11t24.5 -52.5v-10q-6 -29 -24.5 -46.5 t-39 -21.5t-41 8.5t-28.5 42.5z" />
<glyph unicode="&#x152;" horiz-adv-x="1525" d="M10.5 550q-16.5 142 10 288.5t94 271.5t178 213t264.5 115q39 8 75 5t69.5 -12.5t65.5 -22.5t64 -24q90 -8 154 -11t122 -1t122.5 7t159.5 16q10 8 22 10q8 0 14.5 -1t14.5 -3q35 -2 50 -20.5t12 -41t-20.5 -43t-47.5 -26.5q-8 0 -15.5 -1t-15.5 -1t-17 4q-84 6 -145 8 t-117.5 1t-118 -5t-145.5 -10q-2 -66 -3 -108t-1 -78t2 -76.5t4 -104.5q57 -8 102.5 -10t86.5 1t79.5 12t83.5 24q37 10 58.5 -1.5t27 -33t-7 -45t-43.5 -37.5q-68 0 -110.5 3t-79.5 3t-80 -5t-111 -22q10 -160 20.5 -329.5t22.5 -329.5q174 -12 296 -8t204 26 q35 0 56.5 2.5t31.5 -1t10 -15.5t-6 -43q-12 -31 -46 -44t-86 -16t-117.5 0t-138.5 5t-150.5 -1.5t-151.5 -19.5q-184 -61 -326.5 -38.5t-243 102.5t-158.5 205t-74.5 267zM88 677q0 -138 42 -267t129 -214t220 -110t314 45q6 43 6 129t-3 194.5t-9.5 228.5t-13.5 230.5 t-15.5 200.5t-14.5 141q-160 61 -281.5 30.5t-204.5 -120.5t-126 -220t-43 -268z" />
<glyph unicode="&#x153;" horiz-adv-x="1576" d="M5 450.5q-7 88.5 14.5 177.5t74.5 169q49 88 130 142t175.5 74.5t192.5 8.5t184 -55q55 57 127 80.5t146.5 19.5t147.5 -33.5t132.5 -81t99 -122t48.5 -154.5q14 -27 5 -47.5t-36 -32.5q-170 -74 -352.5 -98.5t-364.5 -38.5q12 -66 37 -126.5t59.5 -107.5t81.5 -77.5 t105 -36.5q74 -6 156.5 25.5t154.5 67.5t126 57.5t73 -7.5q16 -33 0.5 -57.5t-46 -43t-70.5 -33t-73 -26.5q-76 -31 -139.5 -54.5t-122.5 -30.5t-115.5 5.5t-115.5 53.5q-37 -16 -83 -30.5t-96.5 -26t-98.5 -18.5t-87 -5q-104 6 -188 46t-144.5 103.5t-95.5 144t-42 169z M97 522.5q-9 -114.5 35 -214t136 -169.5t219 -78q66 -4 150 14.5t143 41.5q-8 6 -14 14q-55 53 -84 140t-36 183.5t3 190.5t33 162q14 41 31 70q-66 31 -139.5 34.5t-146.5 -17t-136.5 -61t-108.5 -98.5q-76 -98 -85 -212.5zM717 592l2 2q80 8 162 11t161.5 9.5t159.5 18.5 t158 35q-20 117 -77.5 189.5t-131.5 102t-153.5 19.5t-144.5 -57.5t-104.5 -131t-31.5 -198.5z" />
<glyph unicode="&#x178;" d="M20 447q-4 94 2.5 198.5t19.5 212t28.5 205.5t29 179t17.5 132q12 27 32.5 42.5t41 15.5t37 -15.5t20.5 -48.5q-4 -39 -21.5 -110.5t-37 -162.5t-39 -195.5t-29.5 -206t-7 -193.5t29 -160q47 -92 128 -118.5t172.5 -11.5t183.5 62t159 103q29 25 46.5 44t29.5 42 q0 51 -1 130t-2 167t-2 178t-1 168t2 135t6 78q10 23 29.5 31t38.5 -13q18 -57 28.5 -160.5t13.5 -229.5t2 -264t-5 -265t-10.5 -232.5t-10.5 -165.5q-8 -96 -48 -165.5t-100.5 -115.5t-137 -70.5t-157.5 -31t-162 4t-150 32.5q-16 25 -15.5 49.5t14 43t37 25.5t52.5 -5 q10 -6 51 -16.5t98 -13.5t123 5.5t126 37t107.5 82.5t65.5 145q6 27 8 70.5t3 92t0 93.5t-1 73q-59 -63 -137 -114.5t-161 -84t-165 -46t-152.5 0t-123.5 55.5t-78 118q-23 70 -27 164zM301 1708v10q2 33 21.5 54.5t43 25.5t44 -11t24.5 -52v-11q-6 -29 -24.5 -46t-39 -21 t-41 8t-28.5 43zM655 1706v10q2 33 21.5 54.5t43 25.5t44 -11.5t24.5 -51.5v-11q-6 -29 -24.5 -46t-38.5 -21t-40.5 8t-29.5 43z" />
<glyph unicode="&#x2c6;" horiz-adv-x="745" d="M24.5 1541.5q-4.5 21.5 5 45t33.5 39.5q127 164 211 222.5t151 39t131.5 -102.5t154.5 -200l-4 -6q-16 -27 -37 -39t-54 -4q-33 27 -56 65.5t-48 78.5t-52.5 76t-68.5 56q-41 -33 -75.5 -74.5t-68.5 -85.5t-70 -84t-79 -71q-33 -4 -51 9.5t-22.5 35z" />
<glyph unicode="&#x2dc;" horiz-adv-x="700" d="M26.5 1631.5q-10.5 23.5 4.5 58.5q16 29 48 69.5t70.5 70.5t81.5 37t82 -30q25 -23 43.5 -51.5t36 -58t38 -55t48.5 -42.5q31 8 43.5 35t15.5 56.5t0 52t-3 26.5q2 33 21 54.5t43 25.5t44.5 -11.5t24.5 -51.5q-2 -35 -11.5 -76t-27 -80t-44 -69.5t-65.5 -41.5 q-8 -2 -32.5 -7t-36.5 1q-31 16 -56.5 52t-50.5 72t-47.5 64.5t-46 32.5t-48.5 -23.5t-52 -103.5q-18 -31 -44 -40t-47.5 0.5t-32 33z" />
<glyph unicode="&#x2000;" horiz-adv-x="957" />
<glyph unicode="&#x2001;" horiz-adv-x="1915" />
<glyph unicode="&#x2002;" horiz-adv-x="957" />
<glyph unicode="&#x2003;" horiz-adv-x="1915" />
<glyph unicode="&#x2004;" horiz-adv-x="638" />
<glyph unicode="&#x2005;" horiz-adv-x="478" />
<glyph unicode="&#x2006;" horiz-adv-x="319" />
<glyph unicode="&#x2007;" horiz-adv-x="319" />
<glyph unicode="&#x2008;" horiz-adv-x="239" />
<glyph unicode="&#x2009;" horiz-adv-x="383" />
<glyph unicode="&#x200a;" horiz-adv-x="106" />
<glyph unicode="&#x2010;" horiz-adv-x="591" d="M17 730.5q3 21.5 19.5 41t43.5 27.5q70 -16 118 -27.5t87 -15.5t77.5 2t92.5 26q14 12 34 13l3 2v-2q16 4 40 -15v2q4 -2 13 -10l-8 6q27 -33 15.5 -66.5t-50.5 -49.5q-109 6 -215 11t-215 -13q-31 8 -44.5 27.5t-10.5 41z" />
<glyph unicode="&#x2011;" horiz-adv-x="591" d="M17 730.5q3 21.5 19.5 41t43.5 27.5q70 -16 118 -27.5t87 -15.5t77.5 2t92.5 26q14 12 34 13l3 2v-2q16 4 40 -15v2q4 -2 13 -10l-8 6q27 -33 15.5 -66.5t-50.5 -49.5q-109 6 -215 11t-215 -13q-31 8 -44.5 27.5t-10.5 41z" />
<glyph unicode="&#x2012;" horiz-adv-x="591" d="M17 730.5q3 21.5 19.5 41t43.5 27.5q70 -16 118 -27.5t87 -15.5t77.5 2t92.5 26q14 12 34 13l3 2v-2q16 4 40 -15v2q4 -2 13 -10l-8 6q27 -33 15.5 -66.5t-50.5 -49.5q-109 6 -215 11t-215 -13q-31 8 -44.5 27.5t-10.5 41z" />
<glyph unicode="&#x2013;" horiz-adv-x="770" d="M17 730.5q3 21.5 19.5 41t43.5 27.5q70 -16 145.5 -28.5t149.5 -16.5t141.5 2t120.5 26q14 12 35 13l2 2v-2q23 4 45 -17l-4 4q4 -2 12 -10l-8 6q27 -33 15.5 -66.5t-50.5 -49.5q-53 2 -136 6t-170 6t-170 -1t-136 -11q-31 8 -44.5 27.5t-10.5 41z" />
<glyph unicode="&#x2014;" horiz-adv-x="1019" d="M17 730.5q3 21.5 19.5 41t43.5 27.5q47 -10 114.5 -18.5t143.5 -13.5t155.5 -7t152.5 1t132.5 10t95.5 22q14 12 35 12l2 2v-2q23 4 45 -17l-4 5q4 -2 13 -11l-9 6q27 -33 16 -66.5t-50 -49.5q-35 2 -102.5 4t-149.5 3t-173 0t-173 -2t-149.5 -5t-102.5 -10 q-31 8 -44.5 27.5t-10.5 41z" />
<glyph unicode="&#x202f;" horiz-adv-x="383" />
<glyph unicode="&#x205f;" horiz-adv-x="478" />
<glyph unicode="&#x20ac;" horiz-adv-x="860" d="M-3 519.5q3 21.5 19.5 41t42.5 27.5q55 -6 117 -6q-2 35 -1 69.5t5 69.5v14q-25 -6 -52.5 -11t-57.5 -11q-31 8 -44.5 27.5t-10.5 41t19.5 41t43.5 27.5q29 -4 58.5 -8t58.5 -8q2 72 47 131t110.5 101t144 63.5t150.5 17.5q31 -14 40 -39t0 -47.5t-31.5 -37.5t-53.5 -11 q-49 0 -99 -8.5t-96.5 -30t-82 -56t-54.5 -88.5q68 0 136.5 21.5t146.5 32.5h4v-4q4 0 10 1t13 1q31 -12 40 -34t2.5 -43.5t-27 -37.5t-46.5 -21h-4q-4 0 -5 1.5t-5 1.5q-82 18 -145.5 16t-135.5 -14q-6 -61 -6 -144v-24q72 4 140.5 18t127.5 43q-16 -8 -10 -2q16 10 37 14 h2q41 6 59.5 -27.5t-6.5 -76.5q-23 -25 -58.5 -31t-74.5 -5t-78 4t-70 1t-65 -12q4 -57 22.5 -112.5t59.5 -94.5q18 -18 47 -24.5t57 -4.5q20 4 63.5 10.5t90.5 14.5t88 18.5t55 22.5q31 20 56.5 16t38 -23.5t9.5 -47t-28 -52.5q-10 -6 -43 -17t-84 -22.5t-114.5 -18.5 t-131.5 -3q-98 8 -161.5 63.5t-77.5 155.5q-4 25 -7.5 50.5t-7.5 49.5q-35 -10 -67.5 -21t-65.5 -17q-31 8 -44 27.5t-10 41z" />
<glyph unicode="&#x25fc;" horiz-adv-x="993" d="M0 0v993h993v-993h-993z" />
<glyph unicode="&#xfb01;" horiz-adv-x="749" d="M3 765q-1 17 11.5 33.5t38.5 24.5q16 -4 43 4.5t43 6.5q-4 127 26 248.5t96.5 206.5t173 118t257.5 -16q23 -25 24 -52.5t-13.5 -48t-40 -28t-54.5 11.5q-59 18 -120.5 27.5t-120.5 -31.5q-45 -31 -74 -80t-46.5 -109.5t-25.5 -126t-8 -127.5q37 -4 80 2.5t90 13.5t96 12 t99 3q39 -16 44 -47t-12 -51q-4 -43 3.5 -130t14.5 -188.5t7 -205t-14 -183.5q-6 -29 -20.5 -46t-30 -21t-32 8t-24.5 43q0 8 -2 10q0 16 8 37l12 72q2 10 1 26.5t6 10.5q6 92 6 156.5t-6.5 122.5t-15.5 121.5t-17 156.5q-49 4 -127 3t-158 -24q6 -119 17.5 -209t27 -163.5 t31.5 -139t33 -135.5q2 -14 -6.5 -26.5t-23.5 -19.5t-34.5 -6t-40.5 13q-10 37 -19 95.5t-18.5 127t-17.5 140t-14 135t-11.5 111.5t-7.5 69l-76 -2q-29 2 -43 15.5t-15 30.5z" />
<glyph unicode="&#xfb02;" horiz-adv-x="749" d="M3 765q-1 17 11.5 33.5t38.5 24.5q16 -4 43 4.5t43 6.5q-4 123 23.5 240.5t90 202.5t162 123t240.5 1q20 0 33 -10h4q31 -33 21 -74q-10 -203 -11.5 -402.5t3.5 -404.5q0 -47 4 -108.5t5 -127t-5.5 -127t-26.5 -106.5q-23 -20 -45.5 -23.5t-39.5 6t-25.5 30t-0.5 46.5 q0 12 4.5 42t9.5 64t10 63.5t7 41.5q4 43 9 94.5t9.5 105.5t7.5 105.5t3 92.5q0 143 -16.5 286.5t-30.5 284.5q-53 16 -108.5 21.5t-108.5 -31.5q-45 -31 -74 -80t-46.5 -109.5t-25.5 -126t-8 -127.5q37 -4 68.5 1.5t63.5 11.5t70 10t87 2q31 -12 40 -33.5t4 -42t-24.5 -33 t-48.5 -6.5q-31 6 -90 14.5t-162 -22.5q6 -119 17.5 -209t27 -163.5t31.5 -139t33 -135.5q2 -14 -6.5 -26.5t-23.5 -19.5t-34.5 -6t-40.5 13q-10 37 -19 95.5t-18.5 127t-17.5 140t-14 135t-11.5 111.5t-7.5 69l-76 -2q-29 2 -43 15.5t-15 30.5z" />
</font>
</defs>
</svg>
